<?xml version="1.0" encoding="UTF-8"?>
<svg xmlns="http://www.w3.org/2000/svg" xmlns:xlink="http://www.w3.org/1999/xlink" width="20" height="20" viewBox="0 0 20 20">
<path fill-rule="nonzero" fill="rgb(90.196078%, 65.098039%, 6.666667%)" fill-opacity="1" d="M 6.175781 19.71875 C 5.09375 19.71875 4.613281 19.175781 4.542969 18.707031 C 4.460938 18.09375 4.867188 17.523438 5.46875 17.398438 C 5.765625 17.304688 6.90625 16.894531 8.566406 16.222656 L 8.566406 12.53125 L 1.507812 12.53125 C 0.707031 12.53125 0.328125 12.117188 0.328125 11.753906 C 0.285156 11.289062 0.585938 10.859375 1.035156 10.742188 C 1.339844 10.589844 5.648438 8.234375 8.566406 6.625 L 8.566406 3.53125 C 8.566406 2.222656 9.082031 0.339844 10.011719 0.339844 C 10.941406 0.339844 11.492188 2.164062 11.492188 3.53125 L 11.492188 6.625 C 14.375 8.234375 18.671875 10.589844 18.988281 10.742188 C 19.449219 10.851562 19.753906 11.285156 19.707031 11.753906 C 19.648438 12.117188 19.28125 12.542969 18.46875 12.542969 L 11.492188 12.542969 L 11.492188 16.292969 L 13.386719 16.988281 L 14.566406 17.410156 C 15.15625 17.554688 15.558594 18.109375 15.507812 18.71875 C 15.421875 19.175781 14.953125 19.730469 13.871094 19.730469 Z M 6.175781 19.71875 "/>
<path fill-rule="nonzero" fill="rgb(0%, 0%, 0%)" fill-opacity="1" d="M 10.046875 0.566406 C 10.695312 0.566406 11.222656 2.164062 11.222656 3.46875 L 11.222656 6.789062 C 11.222656 6.789062 18.457031 10.847656 18.90625 11.011719 C 19.753906 11.304688 19.625 12.257812 18.480469 12.257812 L 11.210938 12.257812 L 11.210938 16.46875 C 12.90625 17.082031 14.152344 17.566406 14.457031 17.648438 C 15.636719 18.070312 15.457031 19.410156 13.847656 19.410156 L 6.175781 19.410156 C 4.554688 19.410156 4.386719 18.070312 5.566406 17.648438 C 5.871094 17.554688 7.128906 17.09375 8.835938 16.46875 L 8.835938 12.246094 L 1.519531 12.246094 C 0.339844 12.246094 0.339844 11.292969 1.09375 11 C 1.566406 10.847656 8.847656 6.777344 8.847656 6.777344 L 8.847656 3.53125 C 8.847656 2.222656 9.363281 0.625 10.023438 0.625 M 10.023438 0.0585938 C 8.835938 0 8.234375 2.070312 8.234375 3.53125 L 8.234375 6.457031 C 5.519531 7.988281 1.304688 10.316406 0.90625 10.46875 C 0.316406 10.605469 -0.0742188 11.164062 0 11.765625 C 0.167969 12.433594 0.8125 12.867188 1.492188 12.777344 L 8.234375 12.777344 L 8.234375 16.046875 C 6.707031 16.625 5.613281 17.011719 5.351562 17.09375 C 4.601562 17.261719 4.097656 17.964844 4.175781 18.730469 C 4.269531 19.304688 4.835938 19.964844 6.09375 19.964844 L 13.753906 19.964844 C 15.011719 19.964844 15.566406 19.292969 15.671875 18.730469 C 15.753906 17.988281 15.285156 17.300781 14.566406 17.105469 L 13.386719 16.683594 L 11.765625 16.082031 L 11.765625 12.8125 L 18.46875 12.8125 C 19.175781 12.914062 19.839844 12.460938 20 11.765625 C 20.089844 11.15625 19.695312 10.582031 19.09375 10.445312 C 18.707031 10.316406 14.519531 7.988281 11.765625 6.457031 L 11.765625 3.53125 C 11.765625 2.128906 11.210938 0 10.035156 0 Z M 10.023438 0.0585938 "/>
</svg>
