<svg xmlns="http://www.w3.org/2000/svg" viewBox="0 0 17 17" width="17px" height="17px"  ><defs><style>.cls-1{fill:#ff0000;}.cls-2{fill:#000000;}</style></defs><title>unknown_live</title><g id="Layer_2" data-name="Layer 2"><g id="Unknown"><path class="cls-1" d="M5.25,16.76c-.92,0-1.33-.46-1.39-.86a1,1,0,0,1,.79-1.11c.25-.08,1.22-.43,2.63-1V10.65h-6c-.68,0-1-.35-1-.66a.81.81,0,0,1,.6-.86C1.14,9,4.8,7,7.28,5.63V3c0-1.11.44-2.71,1.23-2.71S9.77,1.84,9.77,3V5.63C12.22,7,15.87,9,16.14,9.13a.8.8,0,0,1,.61.86c-.05.31-.36.67-1.05.67H9.77v3.19l1.61.59,1,.36a1.05,1.05,0,0,1,.8,1.11c-.07.39-.47.86-1.39.86Z"/><path class="cls-2" d="M8.54.48c.55,0,1,1.36,1,2.47V5.77s6.15,3.45,6.53,3.59c.72.25.61,1.06-.36,1.06H9.53V14c1.44.52,2.5.93,2.76,1,1,.36.85,1.5-.52,1.5H5.25c-1.38,0-1.52-1.14-.52-1.5.26-.08,1.33-.47,2.78-1V10.41H1.29c-1,0-1-.81-.36-1.06.4-.13,6.59-3.59,6.59-3.59V3c0-1.11.44-2.47,1-2.47h0m0-.48h0C7.51,0,7,1.76,7,3V5.49C4.69,6.79,1.11,8.77.77,8.9A1,1,0,0,0,0,10a1.15,1.15,0,0,0,1.27.86H7v2.78c-1.3.49-2.23.82-2.45.89a1.29,1.29,0,0,0-1,1.39c.08.49.56,1.05,1.63,1.05h6.51c1.07,0,1.54-.57,1.63-1.05a1.28,1.28,0,0,0-.94-1.38l-1-.36L10,13.67V10.89h5.7A1.16,1.16,0,0,0,17,10a1,1,0,0,0-.77-1.12C15.9,8.77,12.34,6.79,10,5.49V3c0-1.19-.47-3-1.47-3Z"/></g></g></svg>
