<svg xmlns="http://www.w3.org/2000/svg" viewBox="0 0 17 13" width="17px" height="13px" ><defs><style>.cls-1{fill:#e6a611;}.cls-2{fill:#000000;}</style></defs><title>cessna_live</title><g id="Layer_2" data-name="Layer 2"><g id="Cessna"><path class="cls-1" d="M8.51,12.75c-.17,0-2-.27-2.56-.35A.41.41,0,0,1,5.6,12V10.87a.41.41,0,0,1,.32-.4l1.81-.37L7.36,6.64H4.75L.6,6a.41.41,0,0,1-.35-.41V4a.41.41,0,0,1,.38-.41l4.09-.28h2.6v-.4l.25,0-.24-.08c0-.21.1-.76.12-1.06A.9.9,0,0,1,8,.94L8.12.54A.41.41,0,0,1,8.5.25a.4.4,0,0,1,.39.29L9,.95a.91.91,0,0,1,.53.75c0,.33.11,1,.13,1.11v.46h2.57l4.12.28a.41.41,0,0,1,.38.41V5.63A.41.41,0,0,1,16.4,6l-4.1.59H9.64L9.26,10.1l1.81.36a.41.41,0,0,1,.32.4V12a.41.41,0,0,1-.34.41c-.56.08-2.37.35-2.55.35Z"/><path class="cls-2" d="M8.5.5a.15.15,0,0,1,.15.11l.16.52a.68.68,0,0,1,.49.58c0,.34.11,1,.13,1.12a.16.16,0,0,1,0,0v.65h2.83l4.09.28A.16.16,0,0,1,16.5,4V5.63a.16.16,0,0,1-.13.16l-4.1.59H9.41L9,10.3l2,.41a.16.16,0,0,1,.12.16V12a.16.16,0,0,1-.13.16s-2.33.35-2.51.35h0c-.17,0-2.53-.35-2.53-.35A.16.16,0,0,1,5.85,12V10.87A.16.16,0,0,1,6,10.71l2-.41L7.59,6.39H4.73L.63,5.79A.16.16,0,0,1,.5,5.63V4A.16.16,0,0,1,.64,3.8l4.09-.28H7.57V2.87a.21.21,0,0,1,0,0c0-.15.1-.79.13-1.12a.68.68,0,0,1,.49-.58L8.36.61A.16.16,0,0,1,8.5.5m0-.5a.66.66,0,0,0-.62.46l-.1.32a1.13,1.13,0,0,0-.58.9c0,.31-.1.87-.12,1.06a.92.92,0,0,0,0,.14V3H4.75L.61,3.3A.66.66,0,0,0,0,4V5.63a.66.66,0,0,0,.56.65l4.1.59H7.14l.33,3-1.59.32a.66.66,0,0,0-.53.65V12a.66.66,0,0,0,.54.65C7,12.81,8.34,13,8.51,13s1.5-.19,2.58-.35a.66.66,0,0,0,.56-.65V10.87a.66.66,0,0,0-.52-.65L9.54,9.9l.33-3h2.48l4.1-.59A.66.66,0,0,0,17,5.63V4a.66.66,0,0,0-.61-.66L12.3,3H9.93V2.74c0-.11-.09-.74-.12-1.06a1.14,1.14,0,0,0-.57-.9L9.13.46A.65.65,0,0,0,8.5,0Z"/></g></g></svg>
