<svg xmlns="http://www.w3.org/2000/svg" viewBox="0 0 18 18" width="18px" height="18px" ><defs><style>.cls-1{fill:#ff0000;}.cls-2{fill:#000000;}</style></defs><title>jet_nonswept_live</title><g id="Layer_2" data-name="Layer 2"><g id="Bizjet_Non-Swept" data-name="Bizjet Non-Swept"><path class="cls-1" d="M9,17.09l-3.51.61v-.3c0-.65.11-1,.33-1.09L8.5,15a5.61,5.61,0,0,1-.28-1.32l-.53-.41-.1-.69H7.12l0-.21a7.19,7.19,0,0,1-.15-2.19L.24,9.05V8.84c0-1.1.51-1.15.61-1.15L7.8,7.18V2.88C7.8.64,8.89.3,8.93.28L9,.26l.07,0s1.13.36,1.13,2.6v4.3l7,.51c.09,0,.59.06.59,1.15v.21l-6.69,1.16a7.17,7.17,0,0,1-.15,2.19l0,.21h-.47l-.1.69-.53.41A5.61,5.61,0,0,1,9.5,15l2.74,1.28c.2.07.31.43.31,1.08v.3Z"/><path class="cls-2" d="M9,.53s1,.28,1,2.35V7.41l7.19.53h0s.36,0,.36.9L10.78,10a5,5,0,0,1-.1,2.35H10.2l-.12.8-.54.42a4.88,4.88,0,0,1-.35,1.59l2.95,1.38s.16.06.17.85L9,16.84l-3.31.56c0-.79.17-.85.17-.85l2.95-1.38a4.88,4.88,0,0,1-.35-1.59l-.54-.42-.12-.8H7.32A5,5,0,0,1,7.22,10L.49,8.84c0-.88.33-.9.36-.9h0L8,7.41V2.88C8,.81,9,.53,9,.53M9,0,8.87,0c-.13,0-1.31.45-1.31,2.84V6.94L.82,7.43h0c-.24,0-.82.19-.82,1.4v.43l.41.07,6.26,1.08a8.45,8.45,0,0,0,.18,2l.08.41h.47l.05.37,0,.21.16.12.36.28a5.87,5.87,0,0,0,.22,1.05L5.66,16.09c-.39.15-.45.78-.46,1.31V18l.57-.1L9,17.35l3.23.55.57.1v-.6c0-.53-.06-1.16-.49-1.32L9.79,14.9A5.87,5.87,0,0,0,10,13.85l.36-.28.16-.12,0-.21.05-.37h.47l.08-.41a8.45,8.45,0,0,0,.18-2l6.26-1.08L18,9.27V8.84c0-1.34-.71-1.41-.85-1.41l-6.71-.49V2.88C10.44.49,9.27.08,9.13,0L9,0Z"/></g></g></svg>
