<?xml version="1.0" encoding="UTF-8"?>
<svg xmlns="http://www.w3.org/2000/svg" xmlns:xlink="http://www.w3.org/1999/xlink" width="29.807692" height="31" viewBox="0 0 29.807692 31">
<path fill-rule="nonzero" fill="rgb(100%, 0%, 0%)" fill-opacity="1" d="M 14.914062 30.703125 C 14.605469 30.703125 14.035156 29.855469 13.890625 29.019531 L 9.921875 30.046875 L 9.539062 30.152344 L 9.632812 28.472656 L 9.765625 28.390625 C 11.113281 27.578125 12.960938 26.433594 13.582031 26.003906 C 13.140625 24.742188 12.972656 21.332031 13.066406 15.847656 L 9.539062 15.871094 C 6.402344 16.835938 1.429688 18.351562 1.191406 18.480469 C 1.109375 18.5 1.023438 18.5 0.941406 18.480469 C 0.644531 18.464844 0.398438 18.242188 0.359375 17.945312 C 0.300781 17.457031 0.546875 16.984375 0.976562 16.75 L 3.050781 15.667969 C 4.675781 14.820312 6.890625 13.652344 8.609375 12.769531 C 8.59375 12.5625 8.59375 12.355469 8.609375 12.148438 C 8.609375 11.328125 8.609375 10.957031 8.609375 10.789062 L 8.90625 10.636719 L 8.535156 10.636719 C 8.496094 10.269531 8.613281 9.90625 8.859375 9.636719 C 9.105469 9.363281 9.457031 9.210938 9.824219 9.214844 C 10.179688 9.1875 10.53125 9.304688 10.800781 9.539062 C 11.011719 9.84375 11.121094 10.207031 11.113281 10.574219 L 10.824219 10.730469 L 11.125 10.730469 C 11.125 10.898438 11.125 11.101562 11.125 11.421875 L 12.9375 10.421875 C 12.9375 8.65625 12.9375 2.003906 14.25 0.585938 C 14.414062 0.386719 14.664062 0.273438 14.921875 0.273438 C 15.179688 0.273438 15.429688 0.386719 15.59375 0.585938 C 16.964844 2.003906 16.941406 8.667969 16.90625 10.421875 L 18.71875 11.421875 C 18.71875 11.039062 18.71875 10.851562 18.71875 10.730469 L 19.015625 10.574219 L 18.71875 10.574219 C 18.722656 10.199219 18.847656 9.835938 19.078125 9.539062 C 19.34375 9.300781 19.695312 9.179688 20.054688 9.203125 C 20.414062 9.195312 20.761719 9.34375 21.007812 9.605469 C 21.253906 9.871094 21.375 10.226562 21.34375 10.585938 L 21.34375 10.730469 C 21.34375 10.957031 21.34375 11.304688 21.34375 12.125 C 21.355469 12.332031 21.355469 12.539062 21.34375 12.746094 C 23.429688 13.820312 26.589844 15.476562 28.101562 16.324219 L 28.972656 16.777344 C 29.425781 16.988281 29.671875 17.480469 29.570312 17.96875 C 29.527344 18.269531 29.277344 18.503906 28.972656 18.527344 L 28.84375 18.527344 C 28.507812 18.398438 23.105469 16.75 20.304688 15.90625 L 16.765625 15.90625 C 16.871094 21.390625 16.691406 24.800781 16.25 26.0625 C 16.871094 26.457031 18.71875 27.601562 20.066406 28.449219 L 20.199219 28.53125 L 20.269531 30.152344 L 19.875 30.046875 L 15.90625 29.019531 C 15.761719 29.855469 15.191406 30.703125 14.878906 30.703125 Z M 14.914062 30.703125 "/>
<path fill-rule="nonzero" fill="rgb(0%, 0%, 0%)" fill-opacity="1" d="M 14.914062 0.597656 C 16.609375 0.597656 16.691406 8.347656 16.609375 10.625 C 16.964844 10.8125 18.5625 11.707031 18.992188 11.933594 C 18.992188 11.21875 18.992188 10.921875 18.992188 10.742188 C 18.992188 10.5625 18.992188 10.636719 18.992188 10.585938 C 18.980469 10.292969 19.058594 10 19.21875 9.753906 C 19.441406 9.578125 19.726562 9.5 20.007812 9.539062 C 20.289062 9.535156 20.558594 9.648438 20.746094 9.855469 C 20.9375 10.066406 21.027344 10.34375 20.996094 10.625 C 20.996094 10.625 20.996094 10.707031 20.996094 10.777344 C 20.996094 10.851562 20.996094 11.304688 20.996094 12.171875 C 21 12.4375 20.976562 12.703125 20.925781 12.960938 C 23.703125 14.378906 28.6875 17.003906 28.746094 17.039062 C 29.449219 17.394531 29.222656 18.230469 28.878906 18.230469 L 28.792969 18.230469 C 28.351562 18.0625 20.234375 15.59375 20.234375 15.59375 L 16.441406 15.59375 C 16.441406 15.859375 16.703125 24.609375 15.871094 26.21875 C 15.871094 26.21875 18.253906 27.722656 19.910156 28.699219 L 19.984375 29.808594 L 15.679688 28.617188 C 15.660156 29.277344 15.386719 29.90625 14.914062 30.367188 C 14.445312 29.90625 14.171875 29.277344 14.152344 28.617188 L 9.847656 29.808594 L 9.90625 28.617188 C 11.554688 27.636719 13.949219 26.136719 13.949219 26.136719 C 13.117188 24.527344 13.378906 15.773438 13.378906 15.511719 L 9.539062 15.570312 C 9.539062 15.570312 1.394531 18.039062 1.023438 18.207031 L 0.894531 18.207031 C 0.511719 18.207031 0.382812 17.335938 1.0625 17.015625 C 1.742188 16.691406 6.117188 14.308594 8.894531 12.9375 C 8.84375 12.675781 8.820312 12.414062 8.824219 12.148438 C 8.824219 11.277344 8.824219 10.957031 8.824219 10.753906 C 8.824219 10.550781 8.824219 10.648438 8.824219 10.601562 C 8.800781 10.320312 8.894531 10.046875 9.085938 9.84375 C 9.277344 9.640625 9.546875 9.53125 9.824219 9.539062 C 10.105469 9.515625 10.386719 9.605469 10.601562 9.789062 C 10.761719 10.035156 10.839844 10.328125 10.824219 10.625 C 10.824219 10.625 10.824219 10.707031 10.824219 10.777344 C 10.824219 10.851562 10.824219 11.242188 10.824219 11.972656 C 11.253906 11.746094 12.863281 10.851562 13.210938 10.660156 C 13.175781 8.347656 13.222656 0.597656 14.914062 0.597656 M 14.914062 0 C 14.578125 0.00390625 14.257812 0.152344 14.035156 0.40625 C 12.648438 1.835938 12.601562 7.917969 12.625 10.277344 L 11.921875 10.648438 L 11.375 10.945312 L 11.375 10.625 C 11.390625 10.167969 11.25 9.722656 10.980469 9.359375 C 10.660156 9.058594 10.226562 8.902344 9.789062 8.929688 C 9.351562 8.921875 8.929688 9.097656 8.628906 9.417969 C 8.328125 9.734375 8.171875 10.164062 8.203125 10.601562 L 8.203125 10.730469 C 8.203125 10.921875 8.203125 11.277344 8.203125 12.089844 C 8.203125 12.246094 8.203125 12.398438 8.203125 12.542969 L 2.835938 15.34375 L 0.761719 16.429688 C 0.15625 16.726562 -0.164062 17.40625 0 18.0625 C 0.0742188 18.492188 0.4375 18.808594 0.871094 18.828125 C 1 18.824219 1.125 18.796875 1.238281 18.742188 C 1.585938 18.601562 6.425781 17.132812 9.585938 16.15625 L 12.6875 16.15625 C 12.566406 22.761719 12.890625 25.050781 13.140625 25.933594 C 12.375 26.410156 10.753906 27.421875 9.5625 28.148438 L 9.300781 28.304688 L 9.300781 28.617188 L 9.226562 29.722656 L 9.226562 30.691406 L 10.0625 30.320312 L 13.710938 29.378906 C 13.9375 30.175781 14.460938 30.988281 14.902344 30.988281 C 15.34375 30.988281 15.929688 30.175781 16.097656 29.378906 L 19.746094 30.320312 L 20.578125 30.691406 L 20.578125 29.722656 L 20.507812 28.617188 L 20.507812 28.304688 L 20.269531 28.136719 C 19.078125 27.410156 17.40625 26.386719 16.691406 25.921875 C 16.941406 25.039062 17.265625 22.75 17.144531 16.144531 L 20.246094 16.144531 C 23.488281 17.132812 28.363281 18.613281 28.675781 18.742188 C 28.773438 18.761719 28.875 18.761719 28.972656 18.742188 C 29.417969 18.71875 29.789062 18.386719 29.855469 17.945312 C 29.996094 17.320312 29.683594 16.679688 29.105469 16.40625 L 28.257812 15.964844 C 26.792969 15.191406 23.75 13.582031 21.664062 12.53125 C 21.664062 12.386719 21.664062 12.234375 21.664062 12.078125 C 21.664062 11.277344 21.664062 10.886719 21.664062 10.71875 L 21.664062 10.636719 C 21.703125 10.195312 21.558594 9.753906 21.257812 9.429688 C 20.957031 9.101562 20.535156 8.917969 20.089844 8.917969 C 19.652344 8.890625 19.21875 9.046875 18.898438 9.347656 C 18.640625 9.691406 18.503906 10.109375 18.503906 10.539062 L 18.503906 10.992188 L 17.882812 10.648438 L 17.203125 10.265625 C 17.203125 7.882812 17.203125 1.824219 15.796875 0.394531 C 15.574219 0.144531 15.253906 0 14.914062 0 Z M 14.914062 0 "/>
</svg>
