<svg xmlns="http://www.w3.org/2000/svg" viewBox="0 0 28 29" width="28px" height="29px" ><defs><style>.cls-1{fill:#ff0000;}.cls-2{fill:#000000;}</style></defs><title>heavy_2e_live</title><g id="Layer_2" data-name="Layer 2"><g id="Heavy_2_Eng" data-name="Heavy 2 Eng"><path class="cls-1" d="M9,28.35c0-.16-.17-1,.23-1.36.65-.59,2.82-2.38,3.4-2.86-.51-1.33-.59-5.15-.57-8.22L10,16,.25,19v-.34a1.78,1.78,0,0,1,.82-1.5l7.78-5.07a4.87,4.87,0,0,1-.51-3l0-.22.23,0h2.26l0,.22a8.32,8.32,0,0,1,0,1.81l1.21-.81c0-6.79.18-9.58,1.91-9.87,1.7.14,2,3,2,9.85L17.3,11a8.3,8.3,0,0,1,0-1.8l0-.22h2.51v.24a4.87,4.87,0,0,1-.51,3l7.66,5a1.77,1.77,0,0,1,.8,1.5V19L18,16l-2-.06c0,3.06-.06,6.88-.57,8.21a28.87,28.87,0,0,1,3.5,3A2,2,0,0,1,19,28.34l-.05.31L14.6,26.71c-.14,1.85-.41,1.85-.6,1.85s-.47,0-.6-1.84L9,28.66Z"/><path class="cls-2" d="M14,.5c1.43.13,1.69,3,1.69,9.73l2.06,1.39a5.43,5.43,0,0,1-.24-2.39h2s.26,2.07-.62,3c0,0,7.84,5.12,7.9,5.15a1.54,1.54,0,0,1,.68,1.28l-9.46-3-2.35-.08c0,.23.13,7.12-.62,8.54a34.46,34.46,0,0,1,3.59,3.08,1.86,1.86,0,0,1,.1,1l-4.39-2c-.07,1.16-.21,2-.38,2s-.31-.81-.38-2l-4.4,2s-.17-.84.16-1.13c.74-.67,3.54-3,3.54-3-.75-1.43-.62-8.31-.62-8.54L10,15.73l-9.46,3a1.54,1.54,0,0,1,.68-1.28c.06,0,8-5.24,8-5.24-.88-1-.62-3-.62-3h2a5.43,5.43,0,0,1-.24,2.39l1.91-1.28c0-6.74.17-9.5,1.7-9.76M14,0h-.06C12,.33,11.81,3,11.8,10l-.66.44a9.35,9.35,0,0,0,0-1.33l0-.45h-3v.49A5.4,5.4,0,0,0,8.52,12L.93,17A2.06,2.06,0,0,0,0,18.69v.68l.64-.2L10,16.23l1.77-.06c0,4.05.15,6.7.53,7.88-.73.6-2.67,2.21-3.28,2.76a1.82,1.82,0,0,0-.31,1.59l.12.6.56-.24,3.76-1.67c.14,1.43.39,1.72.82,1.72s.68-.29.82-1.73l3.75,1.67.58.25.11-.62A2.23,2.23,0,0,0,19.09,27a25.35,25.35,0,0,0-3.42-3c.37-1.19.55-3.83.52-7.87l1.77.06,9.39,2.94.64.2v-.68A2,2,0,0,0,27,17l-7.42-4.84A5.45,5.45,0,0,0,20,9.21l0-.45-.45,0H17.06l0,.45a9.35,9.35,0,0,0,0,1.33L16.18,10c0-7.21-.34-9.81-2.14-10Z"/></g></g></svg>
