<svg xmlns="http://www.w3.org/2000/svg" viewBox="0 0 28 30" width="28px" height="30px" ><defs><style>.cls-1{fill:#e6a611;}.cls-2{fill:#000000;}</style></defs><title>heavy_4e_live</title><g id="Layer_2" data-name="Layer 2"><g id="Heavy_4_Eng" data-name="Heavy 4 Eng"><path class="cls-1" d="M14,29.62c-.23,0-.52-.16-.71-1.33L8.82,29.58V28l3.56-3.52c-.41-1.51-.4-7.57-.4-9.11L8.46,16.59,1.27,20.76l-1,1.68,0-.91c0-2.28.23-2.45.3-2.52s.59-.51,3.5-3.09A10.47,10.47,0,0,1,4,13l0-.22.23,0H6.16v.23a11.63,11.63,0,0,1,0,1.26c.74-.68,1.36-1.28,1.69-1.61a9.54,9.54,0,0,1-.16-3.15l0-.22.23-.05H9.87v.23a11.49,11.49,0,0,1,0,1.31l.87-.84c.67-.66,1.06-1,1.27-1.19,0-6.24.53-8.46,2-8.46,1.23,0,2,1.42,2,8.46.21.17.59.53,1.27,1.19l.88.85a11.45,11.45,0,0,1,0-1.32V9.19h2.18v.24a9.53,9.53,0,0,1-.15,3.18c.33.32.95.93,1.69,1.61a11.5,11.5,0,0,1,0-1.27v-.23H24V13a10.49,10.49,0,0,1-.1,3L27.4,19c.09.09.28.26.32,2.54l0,.91-1-1.68L19.5,16.57,16,15.34c0,1.53.07,7.49-.39,9.11L19.18,28v1.61l-4.46-1.29C14.52,29.46,14.23,29.62,14,29.62Z"/><path class="cls-2" d="M14,.49c1.08,0,1.75,1.61,1.75,8.34.27.14,2.06,2,2.73,2.54a9,9,0,0,1-.11-1.94h1.7a9.4,9.4,0,0,1-.19,3.25c.37.37,1.26,1.24,2.3,2.17a9.25,9.25,0,0,1-.1-1.89h1.7A10.3,10.3,0,0,1,23.66,16c1.81,1.61,3.57,3.16,3.6,3.18a11.25,11.25,0,0,1,.22,2.35l-.57-1-7.28-4.22L15.76,15s.15,8-.41,9.52l3.59,3.55v1.18L14.51,28c-.11.85-.3,1.4-.51,1.4s-.4-.55-.51-1.39L9.06,29.26V28.07l3.59-3.55c-.51-1.28-.43-9.52-.43-9.52L8.37,16.36,1.1,20.58l-.57,1a11.25,11.25,0,0,1,.22-2.35S2.53,17.61,4.35,16a10.32,10.32,0,0,1-.12-3h1.7a9.29,9.29,0,0,1-.1,1.88c1-.93,1.93-1.8,2.3-2.17a9.43,9.43,0,0,1-.19-3.24h1.7a9,9,0,0,1-.11,1.93C10.21,10.8,12,9,12.25,8.83c0-6.73.62-8.34,1.75-8.34M14,0c-1.65,0-2.23,2.17-2.24,8.59-.22.19-.57.52-1.19,1.13l-.43.42c0-.4,0-.7,0-.73l0-.46H7.45v.49a10.3,10.3,0,0,0,.12,3.11c-.27.26-.67.65-1.15,1.1,0-.38,0-.67,0-.7l0-.46H3.74v.49a11.18,11.18,0,0,0,.07,2.88L.49,18.76h0l-.06.06c-.14.13-.33.31-.38,2.69l0,1.83.94-1.56.51-.84L8.58,16.8l3.16-1.12a65.92,65.92,0,0,0,.37,8.69L8.72,27.72l-.15.14V30l.65-.28,3.87-1.11c.18.88.46,1.26.9,1.26s.73-.39.91-1.27l3.86,1.12.65.28V27.87l-.15-.14-3.38-3.35a58.1,58.1,0,0,0,.36-8.69l3.16,1.11,7.13,4.14.51.84L28,23.35l0-1.83c0-2.38-.24-2.56-.38-2.69l-.06-.06h0L24.2,15.84A11.19,11.19,0,0,0,24.27,13v-.49H21.61l0,.46s0,.32,0,.7c-.48-.45-.88-.84-1.15-1.1a10.29,10.29,0,0,0,.13-3.1V8.94H17.9l0,.46s0,.33,0,.74l-.44-.43c-.62-.61-1-.94-1.19-1.13C16.23,2.25,15.63,0,14,0Z"/></g></g></svg>
