<svg xmlns="http://www.w3.org/2000/svg" viewBox="0 0 15 21" width="15px" height="21px" ><defs><style>.cls-1{fill:#ff0000;}.cls-2{fill:#000000;}</style></defs><title>hi_perf_live</title><g id="Layer_2" data-name="Layer 2"><g id="Hi_Perf" data-name="Hi Perf"><path class="cls-1" d="M3.14,20.76v-1.6l2.57-1.7V16.1H.26V12.25H1.61v1.17L5.28,9.9c.14-1.16,1-8.19,2-9.3L7.5.38l.2.22c1,1.12,1.89,8.14,2,9.3l3.67,3.52V12.25h1.35V16.1H9.29v1.35l2.57,1.7v1.6Z"/><path class="cls-2" d="M7.5.76c1,1.12,2,9.26,2,9.26l4.17,4V12.5h.84v3.36H9v1.72l2.57,1.7v1.23H3.4V19.28L6,17.58V15.86H.51V12.5h.84V14l4.17-4s1-8.13,2-9.26M7.5,0,7.11.44C6.11,1.58,5.24,8.09,5,9.79l-3.17,3V12H0v4.34H5.45v1L3.11,18.88,2.89,19v2h9.23V19l-.22-.15L9.55,17.32v-1H15V12H13.14v.82L10,9.79C9.76,8.09,8.89,1.58,7.89.44L7.5,0Z"/></g></g></svg>
