<svg xmlns="http://www.w3.org/2000/svg" viewBox="0 0 16 18" width="16px" height="18px" ><defs><style>.cls-1{fill:#e6a611;}.cls-2{fill:#000000;}</style></defs><title>helicopter_live</title><g id="Layer_2" data-name="Layer 2"><g id="Roto"><path class="cls-1" d="M8,17.75c-1.38,0-2.46-.63-2.46-1.43,0-.6.58-1.1,1.49-1.32V12.06A5.27,5.27,0,0,1,6,9.53L1.1,13.6l-.75-1L5.78,8.09c0-.25,0-.51,0-.77a12.28,12.28,0,0,1,.09-1.49L.38,1.24l.7-.89,5,4.2C6.48,3,7.17,2.1,8,2.1s1.52,1,1.91,2.57l5-4.21.75,1L10.1,6.07a12.4,12.4,0,0,1,.06,1.24c0,.22,0,.44,0,.65l5.47,4.59-.7.89L10,9.31a8.44,8.44,0,0,1-.35,1.4,3.83,3.83,0,0,1-.55,1.11L9,12v3c.91.22,1.49.72,1.49,1.32C10.46,17.12,9.38,17.75,8,17.75Z"/><path class="cls-2" d="M1.12.71,6.23,5c.33-1.57,1-2.65,1.73-2.65S9.4,3.48,9.72,5.12L14.87.82l.45.57L9.84,6a12.18,12.18,0,0,1,.08,1.35c0,.26,0,.51,0,.76l5.38,4.51-.39.5L9.82,8.84a8.75,8.75,0,0,1-.41,1.78,3.58,3.58,0,0,1-.52,1l-.18.22V15.2c.87.16,1.49.6,1.49,1.11S9.22,17.5,8,17.5,5.78,17,5.78,16.32s.62-1,1.49-1.11V12A5.26,5.26,0,0,1,6.13,9.07l-5,4.18-.45-.57L6,8.2c0-.29,0-.58,0-.89a12,12,0,0,1,.1-1.59L.73,1.21l.39-.5M1,0,.74.39.35.89,0,1.28l.38.32L5.59,5.94a12.64,12.64,0,0,0-.07,1.38c0,.21,0,.43,0,.66L.38,12.28,0,12.6.31,13l.45.57.31.39.38-.32L5.81,10a5.18,5.18,0,0,0,1,2.18V14.8c-.92.27-1.49.84-1.49,1.51C5.3,17.28,6.46,18,8,18s2.7-.72,2.7-1.68c0-.67-.57-1.24-1.49-1.51V12.07L9.29,12a4.06,4.06,0,0,0,.58-1.18,8,8,0,0,0,.28-1l4.42,3.71.38.32.31-.39.39-.5.31-.39-.38-.32L10.39,7.85c0-.17,0-.35,0-.53,0-.37,0-.75-.05-1.13l5.26-4.4L16,1.47l-.31-.39L15.25.5,14.94.11l-.38.32L10,4.23C9.57,2.73,8.83,1.85,8,1.85s-1.57.83-2,2.27L1.42.32,1,0Z"/></g></g></svg>
