<svg xmlns="http://www.w3.org/2000/svg" viewBox="0 0 9 13" width="9px" height="13px" ><defs><style>.cls-1{fill:#e6a611;}.cls-2{fill:#000000;}</style></defs><title>balloon_live</title><g id="Layer_2" data-name="Layer 2"><g id="Balloon"><path class="cls-1" d="M3.56,12.75a.49.49,0,0,1-.46-.34L2.63,11a.51.51,0,0,1,.07-.44l.1-.1-2-3.68a.48.48,0,0,1-.05-.17,4.39,4.39,0,0,1-.48-2A4.29,4.29,0,0,1,4.5.25,4.29,4.29,0,0,1,8.75,4.58a4.39,4.39,0,0,1-.48,2,.45.45,0,0,1-.05.17l-2,3.68a.44.44,0,0,1,.1.1.51.51,0,0,1,.07.45L5.9,12.41a.49.49,0,0,1-.46.34Zm1.6-2.43L6.1,8.59A4.22,4.22,0,0,1,5,8.88v1.44ZM4,10.32V8.88A4.22,4.22,0,0,1,2.9,8.59l.94,1.73Z"/><path class="cls-2" d="M4.5.51a4,4,0,0,1,4,4.07A4.1,4.1,0,0,1,8,6.5a.24.24,0,0,1,0,.11l-2.16,4h.07a.23.23,0,0,1,.19.1.24.24,0,0,1,0,.22l-.47,1.44a.24.24,0,0,1-.22.16H3.56a.24.24,0,0,1-.22-.16l-.47-1.44a.24.24,0,0,1,0-.22.23.23,0,0,1,.19-.1h.07L1,6.62A.24.24,0,0,1,1,6.5,4.1,4.1,0,0,1,.5,4.58,4,4,0,0,1,4.5.51m.24,10.06H5.3L6.73,8a3.93,3.93,0,0,1-2,.68v1.93m-1,0h.57V8.64a3.93,3.93,0,0,1-2-.68L3.7,10.57M4.5,0A4.55,4.55,0,0,0,0,4.58,4.65,4.65,0,0,0,.49,6.66a.72.72,0,0,0,.07.21l1.92,3.52a.76.76,0,0,0-.09.66l.47,1.44a.74.74,0,0,0,.7.51H5.44a.74.74,0,0,0,.7-.51l.47-1.44a.76.76,0,0,0-.09-.66L8.44,6.86a.72.72,0,0,0,.07-.21A4.65,4.65,0,0,0,9,4.58,4.55,4.55,0,0,0,4.5,0Zm.74,9.1L5.57,9l-.34.62V9.1Zm-1.47.55L3.43,9l.34.07v.55Z"/></g></g></svg>
