<svg xmlns="http://www.w3.org/2000/svg" viewBox="0 0 6 15" width="6px" height="15px" ><defs><style>.cls-1{fill:#5a5a5a;}.cls-2{fill:#fff;}</style></defs><title>service_dark</title><g id="Layer_2" data-name="Layer 2"><g id="Service"><path class="cls-1" d="M1.77,0a3.32,3.32,0,0,0-.63.07L1,.11.86.16h0L.7.23.59.3l0,0L.49.38l0,.06a.15.15,0,0,0,0,0h0v0h0V.9l0,0,0,0h0l0,.07V4c0,.13.06.16.1.23v.3H.09c0,1.32,0,3.38,0,4.8l0,.44C.07,9.82,0,9.88,0,10v2.82c0,.09-.05.14.07.18v1.9a50.76,50.76,0,0,0,5.78,0V13.06C6,13,6,12.93,6,12.84V10c0-.15-.05-.2-.11-.22V9.37c0-1.41,0-3.51,0-4.8H5.55v-.3c0-.08.11-.1.09-.23v-3L5.6,1h0l0,0,0,0V.51h0v0h0a.15.15,0,0,0,0,0,.16.16,0,0,0,0-.06L5.41.32l0,0L5.26.23,5.12.17h0L5,.11l-.16,0A3.45,3.45,0,0,0,4,0H1.77Z"/><path class="cls-2" d="M.77,2.77A4.31,4.31,0,0,1,3,2.33a4.31,4.31,0,0,1,2.26.44l-.38.92A7.51,7.51,0,0,0,3,3.41a7.9,7.9,0,0,0-1.91.27Z"/><path class="cls-2" d="M4.85,8a1.67,1.67,0,0,0-.65-1.3A.12.12,0,0,0,4,6.74v.95a.12.12,0,0,1,0,.09l-.9.65a.12.12,0,0,1-.13,0L2,7.77a.12.12,0,0,1,0-.09V6.73a.11.11,0,0,0-.18-.08A1.72,1.72,0,0,0,1.15,8,1.66,1.66,0,0,0,2,9.4a.19.19,0,0,1,.1.17l0,1.54a.1.1,0,0,0,.11.1H3.78c.07,0,.12,0,.11-.1V9.57A.22.22,0,0,1,4,9.4,1.7,1.7,0,0,0,4.85,8Z"/></g></g></svg>
