<svg xmlns="http://www.w3.org/2000/svg" viewBox="0 0 12 12" width="12px" height="12px" ><defs><style>.cls-1{fill:#5a5a5a;}.cls-2{fill:#fff;}</style></defs><title>fixed_dark</title><g id="Layer_2" data-name="Layer 2"><g id="Fixed"><polygon class="cls-1" points="0 0 0 0.43 0 12 12 12 12 0 0 0"/><path class="cls-2" d="M3.24,2.73,1.36.86h9.29L8.77,2.73A4.29,4.29,0,0,0,3.24,2.73Z"/><circle class="cls-2" cx="6" cy="6" r="3.58" transform="translate(-2.49 6) rotate(-45)"/><path class="cls-2" d="M2.73,3.23a4.29,4.29,0,0,0,0,5.54L.86,10.62V1.37Z"/><path class="cls-2" d="M3.24,9.28a4.29,4.29,0,0,0,5.54,0l1.87,1.87H1.35Z"/><path class="cls-2" d="M9.28,8.77a4.29,4.29,0,0,0,0-5.54l1.86-1.86v9.26Z"/><circle class="cls-1" cx="6" cy="6" r="2" transform="translate(-2.49 6) rotate(-45)"/></g></g></svg>
