<?xml version="1.0" encoding="UTF-8" standalone="no"?>
<svg
   xmlns:dc="http://purl.org/dc/elements/1.1/"
   xmlns:cc="http://creativecommons.org/ns#"
   xmlns:rdf="http://www.w3.org/1999/02/22-rdf-syntax-ns#"
   xmlns:svg="http://www.w3.org/2000/svg"
   xmlns="http://www.w3.org/2000/svg"
   xmlns:sodipodi="http://sodipodi.sourceforge.net/DTD/sodipodi-0.dtd"
   xmlns:inkscape="http://www.inkscape.org/namespaces/inkscape"
   width="32px"
   height="32px"
   viewBox="0 0 32 32"
   version="1.1"
   id="svg29"
   sodipodi:docname="inav-radar.svg"
   inkscape:version="1.0 (4035a4fb49, 2020-05-01)">
  <metadata
     id="metadata35">
    <rdf:RDF>
      <cc:Work
         rdf:about="">
        <dc:format>image/svg+xml</dc:format>
        <dc:type
           rdf:resource="http://purl.org/dc/dcmitype/StillImage" />
      </cc:Work>
    </rdf:RDF>
  </metadata>
  <defs
     id="defs33" />
  <sodipodi:namedview
     inkscape:document-rotation="0"
     pagecolor="#ffffff"
     bordercolor="#666666"
     borderopacity="1"
     objecttolerance="10"
     gridtolerance="10"
     guidetolerance="10"
     inkscape:pageopacity="0"
     inkscape:pageshadow="2"
     inkscape:window-width="1840"
     inkscape:window-height="940"
     id="namedview31"
     showgrid="false"
     inkscape:zoom="24.050914"
     inkscape:cx="6.2914294"
     inkscape:cy="16.045438"
     inkscape:window-x="56"
     inkscape:window-y="50"
     inkscape:window-maximized="0"
     inkscape:current-layer="surface1" />
  <g
     id="surface1"
     style="fill:#e6a611;fill-opacity:1">
    <path
       style="stroke:#000000;fill-rule:nonzero;fill:#e6a611;fill-opacity:1;stroke-opacity:1;stroke-width:0.4;stroke-miterlimit:4;stroke-dasharray:none"
       d="M 7.347656 11.316406 C 7.347656 13.34375 5.703125 14.992188 3.675781 14.992188 C 1.644531 14.992188 0 13.34375 0 11.316406 C 0 9.285156 1.644531 7.640625 3.675781 7.640625 C 5.703125 7.640625 7.347656 9.285156 7.347656 11.316406 Z M 7.347656 11.316406 "
       id="path2" />
    <path
       style="stroke:#000000;fill-rule:nonzero;fill:#e6a611;fill-opacity:1;stroke-opacity:1;stroke-width:0.4;stroke-miterlimit:4;stroke-dasharray:none"
       d="M 6.023438 11.28125 C 6.023438 12.527344 5.015625 13.535156 3.773438 13.535156 C 2.53125 13.535156 1.523438 12.527344 1.523438 11.28125 C 1.523438 10.039062 2.53125 9.03125 3.773438 9.03125 C 5.015625 9.03125 6.023438 10.039062 6.023438 11.28125 Z M 6.023438 11.28125 "
       id="path4" />
    <path
       style="stroke:#000000;fill-rule:nonzero;fill:#e6a611;fill-opacity:1;stroke-opacity:1;stroke-width:0.4;stroke-miterlimit:4;stroke-dasharray:none"
       d="M 4.898438 11.347656 C 4.898438 12.007812 4.367188 12.539062 3.707031 12.539062 C 3.050781 12.539062 2.515625 12.007812 2.515625 11.347656 C 2.515625 10.691406 3.050781 10.15625 3.707031 10.15625 C 4.367188 10.15625 4.898438 10.691406 4.898438 11.347656 Z M 4.898438 11.347656 "
       id="path6" />
    <path
       style="fill-rule:nonzero;fill:#e6a611;fill-opacity:1;stroke-width:6.04194925;stroke-linecap:butt;stroke-linejoin:miter;stroke:#000000;stroke-opacity:1;stroke-miterlimit:4;stroke-dasharray:none"
       d="M 423.939547 73.520644 C 420.930373 66.853258 413.141922 61.483947 406.474536 61.483947 L 169.988843 61.483947 C 163.321457 61.483947 160.312282 66.853258 163.262453 73.520644 L 221.085801 202.502112 C 224.035972 209.110495 231.883427 214.479806 238.550813 214.479806 L 475.036506 214.479806 C 481.703892 214.479806 484.654063 209.110495 481.703892 202.502112 Z M 423.939547 73.520644 "
       transform="matrix(0.0662038,0,0,0.0662038,0,6.152186)"
       id="path8" />
    <path
       style="fill-rule:nonzero;fill:#e6a611;fill-opacity:1;stroke-width:6.04194925;stroke-linecap:butt;stroke-linejoin:miter;stroke:#000000;stroke-opacity:1;stroke-miterlimit:4;stroke-dasharray:none"
       d="M 408.539655 87.976481 C 407.300584 85.498338 402.993334 83.492221 398.863095 83.492221 L 253.065653 83.492221 C 248.994417 83.492221 246.634281 85.498338 247.814349 87.976481 L 271.474719 136.005262 C 272.713791 138.483406 277.02104 140.489522 281.151279 140.489522 L 426.889718 140.489522 C 431.019957 140.489522 433.380094 138.483406 432.141022 136.005262 Z M 408.539655 87.976481 "
       transform="matrix(0.0662038,0,0,0.0662038,0,6.152186)"
       id="path10" />
    <path
       style="stroke:#000000;fill-rule:nonzero;fill:#e6a611;fill-opacity:1;stroke-opacity:1;stroke-width:0.4;stroke-miterlimit:4;stroke-dasharray:none"
       d="M 15.921875 6.914062 C 15.921875 7.335938 15.582031 7.675781 15.160156 7.675781 L 6.421875 7.675781 C 6 7.675781 5.660156 7.335938 5.660156 6.914062 C 5.660156 6.492188 6 6.152344 6.421875 6.152344 L 15.160156 6.152344 C 15.582031 6.152344 15.921875 6.492188 15.921875 6.914062 Z M 15.921875 6.914062 "
       id="path12" />
    <path
       style="stroke:#000000;fill-rule:nonzero;fill:#e6a611;fill-opacity:1;stroke-opacity:1;stroke-width:0.4;stroke-miterlimit:4;stroke-dasharray:none"
       d="M 21.117188 6.945312 C 21.117188 7.367188 21.460938 7.707031 21.878906 7.707031 L 30.621094 7.707031 C 31.039062 7.707031 31.378906 7.367188 31.378906 6.945312 C 31.378906 6.527344 31.039062 6.183594 30.621094 6.183594 L 21.878906 6.183594 C 21.460938 6.183594 21.117188 6.527344 21.117188 6.945312 Z M 21.117188 6.945312 "
       id="path14" />
    <path
       style="stroke:#000000;fill-rule:nonzero;fill:#e6a611;fill-opacity:1;stroke-opacity:1;stroke-width:0.4;stroke-miterlimit:4;stroke-dasharray:none"
       d="M 15.292969 6.582031 L 21.582031 6.582031 L 21.582031 7.179688 L 15.292969 7.179688 Z M 15.292969 6.582031 "
       id="path16" />
    <path
       style="stroke:#000000;fill-rule:nonzero;fill:#e6a611;fill-opacity:1;stroke-opacity:1;stroke-width:0.4;stroke-miterlimit:4;stroke-dasharray:none"
       d="M 17.808594 6.980469 L 19.066406 6.980469 L 19.066406 15.453125 L 17.808594 15.453125 Z M 17.808594 6.980469 "
       id="path18" />
    <path
       style="stroke:#000000;fill-rule:nonzero;fill:#e6a611;fill-opacity:1;stroke-opacity:1;stroke-width:0.4;stroke-miterlimit:4;stroke-dasharray:none"
       d="M 21.648438 11.28125 L 22.839844 11.28125 L 22.839844 15.785156 L 21.648438 15.785156 Z M 21.648438 11.28125 "
       id="path20" />
    <path
       style="stroke:#000000;fill-rule:nonzero;fill:#e6a611;fill-opacity:1;stroke-opacity:1;stroke-width:0.4;stroke-miterlimit:4;stroke-dasharray:none"
       d="M 25.421875 11.152344 L 26.613281 11.152344 L 26.613281 15.984375 L 25.421875 15.984375 Z M 25.421875 11.152344 "
       id="path22" />
    <path
       style="fill-rule:nonzero;fill:#e6a611;fill-opacity:1;stroke-width:6.04194925;stroke-linecap:butt;stroke-linejoin:miter;stroke:#000000;stroke-opacity:1;stroke-miterlimit:4;stroke-dasharray:none"
       d="M 265.574377 166.805045 C 264.040289 174.888513 258.19895 179.549783 252.593626 177.24865 C 188.515916 150.81512 124.025181 125.443651 59.298434 100.485205 C 53.693109 98.302079 49.503866 94.584864 49.975894 92.165724 C 52.100017 81.250092 53.162078 75.821777 55.286201 64.965149 C 55.758229 62.546009 61.009533 60.657899 67.027881 60.716903 C 136.356895 61.778964 205.68591 62.368998 275.014924 61.896971 C 281.092276 61.837968 284.691484 68.328343 283.157396 76.411811 C 277.316057 106.562557 271.415716 136.6543 265.574377 166.805045 Z M 265.574377 166.805045 "
       transform="matrix(0.0662038,0,0,0.0662038,0,6.152186)"
       id="path24" />
    <path
       style="stroke:#000000;fill-rule:nonzero;fill:#e6a611;fill-opacity:1;stroke-opacity:1;stroke-width:0.4;stroke-miterlimit:4;stroke-dasharray:none"
       d="M 31.578125 24.457031 C 31.578125 25.226562 30.957031 25.847656 30.1875 25.847656 L 14.101562 25.847656 C 13.332031 25.847656 12.710938 25.226562 12.710938 24.457031 C 12.710938 23.691406 13.332031 23.066406 14.101562 23.066406 L 30.1875 23.066406 C 30.957031 23.066406 31.578125 23.691406 31.578125 24.457031 Z M 31.578125 24.457031 "
       id="path26" />
  </g>
</svg>
