<?xml version="1.0" encoding="UTF-8"?>
<svg xmlns="http://www.w3.org/2000/svg" xmlns:xlink="http://www.w3.org/1999/xlink" width="24" height="24" viewBox="0 0 24 24">
<path fill-rule="nonzero" fill="rgb(90.196078%, 65.098039%, 6.666667%)" fill-opacity="1" d="M 7.410156 23.664062 C 6.113281 23.664062 5.535156 23.011719 5.453125 22.449219 C 5.351562 21.710938 5.839844 21.027344 6.5625 20.878906 C 6.917969 20.765625 8.289062 20.273438 10.28125 19.46875 L 10.28125 15.039062 L 1.808594 15.039062 C 0.847656 15.039062 0.394531 14.539062 0.394531 14.105469 C 0.34375 13.546875 0.703125 13.03125 1.242188 12.890625 C 1.609375 12.707031 6.777344 9.882812 10.28125 7.949219 L 10.28125 4.238281 C 10.28125 2.667969 10.898438 0.40625 12.015625 0.40625 C 13.128906 0.40625 13.789062 2.597656 13.789062 4.238281 L 13.789062 7.949219 C 17.25 9.882812 22.40625 12.707031 22.785156 12.890625 C 23.339844 13.023438 23.703125 13.542969 23.648438 14.105469 C 23.578125 14.539062 23.136719 15.050781 22.164062 15.050781 L 13.789062 15.050781 L 13.789062 19.550781 L 16.0625 20.386719 L 17.480469 20.890625 C 18.1875 21.066406 18.671875 21.730469 18.609375 22.460938 C 18.507812 23.011719 17.945312 23.675781 16.644531 23.675781 Z M 7.410156 23.664062 "/>
<path fill-rule="nonzero" fill="rgb(0%, 0%, 0%)" fill-opacity="1" d="M 12.054688 0.679688 C 12.835938 0.679688 13.46875 2.597656 13.46875 4.164062 L 13.46875 8.148438 C 13.46875 8.148438 22.148438 13.015625 22.6875 13.214844 C 23.703125 13.566406 23.550781 14.710938 22.175781 14.710938 L 13.453125 14.710938 L 13.453125 19.761719 C 15.488281 20.5 16.984375 21.078125 17.347656 21.179688 C 18.765625 21.683594 18.546875 23.292969 16.617188 23.292969 L 7.410156 23.292969 C 5.464844 23.292969 5.265625 21.683594 6.679688 21.179688 C 7.046875 21.066406 8.554688 20.511719 10.601562 19.761719 L 10.601562 14.695312 L 1.824219 14.695312 C 0.40625 14.695312 0.40625 13.550781 1.3125 13.199219 C 1.878906 13.015625 10.617188 8.132812 10.617188 8.132812 L 10.617188 4.238281 C 10.617188 2.667969 11.234375 0.75 12.027344 0.75 M 12.027344 0.0703125 C 10.601562 0 9.882812 2.484375 9.882812 4.238281 L 9.882812 7.75 C 6.625 9.585938 1.566406 12.378906 1.085938 12.5625 C 0.378906 12.726562 -0.0898438 13.398438 0 14.117188 C 0.203125 14.921875 0.976562 15.441406 1.789062 15.332031 L 9.882812 15.332031 L 9.882812 19.257812 C 8.046875 19.949219 6.734375 20.414062 6.421875 20.511719 C 5.523438 20.714844 4.917969 21.558594 5.011719 22.476562 C 5.125 23.164062 5.804688 23.957031 7.3125 23.957031 L 16.503906 23.957031 C 18.015625 23.957031 18.679688 23.152344 18.804688 22.476562 C 18.90625 21.585938 18.34375 20.761719 17.480469 20.527344 L 16.0625 20.019531 L 14.117188 19.296875 L 14.117188 15.375 L 22.164062 15.375 C 23.011719 15.496094 23.808594 14.953125 24 14.117188 C 24.109375 13.386719 23.632812 12.699219 22.914062 12.535156 C 22.449219 12.378906 17.421875 9.585938 14.117188 7.75 L 14.117188 4.238281 C 14.117188 2.554688 13.453125 0 12.042969 0 Z M 12.027344 0.0703125 "/>
</svg>
