<?xml version="1.0" encoding="UTF-8"?>
<svg xmlns="http://www.w3.org/2000/svg" xmlns:xlink="http://www.w3.org/1999/xlink" width="22.1" height="22.1" viewBox="0 0 22.1 22.1">
<path id="mwpbg" fill-rule="nonzero" fill="rgb(255,255,255)" fill-opacity="1" d="M 6.824219 21.792969 C 5.628906 21.792969 5.097656 21.191406 5.019531 20.671875 C 4.929688 19.992188 5.378906 19.363281 6.042969 19.222656 C 6.375 19.121094 7.632812 18.664062 9.464844 17.925781 L 9.464844 13.847656 L 1.667969 13.847656 C 0.78125 13.847656 0.359375 13.386719 0.359375 12.988281 C 0.3125 12.476562 0.648438 12 1.140625 11.871094 C 1.476562 11.699219 6.242188 9.101562 9.464844 7.320312 L 9.464844 3.902344 C 9.464844 2.457031 10.03125 0.375 11.0625 0.375 C 12.089844 0.375 12.699219 2.390625 12.699219 3.902344 L 12.699219 7.320312 C 15.886719 9.101562 20.632812 11.699219 20.980469 11.871094 C 21.492188 11.992188 21.832031 12.472656 21.773438 12.988281 C 21.710938 13.386719 21.308594 13.859375 20.40625 13.859375 L 12.699219 13.859375 L 12.699219 18.003906 L 14.792969 18.773438 L 16.09375 19.242188 C 16.75 19.398438 17.191406 20.011719 17.136719 20.683594 C 17.042969 21.191406 16.523438 21.800781 15.328125 21.800781 Z M 6.824219 21.792969 "/>
<path id="mwpfg" fill-rule="nonzero" fill="rgb(0, 0, 0)" fill-opacity="1" d="M 11.101562 0.625 C 11.816406 0.625 12.398438 2.390625 12.398438 3.832031 L 12.398438 7.5 C 12.398438 7.5 20.390625 11.988281 20.890625 12.167969 C 21.832031 12.492188 21.683594 13.542969 20.421875 13.542969 L 12.386719 13.542969 L 12.386719 18.199219 C 14.261719 18.875 15.636719 19.410156 15.972656 19.503906 C 17.277344 19.96875 17.082031 21.449219 15.300781 21.449219 L 6.824219 21.449219 C 5.035156 21.449219 4.847656 19.96875 6.148438 19.503906 C 6.488281 19.398438 7.875 18.890625 9.765625 18.199219 L 9.765625 13.535156 L 1.679688 13.535156 C 0.375 13.535156 0.375 12.476562 1.210938 12.15625 C 1.730469 11.988281 9.773438 7.492188 9.773438 7.492188 L 9.773438 3.902344 C 9.773438 2.457031 10.347656 0.691406 11.078125 0.691406 M 11.078125 0.0664062 C 9.765625 0 9.101562 2.289062 9.101562 3.902344 L 9.101562 7.136719 C 6.097656 8.824219 1.4375 11.398438 1 11.570312 C 0.351562 11.71875 -0.0820312 12.335938 0 13 C 0.183594 13.738281 0.898438 14.21875 1.648438 14.121094 L 9.101562 14.121094 L 9.101562 17.734375 C 7.414062 18.371094 6.203125 18.800781 5.914062 18.890625 C 5.085938 19.074219 4.527344 19.851562 4.613281 20.699219 C 4.714844 21.332031 5.34375 22.058594 6.734375 22.058594 L 15.199219 22.058594 C 16.585938 22.058594 17.199219 21.320312 17.316406 20.699219 C 17.40625 19.875 16.890625 19.117188 16.09375 18.902344 L 14.792969 18.4375 L 13 17.773438 L 13 14.160156 L 20.40625 14.160156 C 21.191406 14.269531 21.921875 13.769531 22.097656 13 C 22.195312 12.328125 21.761719 11.695312 21.097656 11.539062 C 20.671875 11.398438 16.046875 8.824219 13 7.136719 L 13 3.902344 C 13 2.351562 12.386719 0 11.089844 0 Z M 11.078125 0.0664062 "/>
</svg>
