<?xml version="1.0" encoding="UTF-8"?>
<svg xmlns="http://www.w3.org/2000/svg" xmlns:xlink="http://www.w3.org/1999/xlink" width="22" height="22" viewBox="0 0 22 22">
<path fill-rule="nonzero" fill="rgb(100%, 0%, 0%)" fill-opacity="1" d="M 6.792969 21.691406 C 5.601562 21.691406 5.074219 21.09375 4.996094 20.578125 C 4.90625 19.902344 5.355469 19.277344 6.015625 19.136719 C 6.34375 19.035156 7.597656 18.582031 9.421875 17.84375 L 9.421875 13.785156 L 1.660156 13.785156 C 0.777344 13.785156 0.359375 13.328125 0.359375 12.929688 C 0.3125 12.417969 0.644531 11.945312 1.136719 11.816406 C 1.472656 11.648438 6.214844 9.058594 9.421875 7.289062 L 9.421875 3.882812 C 9.421875 2.445312 9.988281 0.375 11.011719 0.375 C 12.035156 0.375 12.640625 2.378906 12.640625 3.882812 L 12.640625 7.289062 C 15.8125 9.058594 20.539062 11.648438 20.886719 11.816406 C 21.394531 11.9375 21.730469 12.414062 21.675781 12.929688 C 21.613281 13.328125 21.210938 13.796875 20.316406 13.796875 L 12.640625 13.796875 L 12.640625 17.921875 L 14.726562 18.6875 L 16.023438 19.152344 C 16.671875 19.308594 17.113281 19.921875 17.058594 20.589844 C 16.964844 21.09375 16.449219 21.703125 15.257812 21.703125 Z M 6.792969 21.691406 "/>
<path fill-rule="nonzero" fill="rgb(0%, 0%, 0%)" fill-opacity="1" d="M 11.050781 0.621094 C 11.765625 0.621094 12.34375 2.378906 12.34375 3.816406 L 12.34375 7.46875 C 12.34375 7.46875 20.300781 11.933594 20.796875 12.113281 C 21.730469 12.433594 21.585938 13.484375 20.328125 13.484375 L 12.332031 13.484375 L 12.332031 18.117188 C 14.195312 18.789062 15.566406 19.324219 15.902344 19.414062 C 17.199219 19.878906 17.003906 21.351562 15.230469 21.351562 L 6.792969 21.351562 C 5.011719 21.351562 4.824219 19.878906 6.121094 19.414062 C 6.457031 19.308594 7.839844 18.804688 9.71875 18.117188 L 9.71875 13.472656 L 1.671875 13.472656 C 0.375 13.472656 0.375 12.421875 1.203125 12.101562 C 1.722656 11.933594 9.730469 7.457031 9.730469 7.457031 L 9.730469 3.882812 C 9.730469 2.445312 10.300781 0.6875 11.027344 0.6875 M 11.027344 0.0664062 C 9.71875 0 9.058594 2.277344 9.058594 3.882812 L 9.058594 7.101562 C 6.070312 8.785156 1.433594 11.347656 0.996094 11.515625 C 0.347656 11.667969 -0.0820312 12.28125 0 12.941406 C 0.183594 13.675781 0.894531 14.152344 1.640625 14.054688 L 9.058594 14.054688 L 9.058594 17.652344 C 7.378906 18.289062 6.175781 18.714844 5.886719 18.804688 C 5.0625 18.988281 4.507812 19.761719 4.59375 20.605469 C 4.695312 21.234375 5.320312 21.960938 6.703125 21.960938 L 15.128906 21.960938 C 16.511719 21.960938 17.121094 21.222656 17.238281 20.605469 C 17.328125 19.785156 16.8125 19.03125 16.023438 18.816406 L 14.726562 18.351562 L 12.941406 17.691406 L 12.941406 14.09375 L 20.316406 14.09375 C 21.09375 14.207031 21.824219 13.707031 22 12.941406 C 22.097656 12.273438 21.664062 11.640625 21.003906 11.488281 C 20.578125 11.347656 15.972656 8.785156 12.941406 7.101562 L 12.941406 3.882812 C 12.941406 2.339844 12.332031 0 11.039062 0 Z M 11.027344 0.0664062 "/>
</svg>
