<?xml version="1.0" encoding="UTF-8"?>
<svg xmlns="http://www.w3.org/2000/svg" xmlns:xlink="http://www.w3.org/1999/xlink" width="20.923077" height="16" viewBox="0 0 20.923077 16">
<path fill-rule="nonzero" fill="rgb(90.196078%, 65.098039%, 6.666667%)" fill-opacity="1" d="M 10.476562 15.691406 C 10.265625 15.691406 8.011719 15.359375 7.324219 15.261719 C 7.078125 15.226562 6.894531 15.015625 6.890625 14.769531 L 6.890625 13.378906 C 6.890625 13.140625 7.054688 12.9375 7.289062 12.886719 L 9.511719 12.429688 L 9.058594 8.171875 L 5.847656 8.171875 L 0.738281 7.382812 C 0.488281 7.347656 0.304688 7.132812 0.308594 6.878906 L 0.308594 4.925781 C 0.308594 4.660156 0.511719 4.4375 0.773438 4.417969 L 5.808594 4.074219 L 9.007812 4.074219 L 9.007812 3.582031 L 9.316406 3.582031 L 9.019531 3.484375 C 9.019531 3.226562 9.144531 2.546875 9.171875 2.179688 C 9.171875 1.734375 9.4375 1.328125 9.847656 1.160156 L 9.996094 0.667969 C 10.058594 0.457031 10.246094 0.3125 10.460938 0.308594 C 10.683594 0.304688 10.878906 0.449219 10.941406 0.667969 L 11.074219 1.171875 C 11.445312 1.335938 11.695312 1.6875 11.730469 2.089844 C 11.730469 2.5 11.867188 3.324219 11.886719 3.457031 L 11.886719 4.023438 L 15.054688 4.023438 L 20.125 4.371094 C 20.386719 4.386719 20.589844 4.609375 20.589844 4.875 L 20.589844 6.929688 C 20.570312 7.152344 20.410156 7.339844 20.183594 7.382812 L 15.136719 8.113281 L 11.867188 8.113281 L 11.394531 12.429688 L 13.625 12.875 C 13.855469 12.925781 14.015625 13.128906 14.015625 13.367188 L 14.015625 14.769531 C 14.019531 15.015625 13.847656 15.234375 13.601562 15.273438 C 12.914062 15.371094 10.683594 15.703125 10.460938 15.703125 Z M 10.476562 15.691406 "/>
<path fill-rule="nonzero" fill="rgb(0%, 0%, 0%)" fill-opacity="1" d="M 10.460938 0.617188 C 10.546875 0.613281 10.625 0.667969 10.644531 0.75 L 10.839844 1.390625 C 11.171875 1.484375 11.410156 1.765625 11.445312 2.105469 C 11.445312 2.523438 11.582031 3.332031 11.605469 3.484375 L 11.605469 4.285156 L 15.085938 4.285156 L 20.125 4.628906 C 20.195312 4.621094 20.265625 4.660156 20.304688 4.722656 C 20.339844 4.785156 20.347656 4.859375 20.308594 4.925781 L 20.308594 6.929688 C 20.308594 7.023438 20.242188 7.109375 20.144531 7.125 L 15.101562 7.855469 L 11.582031 7.855469 L 11.074219 12.675781 L 13.539062 13.183594 C 13.628906 13.203125 13.6875 13.289062 13.6875 13.378906 L 13.6875 14.769531 C 13.6875 14.867188 13.621094 14.949219 13.523438 14.964844 C 13.523438 14.964844 10.660156 15.394531 10.4375 15.394531 C 10.230469 15.394531 7.324219 14.964844 7.324219 14.964844 C 7.242188 14.933594 7.195312 14.855469 7.199219 14.769531 L 7.199219 13.378906 C 7.199219 13.273438 7.277344 13.1875 7.382812 13.183594 L 9.847656 12.675781 L 9.339844 7.867188 L 5.820312 7.867188 L 0.773438 7.125 C 0.679688 7.109375 0.613281 7.023438 0.617188 6.929688 L 0.617188 4.925781 C 0.601562 4.867188 0.613281 4.808594 0.644531 4.757812 C 0.679688 4.710938 0.730469 4.683594 0.789062 4.675781 L 5.820312 4.332031 L 9.316406 4.332031 L 9.316406 3.535156 C 9.316406 3.347656 9.441406 2.558594 9.476562 2.152344 C 9.511719 1.816406 9.753906 1.535156 10.078125 1.441406 L 10.289062 0.75 C 10.3125 0.675781 10.382812 0.621094 10.460938 0.617188 M 10.460938 0 C 10.113281 0.00390625 9.804688 0.234375 9.699219 0.566406 L 9.574219 0.957031 C 9.167969 1.1875 8.898438 1.601562 8.863281 2.066406 C 8.863281 2.449219 8.738281 3.136719 8.710938 3.371094 C 8.707031 3.429688 8.707031 3.488281 8.710938 3.546875 L 8.710938 3.691406 L 5.847656 3.691406 L 0.75 4.0625 C 0.308594 4.097656 -0.0273438 4.480469 0 4.925781 L 0 6.929688 C 0 7.328125 0.296875 7.667969 0.6875 7.730469 L 5.734375 8.453125 L 8.789062 8.453125 L 9.195312 12.144531 L 7.238281 12.542969 C 6.855469 12.617188 6.582031 12.953125 6.582031 13.339844 L 6.582031 14.769531 C 6.582031 15.164062 6.863281 15.5 7.25 15.570312 C 8.617188 15.765625 10.265625 16 10.476562 16 C 10.683594 16 12.320312 15.765625 13.648438 15.570312 C 14.046875 15.507812 14.335938 15.171875 14.335938 14.769531 L 14.335938 13.378906 C 14.339844 12.996094 14.074219 12.660156 13.699219 12.578125 L 11.742188 12.183594 L 12.144531 8.492188 L 15.199219 8.492188 L 20.246094 7.765625 C 20.648438 7.699219 20.941406 7.335938 20.925781 6.929688 L 20.925781 4.925781 C 20.925781 4.496094 20.597656 4.140625 20.171875 4.113281 L 15.136719 3.691406 L 12.222656 3.691406 L 12.222656 3.371094 C 12.222656 3.238281 12.113281 2.460938 12.074219 2.066406 C 12.039062 1.605469 11.773438 1.191406 11.371094 0.957031 L 11.238281 0.566406 C 11.132812 0.226562 10.816406 -0.00390625 10.460938 0 Z M 10.460938 0 "/>
</svg>
