<?xml version="1.0" encoding="UTF-8"?>
<svg xmlns="http://www.w3.org/2000/svg" xmlns:xlink="http://www.w3.org/1999/xlink" width="19.615385" height="15" viewBox="0 0 19.615385 15">
<path fill-rule="nonzero" fill="rgb(90.196078%, 65.098039%, 6.666667%)" fill-opacity="1" d="M 9.820312 14.710938 C 9.625 14.710938 7.511719 14.398438 6.867188 14.308594 C 6.636719 14.273438 6.464844 14.078125 6.460938 13.847656 L 6.460938 12.542969 C 6.460938 12.320312 6.613281 12.128906 6.832031 12.082031 L 8.917969 11.652344 L 8.492188 7.660156 L 5.480469 7.660156 L 0.691406 6.921875 C 0.457031 6.886719 0.285156 6.6875 0.289062 6.449219 L 0.289062 4.617188 C 0.289062 4.367188 0.480469 4.160156 0.726562 4.140625 L 5.445312 3.820312 L 8.445312 3.820312 L 8.445312 3.359375 L 8.734375 3.359375 L 8.457031 3.265625 C 8.457031 3.023438 8.574219 2.386719 8.597656 2.042969 C 8.597656 1.625 8.847656 1.246094 9.230469 1.085938 L 9.371094 0.625 C 9.429688 0.429688 9.605469 0.292969 9.808594 0.289062 C 10.015625 0.285156 10.199219 0.421875 10.257812 0.625 L 10.382812 1.097656 C 10.730469 1.253906 10.964844 1.582031 10.996094 1.960938 C 10.996094 2.34375 11.125 3.117188 11.144531 3.242188 L 11.144531 3.773438 L 14.113281 3.773438 L 18.867188 4.097656 C 19.113281 4.113281 19.304688 4.320312 19.304688 4.570312 L 19.304688 6.496094 C 19.285156 6.707031 19.132812 6.882812 18.921875 6.921875 L 14.191406 7.605469 L 11.125 7.605469 L 10.683594 11.652344 L 12.773438 12.070312 C 12.988281 12.117188 13.140625 12.308594 13.140625 12.53125 L 13.140625 13.847656 C 13.144531 14.078125 12.980469 14.28125 12.75 14.320312 C 12.105469 14.410156 10.015625 14.722656 9.808594 14.722656 Z M 9.820312 14.710938 "/>
<path fill-rule="nonzero" fill="rgb(0%, 0%, 0%)" fill-opacity="1" d="M 9.808594 0.578125 C 9.886719 0.574219 9.960938 0.625 9.980469 0.703125 L 10.164062 1.304688 C 10.472656 1.390625 10.695312 1.65625 10.730469 1.972656 C 10.730469 2.367188 10.859375 3.125 10.878906 3.265625 L 10.878906 4.015625 L 14.144531 4.015625 L 18.867188 4.339844 C 18.933594 4.332031 19 4.367188 19.035156 4.425781 C 19.070312 4.484375 19.074219 4.554688 19.039062 4.617188 L 19.039062 6.496094 C 19.039062 6.585938 18.976562 6.664062 18.886719 6.679688 L 14.15625 7.363281 L 10.859375 7.363281 L 10.382812 11.882812 L 12.691406 12.359375 C 12.777344 12.378906 12.832031 12.457031 12.832031 12.542969 L 12.832031 13.847656 C 12.832031 13.9375 12.769531 14.015625 12.679688 14.03125 C 12.679688 14.03125 9.992188 14.433594 9.785156 14.433594 C 9.589844 14.433594 6.867188 14.03125 6.867188 14.03125 C 6.789062 14 6.746094 13.925781 6.75 13.847656 L 6.75 12.542969 C 6.75 12.445312 6.824219 12.363281 6.921875 12.359375 L 9.230469 11.882812 L 8.757812 7.375 L 5.457031 7.375 L 0.726562 6.679688 C 0.636719 6.664062 0.574219 6.585938 0.578125 6.496094 L 0.578125 4.617188 C 0.5625 4.5625 0.574219 4.507812 0.605469 4.460938 C 0.636719 4.417969 0.683594 4.390625 0.738281 4.382812 L 5.457031 4.0625 L 8.734375 4.0625 L 8.734375 3.3125 C 8.734375 3.136719 8.851562 2.398438 8.882812 2.019531 C 8.917969 1.703125 9.144531 1.4375 9.449219 1.351562 L 9.644531 0.703125 C 9.667969 0.632812 9.734375 0.582031 9.808594 0.578125 M 9.808594 0 C 9.480469 0.00390625 9.191406 0.21875 9.09375 0.53125 L 8.976562 0.898438 C 8.59375 1.113281 8.34375 1.5 8.308594 1.9375 C 8.308594 2.296875 8.191406 2.941406 8.167969 3.160156 C 8.164062 3.214844 8.164062 3.269531 8.167969 3.324219 L 8.167969 3.460938 L 5.480469 3.460938 L 0.703125 3.808594 C 0.289062 3.839844 -0.0273438 4.199219 0 4.617188 L 0 6.496094 C 0 6.871094 0.277344 7.1875 0.644531 7.246094 L 5.375 7.925781 L 8.238281 7.925781 L 8.621094 11.386719 L 6.785156 11.757812 C 6.425781 11.828125 6.171875 12.144531 6.171875 12.507812 L 6.171875 13.847656 C 6.171875 14.214844 6.433594 14.53125 6.796875 14.597656 C 8.078125 14.78125 9.625 15 9.820312 15 C 10.015625 15 11.550781 14.78125 12.796875 14.597656 C 13.167969 14.539062 13.441406 14.222656 13.441406 13.847656 L 13.441406 12.542969 C 13.445312 12.183594 13.195312 11.867188 12.84375 11.792969 L 11.007812 11.421875 L 11.386719 7.960938 L 14.25 7.960938 L 18.980469 7.28125 C 19.359375 7.21875 19.632812 6.878906 19.617188 6.496094 L 19.617188 4.617188 C 19.617188 4.214844 19.308594 3.882812 18.910156 3.855469 L 14.191406 3.460938 L 11.457031 3.460938 L 11.457031 3.160156 C 11.457031 3.035156 11.355469 2.308594 11.320312 1.9375 C 11.285156 1.503906 11.039062 1.117188 10.660156 0.898438 L 10.535156 0.53125 C 10.4375 0.210938 10.140625 -0.00390625 9.808594 0 Z M 9.808594 0 "/>
</svg>
