<?xml version="1.0" encoding="UTF-8"?>
<svg xmlns="http://www.w3.org/2000/svg" xmlns:xlink="http://www.w3.org/1999/xlink" width="23.538462" height="18" viewBox="0 0 23.538462 18">
<path fill-rule="nonzero" fill="rgb(90.196078%, 65.098039%, 6.666667%)" fill-opacity="1" d="M 11.785156 17.652344 C 11.550781 17.652344 9.015625 17.277344 8.242188 17.171875 C 7.964844 17.128906 7.757812 16.894531 7.753906 16.617188 L 7.753906 15.050781 C 7.753906 14.785156 7.9375 14.554688 8.199219 14.5 L 10.703125 13.984375 L 10.191406 9.191406 L 6.578125 9.191406 L 0.828125 8.304688 C 0.546875 8.265625 0.34375 8.023438 0.347656 7.738281 L 0.347656 5.539062 C 0.347656 5.242188 0.578125 4.992188 0.871094 4.96875 L 6.535156 4.585938 L 10.132812 4.585938 L 10.132812 4.03125 L 10.480469 4.03125 L 10.148438 3.917969 C 10.148438 3.628906 10.289062 2.863281 10.316406 2.453125 C 10.316406 1.949219 10.617188 1.496094 11.078125 1.304688 L 11.246094 0.75 C 11.316406 0.515625 11.527344 0.351562 11.769531 0.347656 C 12.019531 0.34375 12.238281 0.507812 12.308594 0.75 L 12.460938 1.316406 C 12.875 1.503906 13.15625 1.898438 13.195312 2.351562 C 13.195312 2.8125 13.351562 3.742188 13.375 3.890625 L 13.375 4.527344 L 16.9375 4.527344 L 22.640625 4.917969 C 22.9375 4.9375 23.164062 5.183594 23.164062 5.484375 L 23.164062 7.796875 C 23.140625 8.046875 22.960938 8.257812 22.707031 8.304688 L 17.03125 9.125 L 13.351562 9.125 L 12.820312 13.984375 L 15.328125 14.484375 C 15.585938 14.539062 15.769531 14.769531 15.769531 15.039062 L 15.769531 16.617188 C 15.773438 16.894531 15.578125 17.136719 15.300781 17.183594 C 14.527344 17.292969 12.019531 17.667969 11.769531 17.667969 Z M 11.785156 17.652344 "/>
<path fill-rule="nonzero" fill="rgb(0%, 0%, 0%)" fill-opacity="1" d="M 11.769531 0.695312 C 11.863281 0.6875 11.953125 0.75 11.976562 0.84375 L 12.195312 1.566406 C 12.566406 1.667969 12.835938 1.988281 12.875 2.367188 C 12.875 2.839844 13.03125 3.75 13.054688 3.917969 L 13.054688 4.820312 L 16.972656 4.820312 L 22.640625 5.207031 C 22.71875 5.199219 22.800781 5.242188 22.84375 5.3125 C 22.882812 5.382812 22.890625 5.464844 22.847656 5.539062 L 22.847656 7.796875 C 22.847656 7.902344 22.773438 7.996094 22.664062 8.015625 L 16.988281 8.835938 L 13.03125 8.835938 L 12.460938 14.257812 L 15.230469 14.832031 C 15.332031 14.855469 15.398438 14.949219 15.398438 15.050781 L 15.398438 16.617188 C 15.398438 16.726562 15.324219 16.820312 15.214844 16.835938 C 15.214844 16.835938 11.992188 17.320312 11.742188 17.320312 C 11.507812 17.320312 8.242188 16.835938 8.242188 16.835938 C 8.148438 16.800781 8.09375 16.710938 8.101562 16.617188 L 8.101562 15.050781 C 8.101562 14.933594 8.1875 14.835938 8.304688 14.832031 L 11.078125 14.257812 L 10.507812 8.851562 L 6.546875 8.851562 L 0.871094 8.015625 C 0.765625 7.996094 0.6875 7.902344 0.695312 7.796875 L 0.695312 5.539062 C 0.675781 5.476562 0.6875 5.410156 0.726562 5.351562 C 0.765625 5.300781 0.820312 5.269531 0.886719 5.257812 L 6.546875 4.875 L 10.480469 4.875 L 10.480469 3.976562 C 10.480469 3.765625 10.621094 2.878906 10.660156 2.421875 C 10.703125 2.042969 10.972656 1.726562 11.339844 1.621094 L 11.574219 0.84375 C 11.601562 0.757812 11.679688 0.699219 11.769531 0.695312 M 11.769531 0 C 11.375 0.00390625 11.03125 0.261719 10.914062 0.636719 L 10.773438 1.078125 C 10.3125 1.335938 10.011719 1.800781 9.96875 2.324219 C 9.96875 2.757812 9.828125 3.53125 9.800781 3.792969 C 9.796875 3.859375 9.796875 3.921875 9.800781 3.988281 L 9.800781 4.152344 L 6.578125 4.152344 L 0.84375 4.570312 C 0.347656 4.609375 -0.03125 5.039062 0 5.539062 L 0 7.796875 C 0 8.246094 0.332031 8.625 0.773438 8.695312 L 6.449219 9.511719 L 9.886719 9.511719 L 10.34375 13.664062 L 8.140625 14.109375 C 7.710938 14.195312 7.40625 14.574219 7.40625 15.007812 L 7.40625 16.617188 C 7.40625 17.058594 7.71875 17.4375 8.15625 17.515625 C 9.695312 17.738281 11.550781 18 11.785156 18 C 12.019531 18 13.859375 17.738281 15.355469 17.515625 C 15.800781 17.445312 16.128906 17.066406 16.128906 16.617188 L 16.128906 15.050781 C 16.132812 14.621094 15.835938 14.242188 15.414062 14.152344 L 13.210938 13.707031 L 13.664062 9.554688 L 17.101562 9.554688 L 22.777344 8.738281 C 23.230469 8.664062 23.558594 8.253906 23.539062 7.796875 L 23.539062 5.539062 C 23.539062 5.058594 23.171875 4.660156 22.691406 4.625 L 17.03125 4.152344 L 13.75 4.152344 L 13.75 3.792969 C 13.75 3.640625 13.625 2.769531 13.585938 2.324219 C 13.542969 1.804688 13.246094 1.339844 12.792969 1.078125 L 12.640625 0.636719 C 12.523438 0.253906 12.167969 -0.00390625 11.769531 0 Z M 11.769531 0 "/>
</svg>
