<?xml version="1.0" encoding="UTF-8"?>
<svg xmlns="http://www.w3.org/2000/svg" xmlns:xlink="http://www.w3.org/1999/xlink" width="21.11923" height="16.15" viewBox="0 0 21.11923 16.15">
<path id="mwpbg" fill-rule="nonzero" fill="rgb(255,255,255)" fill-opacity="1" d="M 10.574219 15.835938 C 10.363281 15.835938 8.085938 15.503906 7.394531 15.402344 C 7.144531 15.371094 6.960938 15.15625 6.957031 14.90625 L 6.957031 13.503906 C 6.957031 13.265625 7.121094 13.058594 7.355469 13.007812 L 9.601562 12.542969 L 9.144531 8.246094 L 5.902344 8.246094 L 0.746094 7.453125 C 0.492188 7.414062 0.308594 7.199219 0.3125 6.941406 L 0.3125 4.972656 C 0.3125 4.707031 0.515625 4.476562 0.78125 4.457031 L 5.863281 4.113281 L 9.089844 4.113281 L 9.089844 3.613281 L 9.402344 3.613281 L 9.105469 3.515625 C 9.105469 3.257812 9.230469 2.570312 9.257812 2.203125 C 9.257812 1.75 9.523438 1.339844 9.9375 1.167969 L 10.089844 0.671875 C 10.152344 0.460938 10.34375 0.316406 10.558594 0.3125 C 10.785156 0.308594 10.980469 0.453125 11.042969 0.671875 L 11.179688 1.183594 C 11.550781 1.347656 11.804688 1.703125 11.839844 2.109375 C 11.839844 2.523438 11.980469 3.355469 12 3.488281 L 12 4.0625 L 15.195312 4.0625 L 20.3125 4.414062 C 20.578125 4.429688 20.78125 4.652344 20.78125 4.921875 L 20.78125 6.996094 C 20.761719 7.21875 20.601562 7.410156 20.371094 7.453125 L 15.277344 8.1875 L 11.980469 8.1875 L 11.5 12.542969 L 13.753906 12.996094 C 13.984375 13.046875 14.148438 13.25 14.148438 13.492188 L 14.148438 14.90625 C 14.152344 15.15625 13.976562 15.378906 13.726562 15.417969 C 13.035156 15.515625 10.785156 15.851562 10.558594 15.851562 Z M 10.574219 15.835938 "/>
<path id="mwpfg" fill-rule="nonzero" fill="rgb(0%, 0%, 0%)" fill-opacity="1" d="M 10.558594 0.625 C 10.644531 0.617188 10.722656 0.671875 10.746094 0.753906 L 10.941406 1.402344 C 11.277344 1.5 11.515625 1.78125 11.550781 2.125 C 11.550781 2.546875 11.691406 3.363281 11.714844 3.515625 L 11.714844 4.324219 L 15.226562 4.324219 L 20.3125 4.671875 C 20.382812 4.664062 20.457031 4.707031 20.496094 4.769531 C 20.527344 4.828125 20.539062 4.90625 20.5 4.972656 L 20.5 6.996094 C 20.5 7.089844 20.429688 7.175781 20.332031 7.191406 L 15.242188 7.929688 L 11.691406 7.929688 L 11.179688 12.792969 L 13.664062 13.308594 C 13.757812 13.328125 13.816406 13.414062 13.816406 13.503906 L 13.816406 14.90625 C 13.816406 15.007812 13.746094 15.089844 13.648438 15.105469 C 13.648438 15.105469 10.761719 15.539062 10.535156 15.539062 C 10.328125 15.539062 7.394531 15.105469 7.394531 15.105469 C 7.3125 15.074219 7.261719 14.996094 7.269531 14.90625 L 7.269531 13.503906 C 7.269531 13.398438 7.347656 13.308594 7.453125 13.308594 L 9.9375 12.792969 L 9.425781 7.941406 L 5.875 7.941406 L 0.78125 7.191406 C 0.6875 7.175781 0.617188 7.089844 0.625 6.996094 L 0.625 4.972656 C 0.609375 4.914062 0.617188 4.851562 0.652344 4.804688 C 0.6875 4.753906 0.734375 4.726562 0.796875 4.71875 L 5.875 4.375 L 9.402344 4.375 L 9.402344 3.566406 C 9.402344 3.378906 9.527344 2.582031 9.566406 2.171875 C 9.601562 1.832031 9.84375 1.550781 10.171875 1.457031 L 10.386719 0.753906 C 10.410156 0.683594 10.480469 0.628906 10.558594 0.625 M 10.558594 0 C 10.207031 0.00390625 9.898438 0.238281 9.792969 0.570312 L 9.664062 0.964844 C 9.253906 1.199219 8.984375 1.617188 8.945312 2.085938 C 8.945312 2.472656 8.820312 3.167969 8.792969 3.402344 C 8.789062 3.464844 8.789062 3.523438 8.792969 3.582031 L 8.792969 3.726562 L 5.902344 3.726562 L 0.753906 4.101562 C 0.3125 4.136719 -0.0273438 4.519531 0 4.972656 L 0 6.996094 C 0 7.394531 0.300781 7.742188 0.691406 7.804688 L 5.789062 8.53125 L 8.871094 8.53125 L 9.28125 12.257812 L 7.308594 12.660156 C 6.917969 12.734375 6.644531 13.074219 6.644531 13.464844 L 6.644531 14.90625 C 6.644531 15.304688 6.925781 15.648438 7.316406 15.714844 C 8.699219 15.914062 10.363281 16.148438 10.574219 16.148438 C 10.785156 16.148438 12.4375 15.914062 13.777344 15.714844 C 14.179688 15.652344 14.46875 15.316406 14.46875 14.90625 L 14.46875 13.503906 C 14.472656 13.117188 14.207031 12.777344 13.828125 12.695312 L 11.851562 12.296875 L 12.257812 8.574219 L 15.339844 8.574219 L 20.4375 7.839844 C 20.839844 7.769531 21.136719 7.40625 21.121094 6.996094 L 21.121094 4.972656 C 21.121094 4.539062 20.792969 4.179688 20.363281 4.152344 L 15.277344 3.726562 L 12.339844 3.726562 L 12.339844 3.402344 C 12.339844 3.269531 12.226562 2.484375 12.1875 2.085938 C 12.152344 1.621094 11.882812 1.203125 11.476562 0.964844 L 11.34375 0.570312 C 11.238281 0.230469 10.917969 -0.00390625 10.558594 0 Z M 10.558594 0 "/>
</svg>
