<?xml version="1.0" encoding="UTF-8"?>
<svg xmlns="http://www.w3.org/2000/svg" xmlns:xlink="http://www.w3.org/1999/xlink" width="25" height="25" viewBox="0 0 25 25">
<path fill-rule="nonzero" fill="rgb(90.196078%, 65.098039%, 6.666667%)" fill-opacity="1" d="M 12.5 23.734375 L 7.625 24.582031 L 7.625 24.167969 C 7.625 23.265625 7.78125 22.777344 8.082031 22.652344 L 11.808594 20.832031 C 11.601562 20.238281 11.472656 19.625 11.417969 19 L 10.683594 18.429688 L 10.542969 17.472656 L 9.890625 17.472656 L 9.890625 17.183594 C 9.664062 16.183594 9.59375 15.15625 9.683594 14.136719 L 0.335938 12.570312 L 0.335938 12.277344 C 0.335938 10.75 1.042969 10.683594 1.179688 10.683594 L 10.835938 9.96875 L 10.835938 4 C 10.835938 0.886719 12.347656 0.417969 12.402344 0.390625 L 12.5 0.363281 L 12.597656 0.363281 C 12.597656 0.363281 14.164062 0.859375 14.164062 3.972656 L 14.164062 9.941406 L 23.886719 10.652344 C 24.015625 10.652344 24.707031 10.738281 24.707031 12.25 L 24.707031 12.542969 L 15.414062 14.152344 C 15.503906 15.167969 15.433594 16.195312 15.207031 17.191406 L 15.207031 17.484375 L 14.554688 17.484375 L 14.414062 18.441406 L 13.679688 19.015625 C 13.59375 19.636719 13.429688 20.246094 13.191406 20.832031 L 17 22.609375 C 17.277344 22.707031 17.429688 23.210938 17.429688 24.113281 L 17.429688 24.527344 Z M 12.5 23.734375 "/>
<path fill-rule="nonzero" fill="rgb(0%, 0%, 0%)" fill-opacity="1" d="M 12.5 0.734375 C 12.5 0.734375 13.890625 1.125 13.890625 4 L 13.890625 10.292969 L 23.875 11.027344 C 23.875 11.027344 24.375 11.027344 24.375 12.277344 L 14.972656 13.890625 C 15.1875 14.972656 15.136719 16.089844 14.835938 17.15625 L 14.164062 17.15625 L 14.003906 18.261719 L 13.25 18.847656 C 13.210938 19.605469 13.046875 20.351562 12.765625 21.054688 L 16.863281 22.972656 C 16.863281 22.972656 17.085938 23.054688 17.097656 24.152344 L 12.5 23.390625 L 7.902344 24.167969 C 7.902344 23.070312 8.136719 22.988281 8.136719 22.988281 L 12.234375 21.070312 C 11.953125 20.363281 11.789062 19.621094 11.75 18.863281 L 10.996094 18.277344 L 10.835938 17.167969 L 10.164062 17.167969 C 9.859375 16.097656 9.8125 14.980469 10.027344 13.890625 L 0.679688 12.277344 C 0.679688 11.054688 1.140625 11.027344 1.179688 11.027344 L 11.109375 10.292969 L 11.109375 4 C 11.109375 1.125 12.5 0.734375 12.5 0.734375 M 12.5 0 L 12.320312 0 C 12.136719 0 10.5 0.625 10.5 3.945312 L 10.5 9.640625 L 1.140625 10.320312 C 0.804688 10.320312 0 10.585938 0 12.261719 L 0 12.863281 L 0.566406 12.960938 L 9.261719 14.457031 C 9.234375 15.390625 9.320312 16.324219 9.515625 17.234375 L 9.625 17.804688 L 10.277344 17.804688 L 10.347656 18.316406 L 10.347656 18.609375 L 10.570312 18.777344 L 11.066406 19.167969 C 11.128906 19.660156 11.230469 20.148438 11.375 20.625 L 7.859375 22.347656 C 7.320312 22.554688 7.234375 23.433594 7.222656 24.167969 L 7.222656 25 L 8.011719 24.859375 L 12.5 24.097656 L 16.988281 24.859375 L 17.777344 25 L 17.777344 24.167969 C 17.777344 23.433594 17.695312 22.554688 17.097656 22.335938 L 13.597656 20.695312 C 13.738281 20.21875 13.835938 19.730469 13.890625 19.238281 L 14.386719 18.847656 L 14.609375 18.679688 L 14.609375 18.386719 L 14.679688 17.875 L 15.332031 17.875 L 15.445312 17.304688 C 15.640625 16.390625 15.722656 15.460938 15.695312 14.527344 L 24.390625 13.027344 L 25 12.875 L 25 12.277344 C 25 10.417969 24.015625 10.320312 23.820312 10.320312 L 14.5 9.640625 L 14.5 4 C 14.5 0.679688 12.875 0.113281 12.679688 0 Z M 12.5 0 "/>
</svg>
