<?xml version="1.0" encoding="UTF-8"?>
<svg xmlns="http://www.w3.org/2000/svg" xmlns:xlink="http://www.w3.org/1999/xlink" width="23" height="23" viewBox="0 0 23 23">
<path fill-rule="nonzero" fill="rgb(90.196078%, 65.098039%, 6.666667%)" fill-opacity="1" d="M 11.5 21.835938 L 7.015625 22.613281 L 7.015625 22.234375 C 7.015625 21.402344 7.15625 20.953125 7.4375 20.839844 L 10.863281 19.167969 C 10.675781 18.617188 10.554688 18.054688 10.503906 17.480469 L 9.828125 16.953125 L 9.699219 16.074219 L 9.101562 16.074219 L 9.101562 15.808594 C 8.890625 14.886719 8.824219 13.941406 8.90625 13.007812 L 0.308594 11.5625 L 0.308594 11.292969 C 0.308594 9.890625 0.957031 9.828125 1.085938 9.828125 L 9.96875 9.171875 L 9.96875 3.679688 C 9.96875 0.816406 11.359375 0.386719 11.410156 0.359375 L 11.5 0.332031 L 11.589844 0.332031 C 11.589844 0.332031 13.03125 0.792969 13.03125 3.652344 L 13.03125 9.148438 L 21.976562 9.800781 C 22.09375 9.800781 22.730469 9.878906 22.730469 11.269531 L 22.730469 11.539062 L 14.183594 13.019531 C 14.265625 13.957031 14.199219 14.902344 13.988281 15.816406 L 13.988281 16.085938 L 13.390625 16.085938 L 13.261719 16.96875 L 12.585938 17.492188 C 12.503906 18.066406 12.355469 18.628906 12.136719 19.167969 L 15.640625 20.800781 C 15.894531 20.890625 16.035156 21.351562 16.035156 22.183594 L 16.035156 22.5625 Z M 11.5 21.835938 "/>
<path fill-rule="nonzero" fill="rgb(0%, 0%, 0%)" fill-opacity="1" d="M 11.5 0.675781 C 11.5 0.675781 12.777344 1.035156 12.777344 3.679688 L 12.777344 9.46875 L 21.964844 10.144531 C 21.964844 10.144531 22.425781 10.144531 22.425781 11.292969 L 13.777344 12.777344 C 13.972656 13.777344 13.925781 14.804688 13.648438 15.78125 L 13.03125 15.78125 L 12.882812 16.800781 L 12.1875 17.339844 C 12.15625 18.039062 12.003906 18.722656 11.742188 19.371094 L 15.511719 21.132812 C 15.511719 21.132812 15.71875 21.210938 15.730469 22.222656 L 11.5 21.519531 L 7.269531 22.234375 C 7.269531 21.222656 7.488281 21.148438 7.488281 21.148438 L 11.257812 19.386719 C 10.996094 18.734375 10.84375 18.050781 10.8125 17.351562 L 10.117188 16.8125 L 9.96875 15.796875 L 9.351562 15.796875 C 9.070312 14.8125 9.027344 13.78125 9.222656 12.777344 L 0.625 11.292969 C 0.625 10.167969 1.046875 10.144531 1.085938 10.144531 L 10.222656 9.46875 L 10.222656 3.679688 C 10.222656 1.035156 11.5 0.675781 11.5 0.675781 M 11.5 0 L 11.332031 0 C 11.167969 0 9.660156 0.574219 9.660156 3.628906 L 9.660156 8.867188 L 1.046875 9.492188 C 0.738281 9.492188 0 9.738281 0 11.28125 L 0 11.832031 L 0.523438 11.921875 L 8.523438 13.300781 C 8.496094 14.160156 8.574219 15.015625 8.753906 15.855469 L 8.855469 16.382812 L 9.453125 16.382812 L 9.519531 16.851562 L 9.519531 17.121094 L 9.722656 17.277344 L 10.183594 17.636719 C 10.238281 18.089844 10.332031 18.539062 10.464844 18.972656 L 7.230469 20.5625 C 6.734375 20.75 6.65625 21.558594 6.644531 22.234375 L 6.644531 23 L 7.371094 22.871094 L 11.5 22.171875 L 15.628906 22.871094 L 16.355469 23 L 16.355469 22.234375 C 16.355469 21.558594 16.277344 20.75 15.730469 20.546875 L 12.507812 19.039062 C 12.636719 18.601562 12.726562 18.152344 12.777344 17.699219 L 13.238281 17.339844 L 13.441406 17.1875 L 13.441406 16.917969 L 13.507812 16.445312 L 14.105469 16.445312 L 14.207031 15.917969 C 14.386719 15.082031 14.464844 14.226562 14.4375 13.367188 L 22.441406 11.984375 L 23 11.847656 L 23 11.292969 C 23 9.582031 22.09375 9.492188 21.914062 9.492188 L 13.339844 8.867188 L 13.339844 3.679688 C 13.339844 0.625 11.847656 0.101562 11.667969 0 Z M 11.5 0 "/>
</svg>
