<?xml version="1.0" encoding="UTF-8"?>
<svg xmlns="http://www.w3.org/2000/svg" xmlns:xlink="http://www.w3.org/1999/xlink" width="23.799999" height="23.799999" viewBox="0 0 23.799999 23.799999">
<path id="mwpbg" fill-rule="nonzero" fill="rgb(255,255,255)" fill-opacity="1" d="M 11.902344 22.59375 L 7.257812 23.402344 L 7.257812 23.007812 C 7.257812 22.148438 7.402344 21.683594 7.695312 21.566406 L 11.242188 19.832031 C 11.046875 19.265625 10.921875 18.679688 10.871094 18.089844 L 10.167969 17.542969 L 10.039062 16.632812 L 9.417969 16.632812 L 9.417969 16.355469 C 9.199219 15.402344 9.132812 14.425781 9.214844 13.460938 L 0.320312 11.964844 L 0.320312 11.683594 C 0.320312 10.234375 0.992188 10.167969 1.125 10.167969 L 10.3125 9.492188 L 10.3125 3.804688 C 10.3125 0.84375 11.753906 0.402344 11.804688 0.371094 L 11.902344 0.34375 L 11.992188 0.34375 C 11.992188 0.34375 13.484375 0.820312 13.484375 3.78125 L 13.484375 9.464844 L 22.742188 10.140625 C 22.863281 10.140625 23.523438 10.222656 23.523438 11.660156 L 23.523438 11.941406 L 14.675781 13.472656 C 14.761719 14.445312 14.691406 15.421875 14.472656 16.367188 L 14.472656 16.648438 L 13.859375 16.648438 L 13.722656 17.558594 L 13.023438 18.101562 C 12.9375 18.695312 12.785156 19.277344 12.558594 19.832031 L 16.183594 21.523438 C 16.449219 21.617188 16.59375 22.09375 16.59375 22.957031 L 16.59375 23.347656 Z M 11.902344 22.59375 "/>
<path id="mwpfg" fill-rule="nonzero" fill="rgb(0%, 0%, 0%)" fill-opacity="1" d="M 11.902344 0.699219 C 11.902344 0.699219 13.222656 1.070312 13.222656 3.804688 L 13.222656 9.796875 L 22.730469 10.496094 C 22.730469 10.496094 23.207031 10.496094 23.207031 11.683594 L 14.253906 13.222656 C 14.457031 14.253906 14.410156 15.320312 14.125 16.332031 L 13.484375 16.332031 L 13.332031 17.382812 L 12.613281 17.945312 C 12.578125 18.667969 12.421875 19.375 12.148438 20.046875 L 16.050781 21.867188 C 16.050781 21.867188 16.265625 21.949219 16.277344 22.996094 L 11.902344 22.269531 L 7.523438 23.007812 C 7.523438 21.960938 7.746094 21.882812 7.746094 21.882812 L 11.648438 20.0625 C 11.378906 19.386719 11.21875 18.679688 11.191406 17.953125 L 10.46875 17.398438 L 10.3125 16.347656 L 9.675781 16.347656 C 9.382812 15.328125 9.339844 14.261719 9.542969 13.222656 L 0.648438 11.683594 C 0.648438 10.523438 1.085938 10.496094 1.125 10.496094 L 10.578125 9.796875 L 10.578125 3.804688 C 10.578125 1.070312 11.902344 0.699219 11.902344 0.699219 M 11.902344 0 L 11.726562 0 C 11.558594 0 9.996094 0.59375 9.996094 3.753906 L 9.996094 9.175781 L 1.085938 9.824219 C 0.765625 9.824219 0 10.078125 0 11.675781 L 0 12.246094 L 0.542969 12.335938 L 8.820312 13.761719 C 8.792969 14.652344 8.871094 15.539062 9.058594 16.40625 L 9.164062 16.953125 L 9.78125 16.953125 L 9.847656 17.4375 L 9.847656 17.71875 L 10.0625 17.878906 L 10.535156 18.25 C 10.59375 18.71875 10.691406 19.183594 10.828125 19.632812 L 7.480469 21.277344 C 6.96875 21.46875 6.886719 22.308594 6.875 23.007812 L 6.875 23.800781 L 7.625 23.667969 L 11.902344 22.941406 L 16.171875 23.667969 L 16.921875 23.800781 L 16.921875 23.007812 C 16.921875 22.308594 16.84375 21.46875 16.277344 21.261719 L 12.941406 19.703125 C 13.078125 19.246094 13.171875 18.78125 13.222656 18.3125 L 13.699219 17.945312 L 13.910156 17.785156 L 13.910156 17.503906 L 13.980469 17.015625 L 14.59375 17.015625 L 14.699219 16.472656 C 14.886719 15.605469 14.96875 14.71875 14.9375 13.832031 L 23.222656 12.402344 L 23.800781 12.261719 L 23.800781 11.683594 C 23.800781 9.917969 22.863281 9.824219 22.675781 9.824219 L 13.804688 9.175781 L 13.804688 3.804688 C 13.804688 0.648438 12.261719 0.105469 12.074219 0 Z M 11.902344 0 "/>
</svg>
