<?xml version="1.0" encoding="UTF-8"?>
<svg xmlns="http://www.w3.org/2000/svg" xmlns:xlink="http://www.w3.org/1999/xlink" width="21" height="21" viewBox="0 0 21 21">
<path fill-rule="nonzero" fill="rgb(90.196078%, 65.098039%, 6.666667%)" fill-opacity="1" d="M 10.5 19.9375 L 6.40625 20.648438 L 6.40625 20.300781 C 6.40625 19.542969 6.535156 19.132812 6.789062 19.027344 L 9.917969 17.5 C 9.746094 17 9.636719 16.484375 9.589844 15.960938 L 8.972656 15.480469 L 8.855469 14.675781 L 8.308594 14.675781 L 8.308594 14.433594 C 8.117188 13.59375 8.058594 12.730469 8.132812 11.875 L 0.28125 10.558594 L 0.28125 10.3125 C 0.28125 9.03125 0.875 8.972656 0.992188 8.972656 L 9.101562 8.375 L 9.101562 3.359375 C 9.101562 0.746094 10.371094 0.351562 10.417969 0.328125 L 10.5 0.304688 L 10.582031 0.304688 C 10.582031 0.304688 11.898438 0.722656 11.898438 3.335938 L 11.898438 8.351562 L 20.066406 8.949219 C 20.171875 8.949219 20.753906 9.019531 20.753906 10.289062 L 20.753906 10.535156 L 12.949219 11.886719 C 13.023438 12.742188 12.964844 13.605469 12.773438 14.441406 L 12.773438 14.6875 L 12.226562 14.6875 L 12.109375 15.492188 L 11.492188 15.972656 C 11.417969 16.496094 11.28125 17.007812 11.082031 17.5 L 14.28125 18.992188 C 14.511719 19.074219 14.640625 19.496094 14.640625 20.253906 L 14.640625 20.601562 Z M 10.5 19.9375 "/>
<path fill-rule="nonzero" fill="rgb(0%, 0%, 0%)" fill-opacity="1" d="M 10.5 0.617188 C 10.5 0.617188 11.667969 0.945312 11.667969 3.359375 L 11.667969 8.644531 L 20.054688 9.261719 C 20.054688 9.261719 20.476562 9.261719 20.476562 10.3125 L 12.578125 11.667969 C 12.757812 12.578125 12.714844 13.515625 12.460938 14.410156 L 11.898438 14.410156 L 11.761719 15.339844 L 11.128906 15.832031 C 11.097656 16.46875 10.960938 17.09375 10.722656 17.6875 L 14.164062 19.296875 C 14.164062 19.296875 14.351562 19.367188 14.363281 20.289062 L 10.5 19.648438 L 6.636719 20.300781 C 6.636719 19.378906 6.835938 19.308594 6.835938 19.308594 L 10.277344 17.699219 C 10.039062 17.105469 9.902344 16.480469 9.871094 15.84375 L 9.238281 15.351562 L 9.101562 14.421875 L 8.539062 14.421875 C 8.28125 13.523438 8.242188 12.582031 8.421875 11.667969 L 0.570312 10.3125 C 0.570312 9.285156 0.957031 9.261719 0.992188 9.261719 L 9.332031 8.644531 L 9.332031 3.359375 C 9.332031 0.945312 10.5 0.617188 10.5 0.617188 M 10.5 0 L 10.347656 0 C 10.195312 0 8.820312 0.523438 8.820312 3.3125 L 8.820312 8.097656 L 0.957031 8.667969 C 0.675781 8.667969 0 8.890625 0 10.300781 L 0 10.804688 L 0.476562 10.886719 L 7.78125 12.144531 C 7.757812 12.929688 7.828125 13.710938 7.992188 14.476562 L 8.085938 14.957031 L 8.632812 14.957031 L 8.691406 15.386719 L 8.691406 15.632812 L 8.878906 15.773438 L 9.296875 16.101562 C 9.347656 16.515625 9.433594 16.925781 9.554688 17.324219 L 6.601562 18.773438 C 6.148438 18.945312 6.078125 19.683594 6.066406 20.300781 L 6.066406 21 L 6.730469 20.882812 L 10.5 20.242188 L 14.269531 20.882812 L 14.933594 21 L 14.933594 20.300781 C 14.933594 19.683594 14.863281 18.945312 14.363281 18.761719 L 11.421875 17.382812 C 11.539062 16.984375 11.621094 16.574219 11.667969 16.160156 L 12.085938 15.832031 L 12.273438 15.691406 L 12.273438 15.445312 L 12.332031 15.015625 L 12.878906 15.015625 L 12.972656 14.535156 C 13.136719 13.769531 13.207031 12.988281 13.183594 12.203125 L 20.488281 10.941406 L 21 10.816406 L 21 10.3125 C 21 8.75 20.171875 8.667969 20.007812 8.667969 L 12.179688 8.097656 L 12.179688 3.359375 C 12.179688 0.570312 10.816406 0.09375 10.652344 0 Z M 10.5 0 "/>
</svg>
