<?xml version="1.0" encoding="UTF-8"?>
<svg xmlns="http://www.w3.org/2000/svg" xmlns:xlink="http://www.w3.org/1999/xlink" width="33.150002" height="34.476004" viewBox="0 0 33.150002 34.476004">
<path id="mwpbg" fill-rule="nonzero" fill="rgb(255,255,255)" fill-opacity="1" d="M 16.582031 34.148438 C 16.242188 34.148438 15.609375 33.207031 15.449219 32.273438 L 11.035156 33.414062 L 10.609375 33.53125 L 10.714844 31.664062 L 10.859375 31.570312 C 12.359375 30.671875 14.414062 29.398438 15.105469 28.917969 C 14.617188 27.515625 14.425781 23.722656 14.535156 17.625 L 10.609375 17.648438 C 7.125 18.722656 1.585938 20.410156 1.328125 20.554688 C 1.230469 20.574219 1.136719 20.574219 1.046875 20.554688 C 0.714844 20.535156 0.441406 20.285156 0.398438 19.960938 C 0.332031 19.410156 0.609375 18.890625 1.085938 18.628906 L 3.394531 17.425781 C 5.203125 16.480469 7.664062 15.183594 9.574219 14.199219 C 9.558594 13.96875 9.558594 13.742188 9.574219 13.511719 C 9.574219 12.597656 9.574219 12.183594 9.574219 12 L 9.90625 11.828125 L 9.488281 11.828125 C 9.445312 11.421875 9.578125 11.015625 9.847656 10.71875 C 10.125 10.414062 10.515625 10.242188 10.925781 10.246094 C 11.320312 10.21875 11.710938 10.351562 12.015625 10.609375 C 12.246094 10.949219 12.371094 11.351562 12.359375 11.761719 L 12.039062 11.9375 L 12.375 11.9375 C 12.375 12.121094 12.375 12.34375 12.375 12.703125 L 14.390625 11.589844 C 14.390625 9.625 14.390625 2.230469 15.847656 0.652344 C 16.027344 0.433594 16.304688 0.304688 16.597656 0.304688 C 16.878906 0.304688 17.15625 0.433594 17.34375 0.652344 C 18.867188 2.230469 18.839844 9.640625 18.800781 11.589844 L 20.816406 12.703125 C 20.816406 12.277344 20.816406 12.066406 20.816406 11.9375 L 21.148438 11.761719 L 20.816406 11.761719 C 20.820312 11.34375 20.960938 10.9375 21.21875 10.609375 C 21.511719 10.339844 21.902344 10.207031 22.304688 10.234375 C 22.703125 10.226562 23.089844 10.390625 23.363281 10.679688 C 23.640625 10.976562 23.773438 11.371094 23.738281 11.769531 L 23.738281 11.9375 C 23.738281 12.183594 23.738281 12.574219 23.738281 13.484375 C 23.75 13.71875 23.75 13.945312 23.738281 14.175781 C 26.054688 15.367188 29.570312 17.210938 31.25 18.15625 L 32.222656 18.660156 C 32.722656 18.894531 32.996094 19.441406 32.890625 19.984375 C 32.839844 20.320312 32.558594 20.578125 32.222656 20.601562 L 32.082031 20.601562 C 31.703125 20.460938 25.691406 18.628906 22.582031 17.6875 L 18.644531 17.6875 C 18.761719 23.789062 18.5625 27.582031 18.074219 28.988281 C 18.761719 29.421875 20.816406 30.699219 22.316406 31.640625 L 22.460938 31.730469 L 22.542969 33.53125 L 22.101562 33.414062 L 17.6875 32.273438 C 17.527344 33.207031 16.894531 34.148438 16.550781 34.148438 Z M 16.582031 34.148438 "/>
<path id="mwpfg" fill-rule="nonzero" fill="rgb(0%, 0%, 0%)" fill-opacity="1" d="M 16.582031 0.667969 C 18.472656 0.667969 18.5625 9.285156 18.472656 11.816406 C 18.867188 12.023438 20.644531 13.019531 21.125 13.273438 C 21.125 12.476562 21.125 12.148438 21.125 11.945312 C 21.125 11.746094 21.125 11.828125 21.125 11.769531 C 21.109375 11.445312 21.195312 11.125 21.371094 10.851562 C 21.625 10.652344 21.941406 10.5625 22.253906 10.609375 C 22.5625 10.601562 22.859375 10.730469 23.074219 10.957031 C 23.285156 11.191406 23.386719 11.503906 23.351562 11.816406 C 23.351562 11.816406 23.351562 11.90625 23.351562 11.984375 C 23.351562 12.066406 23.351562 12.574219 23.351562 13.539062 C 23.351562 13.832031 23.328125 14.128906 23.269531 14.414062 C 26.359375 15.988281 31.90625 18.910156 31.96875 18.949219 C 32.753906 19.347656 32.5 20.277344 32.117188 20.277344 L 32.019531 20.277344 C 31.527344 20.085938 22.5 17.34375 22.5 17.34375 L 18.28125 17.34375 C 18.28125 17.640625 18.578125 27.371094 17.648438 29.160156 C 17.648438 29.160156 20.300781 30.832031 22.140625 31.917969 L 22.222656 33.148438 L 17.433594 31.824219 C 17.414062 32.558594 17.109375 33.257812 16.582031 33.769531 C 16.066406 33.257812 15.761719 32.558594 15.742188 31.824219 L 10.953125 33.148438 L 11.015625 31.824219 C 12.851562 30.738281 15.515625 29.070312 15.515625 29.070312 C 14.589844 27.277344 14.875 17.542969 14.875 17.25 L 10.609375 17.316406 C 10.609375 17.316406 1.550781 20.0625 1.136719 20.246094 L 0.992188 20.246094 C 0.570312 20.246094 0.421875 19.277344 1.183594 18.925781 C 1.9375 18.5625 6.804688 15.910156 9.890625 14.390625 C 9.835938 14.097656 9.808594 13.808594 9.816406 13.511719 C 9.816406 12.539062 9.816406 12.183594 9.816406 11.957031 C 9.816406 11.730469 9.816406 11.84375 9.816406 11.789062 C 9.785156 11.480469 9.890625 11.171875 10.105469 10.949219 C 10.316406 10.722656 10.617188 10.597656 10.925781 10.609375 C 11.234375 10.582031 11.550781 10.679688 11.789062 10.890625 C 11.96875 11.164062 12.058594 11.488281 12.039062 11.816406 C 12.039062 11.816406 12.039062 11.90625 12.039062 11.984375 C 12.039062 12.066406 12.039062 12.503906 12.039062 13.316406 C 12.515625 13.066406 14.304688 12.066406 14.691406 11.855469 C 14.652344 9.285156 14.707031 0.667969 16.582031 0.667969 M 16.582031 0 C 16.214844 0.00390625 15.855469 0.171875 15.609375 0.453125 C 14.066406 2.039062 14.015625 8.804688 14.042969 11.429688 L 13.257812 11.84375 L 12.652344 12.171875 L 12.652344 11.816406 C 12.667969 11.308594 12.511719 10.8125 12.214844 10.410156 C 11.855469 10.074219 11.371094 9.902344 10.890625 9.929688 C 10.402344 9.921875 9.929688 10.117188 9.597656 10.472656 C 9.261719 10.828125 9.085938 11.304688 9.125 11.789062 L 9.125 11.9375 C 9.125 12.148438 9.125 12.539062 9.125 13.449219 C 9.125 13.617188 9.125 13.789062 9.125 13.949219 L 3.152344 17.066406 L 0.847656 18.273438 C 0.175781 18.601562 -0.179688 19.355469 0 20.085938 C 0.0820312 20.5625 0.488281 20.917969 0.96875 20.9375 C 1.113281 20.933594 1.25 20.90625 1.378906 20.839844 C 1.761719 20.6875 7.144531 19.050781 10.660156 17.964844 L 14.109375 17.964844 C 13.976562 25.3125 14.335938 27.863281 14.617188 28.839844 C 13.765625 29.371094 11.957031 30.496094 10.636719 31.304688 L 10.339844 31.476562 L 10.339844 31.824219 L 10.261719 33.054688 L 10.261719 34.128906 L 11.191406 33.722656 L 15.25 32.675781 C 15.5 33.5625 16.082031 34.464844 16.574219 34.464844 C 17.066406 34.464844 17.71875 33.5625 17.902344 32.675781 L 21.960938 33.722656 L 22.886719 34.128906 L 22.886719 33.054688 L 22.808594 31.824219 L 22.808594 31.476562 L 22.542969 31.292969 C 21.21875 30.484375 19.355469 29.347656 18.5625 28.828125 C 18.839844 27.84375 19.203125 25.304688 19.070312 17.957031 L 22.519531 17.957031 C 26.121094 19.050781 31.546875 20.699219 31.890625 20.839844 C 32 20.867188 32.109375 20.867188 32.222656 20.839844 C 32.71875 20.816406 33.128906 20.453125 33.207031 19.960938 C 33.359375 19.261719 33.011719 18.550781 32.367188 18.242188 L 31.425781 17.757812 C 29.800781 16.894531 26.414062 15.105469 24.097656 13.9375 C 24.097656 13.777344 24.097656 13.605469 24.097656 13.429688 C 24.097656 12.539062 24.097656 12.105469 24.097656 11.921875 L 24.097656 11.828125 C 24.136719 11.339844 23.976562 10.851562 23.644531 10.488281 C 23.308594 10.121094 22.839844 9.917969 22.34375 9.917969 C 21.859375 9.886719 21.371094 10.0625 21.015625 10.398438 C 20.730469 10.777344 20.578125 11.242188 20.578125 11.722656 L 20.578125 12.222656 L 19.886719 11.84375 L 19.132812 11.414062 C 19.132812 8.765625 19.132812 2.027344 17.566406 0.4375 C 17.324219 0.160156 16.964844 0 16.582031 0 Z M 16.582031 0 "/>
</svg>
