<?xml version="1.0" encoding="UTF-8"?>
<svg xmlns="http://www.w3.org/2000/svg" xmlns:xlink="http://www.w3.org/1999/xlink" width="32.692307" height="34" viewBox="0 0 32.692307 34">
<path fill-rule="nonzero" fill="rgb(90.196078%, 65.098039%, 6.666667%)" fill-opacity="1" d="M 16.355469 33.675781 C 16.019531 33.675781 15.394531 32.746094 15.234375 31.828125 L 10.882812 32.953125 L 10.460938 33.070312 L 10.566406 31.226562 L 10.710938 31.136719 C 12.1875 30.246094 14.214844 28.992188 14.894531 28.519531 C 14.414062 27.136719 14.226562 23.394531 14.332031 17.382812 L 10.460938 17.40625 C 7.023438 18.464844 1.566406 20.128906 1.308594 20.269531 C 1.214844 20.289062 1.121094 20.289062 1.03125 20.269531 C 0.707031 20.25 0.4375 20.007812 0.394531 19.683594 C 0.328125 19.144531 0.601562 18.628906 1.070312 18.371094 L 3.347656 17.183594 C 5.128906 16.253906 7.558594 14.972656 9.441406 14.003906 C 9.425781 13.777344 9.425781 13.550781 9.441406 13.324219 C 9.441406 12.425781 9.441406 12.015625 9.441406 11.832031 L 9.769531 11.667969 L 9.359375 11.667969 C 9.316406 11.261719 9.445312 10.863281 9.714844 10.570312 C 9.988281 10.269531 10.371094 10.101562 10.773438 10.105469 C 11.164062 10.078125 11.550781 10.207031 11.847656 10.460938 C 12.078125 10.796875 12.199219 11.195312 12.1875 11.597656 L 11.871094 11.769531 L 12.203125 11.769531 C 12.203125 11.953125 12.203125 12.175781 12.203125 12.527344 L 14.191406 11.429688 C 14.191406 9.492188 14.191406 2.199219 15.628906 0.644531 C 15.808594 0.425781 16.082031 0.300781 16.367188 0.300781 C 16.648438 0.300781 16.921875 0.425781 17.101562 0.644531 C 18.605469 2.199219 18.582031 9.507812 18.542969 11.429688 L 20.53125 12.527344 C 20.53125 12.105469 20.53125 11.902344 20.53125 11.769531 L 20.855469 11.597656 L 20.53125 11.597656 C 20.535156 11.1875 20.671875 10.789062 20.925781 10.460938 C 21.214844 10.199219 21.601562 10.066406 21.996094 10.09375 C 22.390625 10.085938 22.769531 10.246094 23.039062 10.535156 C 23.3125 10.828125 23.445312 11.214844 23.410156 11.609375 L 23.410156 11.769531 C 23.410156 12.015625 23.410156 12.398438 23.410156 13.296875 C 23.421875 13.527344 23.421875 13.753906 23.410156 13.980469 C 25.695312 15.15625 29.164062 16.972656 30.820312 17.902344 L 31.777344 18.402344 C 32.273438 18.632812 32.542969 19.171875 32.433594 19.707031 C 32.386719 20.039062 32.109375 20.292969 31.777344 20.320312 L 31.636719 20.320312 C 31.265625 20.179688 25.339844 18.371094 22.269531 17.445312 L 18.386719 17.445312 C 18.503906 23.460938 18.308594 27.199219 17.824219 28.585938 C 18.503906 29.015625 20.53125 30.273438 22.007812 31.203125 L 22.152344 31.292969 L 22.230469 33.070312 L 21.796875 32.953125 L 17.445312 31.828125 C 17.285156 32.746094 16.660156 33.675781 16.320312 33.675781 Z M 16.355469 33.675781 "/>
<path fill-rule="nonzero" fill="rgb(0%, 0%, 0%)" fill-opacity="1" d="M 16.355469 0.65625 C 18.214844 0.65625 18.308594 9.15625 18.214844 11.652344 C 18.605469 11.859375 20.359375 12.839844 20.832031 13.089844 C 20.832031 12.304688 20.832031 11.980469 20.832031 11.78125 C 20.832031 11.585938 20.832031 11.667969 20.832031 11.609375 C 20.816406 11.289062 20.902344 10.96875 21.078125 10.699219 C 21.324219 10.503906 21.636719 10.417969 21.945312 10.460938 C 22.253906 10.457031 22.546875 10.582031 22.753906 10.808594 C 22.964844 11.039062 23.0625 11.34375 23.027344 11.652344 C 23.027344 11.652344 23.027344 11.742188 23.027344 11.820312 C 23.027344 11.902344 23.027344 12.398438 23.027344 13.351562 C 23.03125 13.640625 23.007812 13.933594 22.949219 14.214844 C 25.996094 15.769531 31.464844 18.648438 31.527344 18.6875 C 32.300781 19.078125 32.050781 19.996094 31.671875 19.996094 L 31.578125 19.996094 C 31.09375 19.808594 22.191406 17.101562 22.191406 17.101562 L 18.03125 17.101562 C 18.03125 17.394531 18.320312 26.992188 17.40625 28.757812 C 17.40625 28.757812 20.019531 30.40625 21.835938 31.476562 L 21.917969 32.691406 L 17.195312 31.386719 C 17.175781 32.109375 16.875 32.800781 16.355469 33.304688 C 15.84375 32.800781 15.542969 32.109375 15.523438 31.386719 L 10.800781 32.691406 L 10.863281 31.386719 C 12.671875 30.3125 15.300781 28.667969 15.300781 28.667969 C 14.386719 26.902344 14.671875 17.300781 14.671875 17.011719 L 10.460938 17.078125 C 10.460938 17.078125 1.53125 19.785156 1.121094 19.96875 L 0.980469 19.96875 C 0.5625 19.96875 0.417969 19.011719 1.164062 18.664062 C 1.910156 18.308594 6.710938 15.691406 9.753906 14.191406 C 9.699219 13.902344 9.675781 13.617188 9.679688 13.324219 C 9.679688 12.367188 9.679688 12.015625 9.679688 11.792969 C 9.679688 11.570312 9.679688 11.679688 9.679688 11.628906 C 9.652344 11.320312 9.753906 11.019531 9.964844 10.796875 C 10.175781 10.574219 10.472656 10.453125 10.773438 10.460938 C 11.082031 10.4375 11.390625 10.535156 11.628906 10.738281 C 11.804688 11.007812 11.890625 11.328125 11.871094 11.652344 C 11.871094 11.652344 11.871094 11.742188 11.871094 11.820312 C 11.871094 11.902344 11.871094 12.332031 11.871094 13.132812 C 12.34375 12.882812 14.109375 11.902344 14.488281 11.691406 C 14.449219 9.15625 14.503906 0.65625 16.355469 0.65625 M 16.355469 0 C 15.988281 0.00390625 15.636719 0.167969 15.394531 0.445312 C 13.871094 2.011719 13.820312 8.683594 13.847656 11.273438 L 13.074219 11.679688 L 12.476562 12.003906 L 12.476562 11.652344 C 12.492188 11.152344 12.339844 10.664062 12.042969 10.265625 C 11.691406 9.933594 11.214844 9.765625 10.738281 9.792969 C 10.257812 9.785156 9.792969 9.976562 9.464844 10.328125 C 9.132812 10.675781 8.960938 11.148438 8.996094 11.628906 L 8.996094 11.769531 C 8.996094 11.980469 8.996094 12.367188 8.996094 13.261719 C 8.996094 13.429688 8.996094 13.597656 8.996094 13.757812 L 3.109375 16.828125 L 0.835938 18.019531 C 0.171875 18.34375 -0.179688 19.089844 0 19.808594 C 0.0820312 20.28125 0.480469 20.628906 0.957031 20.648438 C 1.097656 20.644531 1.234375 20.617188 1.359375 20.554688 C 1.738281 20.402344 7.046875 18.789062 10.511719 17.71875 L 13.914062 17.71875 C 13.78125 24.964844 14.136719 27.476562 14.414062 28.441406 C 13.574219 28.964844 11.792969 30.074219 10.488281 30.871094 L 10.199219 31.042969 L 10.199219 31.386719 L 10.121094 32.597656 L 10.121094 33.660156 L 11.035156 33.253906 L 15.039062 32.222656 C 15.285156 33.097656 15.859375 33.988281 16.34375 33.988281 C 16.828125 33.988281 17.472656 33.097656 17.65625 32.222656 L 21.65625 33.253906 L 22.570312 33.660156 L 22.570312 32.597656 L 22.492188 31.386719 L 22.492188 31.042969 L 22.230469 30.859375 C 20.925781 30.0625 19.089844 28.941406 18.308594 28.429688 C 18.582031 27.460938 18.9375 24.953125 18.804688 17.707031 L 22.207031 17.707031 C 25.761719 18.789062 31.109375 20.414062 31.449219 20.554688 C 31.558594 20.578125 31.667969 20.578125 31.777344 20.554688 C 32.265625 20.53125 32.671875 20.167969 32.746094 19.683594 C 32.898438 18.996094 32.554688 18.292969 31.921875 17.992188 L 30.992188 17.511719 C 29.386719 16.660156 26.046875 14.894531 23.761719 13.742188 C 23.761719 13.585938 23.761719 13.417969 23.761719 13.246094 C 23.761719 12.367188 23.761719 11.941406 23.761719 11.757812 L 23.761719 11.667969 C 23.804688 11.183594 23.644531 10.699219 23.316406 10.34375 C 22.984375 9.980469 22.523438 9.78125 22.035156 9.78125 C 21.554688 9.75 21.078125 9.921875 20.726562 10.253906 C 20.445312 10.628906 20.292969 11.085938 20.292969 11.558594 L 20.292969 12.054688 L 19.613281 11.679688 L 18.867188 11.257812 C 18.867188 8.644531 18.867188 2 17.324219 0.433594 C 17.082031 0.160156 16.730469 0 16.355469 0 Z M 16.355469 0 "/>
</svg>
