<?xml version="1.0" encoding="UTF-8"?>
<svg xmlns="http://www.w3.org/2000/svg" xmlns:xlink="http://www.w3.org/1999/xlink" width="35.576922" height="37" viewBox="0 0 35.576922 37">
<path fill-rule="nonzero" fill="rgb(90.196078%, 65.098039%, 6.666667%)" fill-opacity="1" d="M 17.800781 36.644531 C 17.433594 36.644531 16.75 35.632812 16.578125 34.636719 L 11.84375 35.863281 L 11.386719 35.988281 L 11.496094 33.984375 L 11.65625 33.886719 C 13.265625 32.914062 15.46875 31.550781 16.210938 31.035156 C 15.683594 29.53125 15.484375 25.460938 15.59375 18.914062 L 11.386719 18.941406 C 7.640625 20.09375 1.707031 21.902344 1.421875 22.058594 C 1.324219 22.082031 1.222656 22.082031 1.125 22.058594 C 0.769531 22.039062 0.476562 21.773438 0.429688 21.417969 C 0.359375 20.835938 0.652344 20.273438 1.164062 19.992188 L 3.640625 18.699219 C 5.582031 17.6875 8.222656 16.292969 10.277344 15.242188 C 10.257812 14.992188 10.257812 14.746094 10.277344 14.5 C 10.277344 13.519531 10.277344 13.078125 10.277344 12.878906 L 10.628906 12.695312 L 10.1875 12.695312 C 10.140625 12.257812 10.28125 11.824219 10.574219 11.5 C 10.867188 11.175781 11.289062 10.992188 11.726562 11 C 12.148438 10.964844 12.570312 11.105469 12.890625 11.386719 C 13.144531 11.75 13.273438 12.183594 13.265625 12.621094 L 12.917969 12.808594 L 13.277344 12.808594 C 13.277344 13.007812 13.277344 13.25 13.277344 13.632812 L 15.441406 12.4375 C 15.441406 10.332031 15.441406 2.390625 17.007812 0.699219 C 17.203125 0.460938 17.503906 0.328125 17.808594 0.328125 C 18.117188 0.328125 18.417969 0.460938 18.613281 0.699219 C 20.25 2.390625 20.21875 10.34375 20.179688 12.4375 L 22.339844 13.632812 C 22.339844 13.175781 22.339844 12.953125 22.339844 12.808594 L 22.695312 12.621094 L 22.339844 12.621094 C 22.347656 12.171875 22.496094 11.738281 22.769531 11.386719 C 23.085938 11.101562 23.507812 10.957031 23.9375 10.984375 C 24.363281 10.976562 24.78125 11.152344 25.074219 11.464844 C 25.367188 11.78125 25.511719 12.207031 25.476562 12.636719 L 25.476562 12.808594 C 25.476562 13.078125 25.476562 13.492188 25.476562 14.472656 C 25.488281 14.71875 25.488281 14.964844 25.476562 15.214844 C 27.964844 16.496094 31.734375 18.472656 33.539062 19.484375 L 34.582031 20.023438 C 35.121094 20.277344 35.414062 20.863281 35.292969 21.445312 C 35.242188 21.804688 34.945312 22.085938 34.582031 22.113281 L 34.425781 22.113281 C 34.027344 21.960938 27.578125 19.992188 24.234375 18.984375 L 20.011719 18.984375 C 20.136719 25.53125 19.921875 29.601562 19.394531 31.105469 C 20.136719 31.578125 22.339844 32.945312 23.949219 33.957031 L 24.109375 34.054688 L 24.191406 35.988281 L 23.722656 35.863281 L 18.984375 34.636719 C 18.8125 35.632812 18.132812 36.644531 17.757812 36.644531 Z M 17.800781 36.644531 "/>
<path fill-rule="nonzero" fill="rgb(0%, 0%, 0%)" fill-opacity="1" d="M 17.800781 0.714844 C 19.824219 0.714844 19.921875 9.964844 19.824219 12.679688 C 20.25 12.90625 22.15625 13.972656 22.667969 14.242188 C 22.667969 13.390625 22.667969 13.035156 22.667969 12.820312 C 22.667969 12.605469 22.667969 12.695312 22.667969 12.636719 C 22.652344 12.285156 22.746094 11.933594 22.9375 11.640625 C 23.203125 11.433594 23.542969 11.339844 23.878906 11.386719 C 24.214844 11.378906 24.539062 11.515625 24.761719 11.761719 C 24.988281 12.015625 25.097656 12.347656 25.058594 12.679688 C 25.058594 12.679688 25.058594 12.78125 25.058594 12.863281 C 25.058594 12.953125 25.058594 13.492188 25.058594 14.527344 C 25.066406 14.84375 25.035156 15.160156 24.976562 15.46875 C 28.289062 17.160156 34.238281 20.296875 34.308594 20.335938 C 35.148438 20.761719 34.878906 21.757812 34.46875 21.757812 L 34.367188 21.757812 C 33.839844 21.558594 24.152344 18.613281 24.152344 18.613281 L 19.625 18.613281 C 19.625 18.929688 19.9375 29.371094 18.941406 31.292969 C 18.941406 31.292969 21.785156 33.089844 23.765625 34.253906 L 23.851562 35.578125 L 18.714844 34.15625 C 18.691406 34.945312 18.363281 35.695312 17.800781 36.246094 C 17.242188 35.695312 16.914062 34.945312 16.890625 34.15625 L 11.753906 35.578125 L 11.824219 34.15625 C 13.792969 32.984375 16.648438 31.195312 16.648438 31.195312 C 15.65625 29.273438 15.96875 18.828125 15.96875 18.515625 L 11.386719 18.582031 C 11.386719 18.582031 1.664062 21.53125 1.222656 21.730469 L 1.066406 21.730469 C 0.609375 21.730469 0.457031 20.691406 1.269531 20.308594 C 2.078125 19.921875 7.300781 17.078125 10.617188 15.441406 C 10.554688 15.128906 10.527344 14.816406 10.53125 14.5 C 10.53125 13.460938 10.53125 13.078125 10.53125 12.835938 C 10.53125 12.59375 10.53125 12.710938 10.53125 12.652344 C 10.503906 12.316406 10.617188 11.992188 10.84375 11.75 C 11.074219 11.507812 11.394531 11.375 11.726562 11.386719 C 12.0625 11.355469 12.398438 11.464844 12.652344 11.683594 C 12.84375 11.976562 12.9375 12.328125 12.917969 12.679688 C 12.917969 12.679688 12.917969 12.78125 12.917969 12.863281 C 12.917969 12.953125 12.917969 13.417969 12.917969 14.289062 C 13.433594 14.019531 15.351562 12.953125 15.769531 12.722656 C 15.726562 9.964844 15.78125 0.714844 17.800781 0.714844 M 17.800781 0 C 17.398438 0.00390625 17.015625 0.183594 16.75 0.484375 C 15.097656 2.191406 15.039062 9.449219 15.070312 12.265625 L 14.230469 12.710938 L 13.578125 13.0625 L 13.578125 12.679688 C 13.59375 12.136719 13.425781 11.605469 13.105469 11.171875 C 12.722656 10.8125 12.207031 10.625 11.683594 10.65625 C 11.160156 10.648438 10.65625 10.859375 10.300781 11.242188 C 9.941406 11.617188 9.753906 12.132812 9.789062 12.652344 L 9.789062 12.808594 C 9.789062 13.035156 9.789062 13.460938 9.789062 14.429688 C 9.789062 14.617188 9.789062 14.796875 9.789062 14.96875 L 3.386719 18.3125 L 0.910156 19.609375 C 0.1875 19.964844 -0.195312 20.773438 0 21.558594 C 0.0898438 22.070312 0.523438 22.449219 1.039062 22.472656 C 1.195312 22.46875 1.34375 22.433594 1.476562 22.371094 C 1.894531 22.203125 7.667969 20.449219 11.441406 19.285156 L 15.144531 19.285156 C 15 27.167969 15.386719 29.898438 15.683594 30.953125 C 14.769531 31.523438 12.835938 32.730469 11.414062 33.597656 L 11.101562 33.78125 L 11.101562 34.15625 L 11.011719 35.476562 L 11.011719 36.632812 L 12.011719 36.1875 L 16.363281 35.066406 C 16.636719 36.015625 17.261719 36.984375 17.785156 36.984375 C 18.3125 36.984375 19.011719 36.015625 19.214844 35.066406 L 23.566406 36.1875 L 24.5625 36.632812 L 24.5625 35.476562 L 24.476562 34.15625 L 24.476562 33.78125 L 24.191406 33.582031 C 22.769531 32.714844 20.773438 31.492188 19.921875 30.9375 C 20.21875 29.886719 20.605469 27.152344 20.460938 19.269531 L 24.164062 19.269531 C 28.035156 20.449219 33.851562 22.214844 34.226562 22.371094 C 34.34375 22.394531 34.464844 22.394531 34.582031 22.371094 C 35.113281 22.339844 35.554688 21.945312 35.632812 21.417969 C 35.800781 20.671875 35.429688 19.90625 34.738281 19.582031 L 33.726562 19.054688 C 31.980469 18.132812 28.347656 16.210938 25.855469 14.957031 C 25.855469 14.785156 25.855469 14.601562 25.855469 14.414062 C 25.855469 13.460938 25.855469 12.992188 25.855469 12.792969 L 25.855469 12.695312 C 25.902344 12.167969 25.730469 11.640625 25.371094 11.253906 C 25.011719 10.863281 24.507812 10.644531 23.976562 10.644531 C 23.457031 10.613281 22.9375 10.796875 22.554688 11.15625 C 22.25 11.566406 22.085938 12.066406 22.085938 12.578125 L 22.085938 13.121094 L 21.34375 12.710938 L 20.53125 12.253906 C 20.53125 9.410156 20.53125 2.175781 18.855469 0.472656 C 18.589844 0.171875 18.207031 0 17.800781 0 Z M 17.800781 0 "/>
</svg>
