<?xml version="1.0" encoding="UTF-8"?>
<svg xmlns="http://www.w3.org/2000/svg" xmlns:xlink="http://www.w3.org/1999/xlink" width="35.724139" height="37" viewBox="0 0 35.724139 37">
<path fill-rule="nonzero" fill="rgb(90.196078%, 65.098039%, 6.666667%)" fill-opacity="1" d="M 11.480469 36.171875 C 11.480469 35.96875 11.265625 34.894531 11.773438 34.4375 C 12.605469 33.683594 15.375 31.398438 16.117188 30.785156 C 15.464844 29.089844 15.363281 24.21875 15.386719 20.296875 L 12.757812 20.414062 L 0.320312 24.242188 L 0.320312 23.808594 C 0.320312 23.03125 0.714844 22.3125 1.363281 21.890625 L 11.289062 15.425781 C 10.667969 14.253906 10.445312 12.910156 10.640625 11.597656 L 10.640625 11.316406 L 13.816406 11.316406 L 13.816406 11.597656 C 13.902344 12.367188 13.902344 13.140625 13.816406 13.910156 L 15.363281 12.871094 C 15.363281 4.207031 15.59375 0.648438 17.796875 0.28125 C 19.964844 0.460938 20.347656 4.105469 20.347656 12.847656 L 22.070312 14.035156 C 21.988281 13.269531 21.988281 12.5 22.070312 11.738281 L 22.070312 11.457031 L 25.277344 11.457031 L 25.277344 11.761719 C 25.472656 13.074219 25.246094 14.417969 24.625 15.59375 L 34.398438 21.96875 C 35.039062 22.394531 35.425781 23.113281 35.417969 23.886719 L 35.417969 24.242188 L 22.964844 20.414062 L 20.414062 20.335938 C 20.414062 24.242188 20.335938 29.113281 19.6875 30.8125 C 21.277344 31.96875 22.769531 33.246094 24.152344 34.640625 C 24.335938 35.125 24.367188 35.652344 24.242188 36.160156 L 24.179688 36.554688 L 18.628906 34.078125 C 18.449219 36.4375 18.105469 36.4375 17.863281 36.4375 C 17.621094 36.4375 17.261719 36.4375 17.097656 34.09375 L 11.480469 36.566406 Z M 11.480469 36.171875 "/>
<path fill-rule="nonzero" fill="rgb(0%, 0%, 0%)" fill-opacity="1" d="M 17.863281 0.636719 C 19.6875 0.804688 20.015625 4.464844 20.015625 13.050781 L 22.644531 14.828125 C 22.316406 13.84375 22.214844 12.804688 22.339844 11.773438 L 24.894531 11.773438 C 24.894531 11.773438 25.226562 14.417969 24.101562 15.605469 C 24.101562 15.605469 34.105469 22.132812 34.179688 22.171875 C 34.726562 22.539062 35.046875 23.15625 35.046875 23.808594 L 22.976562 19.980469 L 19.980469 19.878906 C 19.980469 20.171875 20.144531 28.960938 19.1875 30.773438 C 20.804688 31.976562 22.335938 33.289062 23.769531 34.703125 C 23.929688 35.109375 23.972656 35.550781 23.898438 35.980469 L 18.296875 33.429688 C 18.207031 34.910156 18.027344 35.980469 17.8125 35.980469 C 17.59375 35.980469 17.414062 34.945312 17.328125 33.429688 L 11.710938 35.980469 C 11.710938 35.980469 11.496094 34.910156 11.914062 34.539062 C 12.859375 33.683594 16.433594 30.707031 16.433594 30.707031 C 15.476562 28.886719 15.644531 20.105469 15.644531 19.8125 L 12.757812 20.070312 L 0.6875 23.898438 C 0.6875 23.242188 1.011719 22.628906 1.554688 22.261719 C 1.632812 22.261719 11.761719 15.578125 11.761719 15.578125 C 10.640625 14.304688 10.972656 11.75 10.972656 11.75 L 13.523438 11.75 C 13.648438 12.777344 13.546875 13.820312 13.214844 14.800781 L 15.65625 13.164062 C 15.65625 4.566406 15.871094 1.046875 17.824219 0.714844 M 17.863281 0 L 17.785156 0 C 15.3125 0.421875 15.070312 3.824219 15.058594 12.757812 L 14.214844 13.316406 C 14.253906 12.757812 14.253906 12.1875 14.214844 11.621094 L 14.214844 11.046875 L 10.386719 11.046875 L 10.386719 11.671875 C 10.214844 12.90625 10.386719 14.164062 10.871094 15.3125 L 1.1875 21.6875 C 0.460938 22.167969 0.0117188 22.976562 0 23.847656 L 0 24.714844 L 0.816406 24.460938 L 12.757812 20.707031 L 15.019531 20.628906 C 15.019531 25.796875 15.210938 29.179688 15.695312 30.683594 C 14.761719 31.449219 12.285156 33.503906 11.507812 34.207031 C 11.066406 34.78125 10.921875 35.535156 11.113281 36.234375 L 11.265625 37 L 11.980469 36.695312 L 16.777344 34.5625 C 16.957031 36.386719 17.277344 36.757812 17.824219 36.757812 C 18.371094 36.757812 18.691406 36.386719 18.871094 34.550781 L 23.65625 36.679688 L 24.394531 37 L 24.535156 36.210938 C 24.664062 35.617188 24.601562 35.003906 24.359375 34.449219 C 23.019531 33.042969 21.5625 31.761719 19.992188 30.621094 C 20.464844 29.101562 20.695312 25.734375 20.65625 20.578125 L 22.914062 20.65625 L 34.894531 24.410156 L 35.710938 24.664062 L 35.710938 23.796875 C 35.679688 22.925781 35.203125 22.128906 34.449219 21.6875 L 24.984375 15.515625 C 25.503906 14.335938 25.691406 13.027344 25.519531 11.75 L 25.519531 11.175781 L 21.765625 11.175781 L 21.765625 11.75 C 21.726562 12.316406 21.726562 12.882812 21.765625 13.445312 L 20.640625 12.757812 C 20.640625 3.558594 20.207031 0.242188 17.914062 0 Z M 17.863281 0 "/>
</svg>
