<?xml version="1.0" encoding="UTF-8"?>
<svg xmlns="http://www.w3.org/2000/svg" xmlns:xlink="http://www.w3.org/1999/xlink" width="36.110348" height="37.400002" viewBox="0 0 36.110348 37.400002">
<path id="mwpbg" fill-rule="nonzero" fill="rgb(255,255,255)" fill-opacity="1" d="M 11.605469 36.5625 C 11.605469 36.359375 11.386719 35.273438 11.902344 34.808594 C 12.742188 34.050781 15.539062 31.738281 16.289062 31.117188 C 15.632812 29.402344 15.53125 24.480469 15.554688 20.515625 L 12.894531 20.632812 L 0.324219 24.503906 L 0.324219 24.066406 C 0.324219 23.28125 0.722656 22.550781 1.378906 22.128906 L 11.410156 15.59375 C 10.78125 14.410156 10.558594 13.050781 10.757812 11.722656 L 10.757812 11.4375 L 13.964844 11.4375 L 13.964844 11.722656 C 14.054688 12.5 14.054688 13.285156 13.964844 14.058594 L 15.53125 13.011719 C 15.53125 4.25 15.761719 0.65625 17.988281 0.28125 C 20.179688 0.46875 20.566406 4.148438 20.566406 12.988281 L 22.308594 14.1875 C 22.226562 13.410156 22.226562 12.636719 22.308594 11.863281 L 22.308594 11.582031 L 25.550781 11.582031 L 25.550781 11.886719 C 25.746094 13.214844 25.519531 14.574219 24.890625 15.761719 L 34.769531 22.207031 C 35.417969 22.636719 35.808594 23.363281 35.800781 24.144531 L 35.800781 24.503906 L 23.214844 20.632812 L 20.632812 20.554688 C 20.632812 24.503906 20.554688 29.429688 19.898438 31.148438 C 21.507812 32.316406 23.015625 33.605469 24.414062 35.015625 C 24.597656 35.503906 24.632812 36.035156 24.503906 36.550781 L 24.441406 36.953125 L 18.832031 34.445312 C 18.648438 36.832031 18.300781 36.832031 18.058594 36.832031 C 17.8125 36.832031 17.449219 36.832031 17.28125 34.464844 L 11.605469 36.960938 Z M 11.605469 36.5625 "/>
<path id="mwpfg" fill-rule="nonzero" fill="rgb(0%, 0%, 0%)" fill-opacity="1" d="M 18.058594 0.644531 C 19.898438 0.8125 20.234375 4.515625 20.234375 13.191406 L 22.886719 14.988281 C 22.558594 13.992188 22.453125 12.945312 22.582031 11.902344 L 25.164062 11.902344 C 25.164062 11.902344 25.5 14.574219 24.363281 15.773438 C 24.363281 15.773438 34.472656 22.371094 34.550781 22.410156 C 35.101562 22.78125 35.425781 23.40625 35.425781 24.066406 L 23.222656 20.195312 L 20.195312 20.09375 C 20.195312 20.390625 20.359375 29.273438 19.394531 31.109375 C 21.027344 32.320312 22.578125 33.648438 24.027344 35.078125 C 24.1875 35.492188 24.230469 35.933594 24.15625 36.367188 L 18.496094 33.792969 C 18.402344 35.285156 18.222656 36.367188 18.003906 36.367188 C 17.785156 36.367188 17.605469 35.324219 17.515625 33.792969 L 11.839844 36.367188 C 11.839844 36.367188 11.621094 35.285156 12.042969 34.910156 C 12.996094 34.050781 16.609375 31.039062 16.609375 31.039062 C 15.640625 29.199219 15.8125 20.320312 15.8125 20.023438 L 12.894531 20.289062 L 0.695312 24.15625 C 0.695312 23.492188 1.023438 22.875 1.574219 22.503906 C 1.652344 22.503906 11.886719 15.746094 11.886719 15.746094 C 10.757812 14.457031 11.09375 11.878906 11.09375 11.878906 L 13.667969 11.878906 C 13.796875 12.914062 13.695312 13.972656 13.359375 14.960938 L 15.828125 13.304688 C 15.828125 4.617188 16.042969 1.058594 18.019531 0.722656 M 18.058594 0 L 17.980469 0 C 15.476562 0.429688 15.234375 3.867188 15.222656 12.894531 L 14.371094 13.460938 C 14.410156 12.894531 14.410156 12.320312 14.371094 11.746094 L 14.371094 11.167969 L 10.5 11.167969 L 10.5 11.800781 C 10.324219 13.046875 10.5 14.316406 10.988281 15.476562 L 1.199219 21.921875 C 0.46875 22.40625 0.0117188 23.222656 0 24.105469 L 0 24.980469 L 0.824219 24.722656 L 12.894531 20.929688 L 15.183594 20.851562 C 15.183594 26.078125 15.375 29.496094 15.867188 31.015625 C 14.921875 31.789062 12.417969 33.863281 11.632812 34.574219 C 11.1875 35.15625 11.039062 35.917969 11.234375 36.625 L 11.386719 37.398438 L 12.109375 37.09375 L 16.957031 34.9375 C 17.140625 36.78125 17.464844 37.15625 18.019531 37.15625 C 18.570312 37.15625 18.894531 36.78125 19.074219 34.925781 L 23.910156 37.078125 L 24.660156 37.398438 L 24.800781 36.601562 C 24.929688 36.003906 24.867188 35.382812 24.621094 34.824219 C 23.269531 33.402344 21.796875 32.105469 20.210938 30.953125 C 20.6875 29.417969 20.921875 26.015625 20.882812 20.800781 L 23.160156 20.882812 L 35.273438 24.675781 L 36.09375 24.929688 L 36.09375 24.054688 C 36.066406 23.175781 35.582031 22.367188 34.824219 21.921875 L 25.253906 15.683594 C 25.78125 14.492188 25.96875 13.167969 25.796875 11.878906 L 25.796875 11.296875 L 22 11.296875 L 22 11.878906 C 21.960938 12.449219 21.960938 13.023438 22 13.589844 L 20.863281 12.894531 C 20.863281 3.597656 20.425781 0.242188 18.105469 0 Z M 18.058594 0 "/>
</svg>
