<?xml version="1.0" encoding="UTF-8"?>
<svg xmlns="http://www.w3.org/2000/svg" xmlns:xlink="http://www.w3.org/1999/xlink" width="38.620691" height="40" viewBox="0 0 38.620691 40">
<path fill-rule="nonzero" fill="rgb(90.196078%, 65.098039%, 6.666667%)" fill-opacity="1" d="M 12.414062 39.105469 C 12.414062 38.882812 12.179688 37.726562 12.730469 37.230469 C 13.625 36.414062 16.621094 33.941406 17.421875 33.28125 C 16.71875 31.449219 16.609375 26.179688 16.636719 21.945312 L 13.792969 22.066406 L 0.34375 26.207031 L 0.34375 25.738281 C 0.34375 24.898438 0.773438 24.121094 1.476562 23.667969 L 12.207031 16.675781 C 11.535156 15.410156 11.292969 13.957031 11.503906 12.535156 L 11.503906 12.234375 L 14.9375 12.234375 L 14.9375 12.535156 C 15.027344 13.367188 15.027344 14.203125 14.9375 15.035156 L 16.609375 13.914062 C 16.609375 4.550781 16.855469 0.703125 19.242188 0.304688 C 21.585938 0.496094 22 4.4375 22 13.886719 L 23.859375 15.175781 C 23.773438 14.347656 23.773438 13.515625 23.859375 12.6875 L 23.859375 12.386719 L 27.324219 12.386719 L 27.324219 12.714844 C 27.535156 14.136719 27.292969 15.589844 26.621094 16.855469 L 37.1875 23.75 C 37.882812 24.210938 38.300781 24.984375 38.289062 25.824219 L 38.289062 26.207031 L 24.824219 22.066406 L 22.066406 21.984375 C 22.066406 26.207031 21.984375 31.476562 21.28125 33.308594 C 23 34.558594 24.613281 35.941406 26.113281 37.449219 C 26.308594 37.972656 26.34375 38.542969 26.207031 39.089844 L 26.140625 39.515625 L 20.136719 36.84375 C 19.945312 39.394531 19.574219 39.394531 19.3125 39.394531 C 19.046875 39.394531 18.664062 39.394531 18.484375 36.855469 L 12.414062 39.53125 Z M 12.414062 39.105469 "/>
<path fill-rule="nonzero" fill="rgb(0%, 0%, 0%)" fill-opacity="1" d="M 19.3125 0.6875 C 21.28125 0.867188 21.640625 4.824219 21.640625 14.109375 L 24.480469 16.03125 C 24.125 14.96875 24.015625 13.84375 24.148438 12.730469 L 26.910156 12.730469 C 26.910156 12.730469 27.269531 15.589844 26.058594 16.871094 C 26.058594 16.871094 36.871094 23.929688 36.953125 23.96875 C 37.542969 24.367188 37.890625 25.03125 37.890625 25.738281 L 24.839844 21.597656 L 21.597656 21.488281 C 21.597656 21.804688 21.777344 31.308594 20.746094 33.265625 C 22.492188 34.566406 24.144531 35.988281 25.699219 37.519531 C 25.867188 37.953125 25.914062 38.433594 25.835938 38.898438 L 19.78125 36.140625 C 19.683594 37.738281 19.488281 38.898438 19.253906 38.898438 C 19.019531 38.898438 18.828125 37.78125 18.730469 36.140625 L 12.660156 38.898438 C 12.660156 38.898438 12.425781 37.738281 12.882812 37.339844 C 13.902344 36.414062 17.765625 33.199219 17.765625 33.199219 C 16.734375 31.226562 16.910156 21.738281 16.910156 21.421875 L 13.792969 21.695312 L 0.746094 25.835938 C 0.746094 25.128906 1.09375 24.460938 1.683594 24.066406 C 1.765625 24.066406 12.714844 16.84375 12.714844 16.84375 C 11.503906 15.464844 11.859375 12.703125 11.859375 12.703125 L 14.617188 12.703125 C 14.757812 13.8125 14.644531 14.941406 14.289062 16 L 16.925781 14.234375 C 16.925781 4.9375 17.160156 1.128906 19.269531 0.773438 M 19.3125 0 L 19.226562 0 C 16.554688 0.453125 16.292969 4.136719 16.277344 13.792969 L 15.367188 14.398438 C 15.410156 13.792969 15.410156 13.175781 15.367188 12.5625 L 15.367188 11.945312 L 11.226562 11.945312 L 11.226562 12.621094 C 11.042969 13.953125 11.226562 15.3125 11.75 16.554688 L 1.28125 23.445312 C 0.496094 23.964844 0.015625 24.839844 0 25.78125 L 0 26.71875 L 0.882812 26.441406 L 13.792969 22.386719 L 16.234375 22.300781 C 16.234375 27.890625 16.441406 31.542969 16.96875 33.171875 C 15.960938 34 13.28125 36.222656 12.441406 36.980469 C 11.960938 37.601562 11.804688 38.414062 12.011719 39.171875 L 12.179688 40 L 12.949219 39.667969 L 18.140625 37.367188 C 18.332031 39.339844 18.675781 39.738281 19.269531 39.738281 C 19.863281 39.738281 20.207031 39.339844 20.398438 37.351562 L 25.574219 39.65625 L 26.375 40 L 26.527344 39.144531 C 26.664062 38.507812 26.59375 37.839844 26.332031 37.242188 C 24.886719 35.722656 23.308594 34.339844 21.613281 33.101562 C 22.125 31.460938 22.371094 27.820312 22.328125 22.246094 L 24.769531 22.328125 L 37.726562 26.386719 L 38.609375 26.664062 L 38.609375 25.726562 C 38.570312 24.785156 38.054688 23.925781 37.242188 23.445312 L 27.007812 16.773438 C 27.574219 15.496094 27.777344 14.085938 27.585938 12.703125 L 27.585938 12.082031 L 23.53125 12.082031 L 23.53125 12.703125 C 23.488281 13.3125 23.488281 13.929688 23.53125 14.535156 L 22.316406 13.792969 C 22.316406 3.847656 21.847656 0.261719 19.367188 0 Z M 19.3125 0 "/>
</svg>
