<?xml version="1.0" encoding="UTF-8"?>
<svg xmlns="http://www.w3.org/2000/svg" xmlns:xlink="http://www.w3.org/1999/xlink" width="32.827586" height="34" viewBox="0 0 32.827586 34">
<path fill-rule="nonzero" fill="rgb(100%, 0%, 0%)" fill-opacity="1" d="M 10.550781 33.238281 C 10.550781 33.050781 10.351562 32.066406 10.820312 31.644531 C 11.582031 30.953125 14.128906 28.851562 14.808594 28.289062 C 14.210938 26.730469 14.117188 22.253906 14.140625 18.652344 L 11.722656 18.757812 L 0.292969 22.277344 L 0.292969 21.878906 C 0.292969 21.164062 0.65625 20.503906 1.253906 20.117188 L 10.375 14.175781 C 9.804688 13.097656 9.597656 11.863281 9.777344 10.65625 L 9.777344 10.398438 L 12.695312 10.398438 L 12.695312 10.65625 C 12.773438 11.363281 12.773438 12.074219 12.695312 12.78125 L 14.117188 11.828125 C 14.117188 3.867188 14.328125 0.597656 16.355469 0.257812 C 18.347656 0.421875 18.699219 3.773438 18.699219 11.804688 L 20.28125 12.898438 C 20.207031 12.195312 20.207031 11.488281 20.28125 10.785156 L 20.28125 10.527344 L 23.226562 10.527344 L 23.226562 10.808594 C 23.40625 12.015625 23.199219 13.25 22.628906 14.328125 L 31.609375 20.1875 C 32.199219 20.578125 32.554688 21.238281 32.546875 21.949219 L 32.546875 22.277344 L 21.101562 18.757812 L 18.757812 18.6875 C 18.757812 22.277344 18.6875 26.753906 18.089844 28.3125 C 19.550781 29.375 20.921875 30.550781 22.195312 31.832031 C 22.363281 32.277344 22.390625 32.761719 22.277344 33.226562 L 22.21875 33.589844 L 17.117188 31.316406 C 16.953125 33.484375 16.636719 33.484375 16.414062 33.484375 C 16.191406 33.484375 15.863281 33.484375 15.710938 31.328125 L 10.550781 33.601562 Z M 10.550781 33.238281 "/>
<path fill-rule="nonzero" fill="rgb(0%, 0%, 0%)" fill-opacity="1" d="M 16.414062 0.585938 C 18.089844 0.738281 18.394531 4.101562 18.394531 11.992188 L 20.808594 13.625 C 20.507812 12.722656 20.414062 11.765625 20.527344 10.820312 L 22.875 10.820312 C 22.875 10.820312 23.179688 13.25 22.148438 14.339844 C 22.148438 14.339844 31.339844 20.339844 31.410156 20.375 C 31.910156 20.710938 32.207031 21.277344 32.207031 21.878906 L 21.113281 18.359375 L 18.359375 18.265625 C 18.359375 18.535156 18.511719 26.613281 17.632812 28.277344 C 19.117188 29.382812 20.523438 30.589844 21.84375 31.890625 C 21.988281 32.261719 22.027344 32.667969 21.960938 33.0625 L 16.8125 30.71875 C 16.730469 32.078125 16.566406 33.0625 16.367188 33.0625 C 16.167969 33.0625 16.003906 32.113281 15.921875 30.71875 L 10.761719 33.0625 C 10.761719 33.0625 10.5625 32.078125 10.949219 31.738281 C 11.816406 30.953125 15.101562 28.21875 15.101562 28.21875 C 14.222656 26.542969 14.375 18.476562 14.375 18.207031 L 11.722656 18.441406 L 0.632812 21.960938 C 0.632812 21.359375 0.929688 20.792969 1.429688 20.457031 C 1.5 20.457031 10.808594 14.316406 10.808594 14.316406 C 9.777344 13.144531 10.082031 10.796875 10.082031 10.796875 L 12.425781 10.796875 C 12.542969 11.742188 12.449219 12.699219 12.144531 13.601562 L 14.386719 12.097656 C 14.386719 4.195312 14.585938 0.960938 16.378906 0.65625 M 16.414062 0 L 16.34375 0 C 14.070312 0.386719 13.847656 3.515625 13.835938 11.722656 L 13.0625 12.238281 C 13.097656 11.722656 13.097656 11.199219 13.0625 10.679688 L 13.0625 10.152344 L 9.542969 10.152344 L 9.542969 10.726562 C 9.386719 11.859375 9.542969 13.015625 9.988281 14.070312 L 1.089844 19.929688 C 0.421875 20.371094 0.0117188 21.113281 0 21.914062 L 0 22.710938 L 0.75 22.476562 L 11.722656 19.027344 L 13.800781 18.957031 C 13.800781 23.707031 13.976562 26.8125 14.421875 28.195312 C 13.566406 28.898438 11.289062 30.789062 10.574219 31.433594 C 10.167969 31.960938 10.035156 32.652344 10.210938 33.296875 L 10.351562 34 L 11.007812 33.71875 L 15.417969 31.761719 C 15.582031 33.4375 15.875 33.777344 16.378906 33.777344 C 16.882812 33.777344 17.175781 33.4375 17.339844 31.75 L 21.738281 33.707031 L 22.417969 34 L 22.546875 33.273438 C 22.664062 32.730469 22.605469 32.164062 22.382812 31.65625 C 21.152344 30.363281 19.8125 29.1875 18.371094 28.136719 C 18.804688 26.742188 19.015625 23.648438 18.980469 18.910156 L 21.054688 18.980469 L 32.066406 22.429688 L 32.816406 22.664062 L 32.816406 21.867188 C 32.785156 21.066406 32.347656 20.335938 31.65625 19.929688 L 22.957031 14.257812 C 23.4375 13.171875 23.609375 11.972656 23.449219 10.796875 L 23.449219 10.269531 L 20 10.269531 L 20 10.796875 C 19.964844 11.316406 19.964844 11.839844 20 12.355469 L 18.96875 11.722656 C 18.96875 3.269531 18.570312 0.222656 16.460938 0 Z M 16.414062 0 "/>
</svg>
