<?xml version="1.0" encoding="UTF-8"?>
<svg xmlns="http://www.w3.org/2000/svg" xmlns:xlink="http://www.w3.org/1999/xlink" width="39" height="41.785715" viewBox="0 0 39 41.785715">
<path fill-rule="nonzero" fill="rgb(90.196078%, 65.098039%, 6.666667%)" fill-opacity="1" d="M 19.5 41.257812 C 19.179688 41.257812 18.773438 41.035156 18.511719 39.402344 L 12.285156 41.203125 L 12.285156 39 L 17.242188 34.097656 C 16.675781 31.992188 16.6875 23.554688 16.6875 21.40625 L 11.785156 23.105469 L 1.769531 28.917969 L 0.375 31.253906 L 0.375 29.988281 C 0.375 26.8125 0.695312 26.578125 0.792969 26.480469 C 0.890625 26.378906 1.617188 25.769531 5.667969 22.171875 C 5.449219 20.828125 5.414062 19.457031 5.570312 18.105469 L 5.570312 17.800781 L 8.582031 17.800781 L 8.582031 18.121094 C 8.609375 18.707031 8.609375 19.292969 8.582031 19.875 C 9.613281 18.925781 10.476562 18.09375 10.933594 17.636719 C 10.617188 16.195312 10.539062 14.710938 10.710938 13.246094 L 10.710938 12.941406 L 11.035156 12.871094 L 13.746094 12.871094 L 13.746094 13.1875 C 13.78125 13.796875 13.78125 14.40625 13.746094 15.011719 L 14.957031 13.84375 C 15.894531 12.925781 16.433594 12.449219 16.730469 12.1875 C 16.730469 3.496094 17.464844 0.402344 19.515625 0.402344 C 21.226562 0.402344 22.296875 2.382812 22.296875 12.1875 C 22.59375 12.421875 23.121094 12.925781 24.070312 13.84375 L 25.292969 15.027344 C 25.257812 14.417969 25.257812 13.804688 25.292969 13.1875 L 25.292969 12.800781 L 28.332031 12.800781 L 28.332031 13.132812 C 28.511719 14.609375 28.4375 16.113281 28.125 17.566406 C 28.582031 18.007812 29.445312 18.859375 30.476562 19.804688 C 30.441406 19.21875 30.441406 18.628906 30.476562 18.035156 L 30.476562 17.71875 L 33.429688 17.71875 L 33.429688 18.105469 C 33.585938 19.5 33.535156 20.90625 33.289062 22.285156 L 38.164062 26.464844 C 38.289062 26.589844 38.550781 26.828125 38.613281 30.003906 L 38.613281 31.265625 L 37.21875 28.929688 L 27.160156 23.078125 L 22.285156 21.363281 C 22.285156 23.496094 22.386719 31.796875 21.742188 34.054688 L 26.714844 39 L 26.714844 41.242188 L 20.5 39.449219 C 20.226562 41.035156 19.820312 41.257812 19.5 41.257812 Z M 19.5 41.257812 "/>
<path fill-rule="nonzero" fill="rgb(0%, 0%, 0%)" fill-opacity="1" d="M 19.5 0.683594 C 21.003906 0.683594 21.9375 2.925781 21.9375 12.296875 C 22.3125 12.492188 24.808594 15.085938 25.742188 15.835938 C 25.59375 14.945312 25.539062 14.039062 25.585938 13.132812 L 27.953125 13.132812 C 28.128906 14.648438 28.039062 16.179688 27.691406 17.664062 C 28.207031 18.175781 29.445312 19.390625 30.894531 20.683594 C 30.753906 19.8125 30.707031 18.933594 30.753906 18.050781 L 33.125 18.050781 C 33.277344 19.464844 33.21875 20.890625 32.957031 22.285156 C 35.476562 24.527344 37.929688 26.6875 37.96875 26.714844 C 38.1875 27.792969 38.289062 28.890625 38.273438 29.988281 L 37.480469 28.59375 L 27.34375 22.71875 L 21.953125 20.894531 C 21.953125 20.894531 22.160156 32.035156 21.378906 34.152344 L 26.378906 39.097656 L 26.378906 40.742188 L 20.210938 39 C 20.058594 40.183594 19.789062 40.949219 19.5 40.949219 C 19.210938 40.949219 18.941406 40.183594 18.789062 39.015625 L 12.621094 40.753906 L 12.621094 39.097656 L 17.621094 34.152344 C 16.910156 32.371094 17.019531 20.894531 17.019531 20.894531 L 11.65625 22.785156 L 1.53125 28.664062 L 0.738281 30.058594 C 0.726562 28.960938 0.828125 27.859375 1.042969 26.785156 C 1.042969 26.785156 3.523438 24.527344 6.058594 22.285156 C 5.796875 20.90625 5.742188 19.5 5.890625 18.105469 L 8.257812 18.105469 C 8.300781 18.984375 8.253906 19.859375 8.121094 20.726562 C 9.515625 19.429688 10.808594 18.214844 11.324219 17.703125 C 10.972656 16.226562 10.886719 14.699219 11.0625 13.1875 L 13.429688 13.1875 C 13.472656 14.089844 13.421875 14.988281 13.273438 15.878906 C 14.222656 15.046875 16.714844 12.535156 17.0625 12.296875 C 17.0625 2.925781 17.925781 0.683594 19.5 0.683594 M 19.5 0 C 17.199219 0 16.394531 3.023438 16.378906 11.964844 C 16.074219 12.230469 15.585938 12.691406 14.722656 13.539062 L 14.121094 14.121094 C 14.121094 13.566406 14.121094 13.148438 14.121094 13.105469 L 14.121094 12.464844 L 10.378906 12.464844 L 10.378906 13.148438 C 10.210938 14.59375 10.265625 16.050781 10.542969 17.484375 C 10.171875 17.84375 9.613281 18.386719 8.941406 19.011719 C 8.941406 18.484375 8.941406 18.078125 8.941406 18.035156 L 8.941406 17.394531 L 5.207031 17.394531 L 5.207031 18.078125 C 5.070312 19.417969 5.101562 20.765625 5.308594 22.089844 L 0.683594 26.128906 L 0.601562 26.210938 C 0.402344 26.390625 0.136719 26.644531 0.0703125 29.960938 L 0.0703125 32.507812 L 1.378906 30.335938 L 2.089844 29.167969 L 11.953125 23.402344 L 16.351562 21.839844 C 16.257812 25.878906 16.429688 29.925781 16.867188 33.945312 L 12.144531 38.613281 L 11.9375 38.804688 L 11.9375 41.785156 L 12.84375 41.394531 L 18.230469 39.847656 C 18.484375 41.078125 18.871094 41.605469 19.484375 41.605469 C 20.101562 41.605469 20.5 41.0625 20.753906 39.835938 L 26.128906 41.394531 L 27.035156 41.785156 L 27.035156 38.820312 L 26.828125 38.625 L 22.117188 33.957031 C 22.589844 29.941406 22.753906 25.894531 22.621094 21.855469 L 27.019531 23.402344 L 36.949219 29.167969 L 37.660156 30.335938 L 39 32.523438 L 39 29.976562 C 39 26.660156 38.667969 26.410156 38.46875 26.226562 L 38.386719 26.144531 L 33.703125 22.0625 C 33.90625 20.753906 33.941406 19.425781 33.804688 18.105469 L 33.804688 17.421875 L 30.097656 17.421875 L 30.097656 18.0625 C 30.097656 18.0625 30.097656 18.511719 30.097656 19.039062 C 29.429688 18.414062 28.875 17.871094 28.496094 17.511719 C 28.773438 16.089844 28.839844 14.628906 28.675781 13.1875 L 28.675781 12.449219 L 24.933594 12.449219 L 24.933594 13.09375 C 24.933594 13.09375 24.933594 13.554688 24.933594 14.121094 L 24.320312 13.527344 C 23.457031 12.675781 22.925781 12.214844 22.664062 11.953125 C 22.605469 3.132812 21.769531 0 19.5 0 Z M 19.5 0 "/>
</svg>
