<?xml version="1.0" encoding="UTF-8"?>
<svg xmlns="http://www.w3.org/2000/svg" xmlns:xlink="http://www.w3.org/1999/xlink" width="35.7" height="38.25" viewBox="0 0 35.7 38.25">
<path id="mwpbg" fill-rule="nonzero" fill="rgb(255,255,255)" fill-opacity="1" d="M 17.851562 37.765625 C 17.5625 37.765625 17.1875 37.5625 16.945312 36.070312 L 11.246094 37.714844 L 11.246094 35.695312 L 15.78125 31.210938 C 15.261719 29.285156 15.277344 21.558594 15.277344 19.597656 L 10.789062 21.148438 L 1.621094 26.46875 L 0.34375 28.609375 L 0.34375 27.453125 C 0.34375 24.542969 0.636719 24.328125 0.726562 24.242188 C 0.8125 24.144531 1.476562 23.585938 5.191406 20.296875 C 4.988281 19.066406 4.957031 17.808594 5.101562 16.570312 L 5.101562 16.292969 L 7.855469 16.292969 L 7.855469 16.585938 C 7.878906 17.121094 7.878906 17.65625 7.855469 18.191406 C 8.796875 17.324219 9.589844 16.5625 10.007812 16.144531 C 9.71875 14.820312 9.648438 13.46875 9.800781 12.121094 L 9.800781 11.847656 L 10.101562 11.78125 L 12.585938 11.78125 L 12.585938 12.074219 C 12.613281 12.628906 12.613281 13.1875 12.585938 13.742188 L 13.691406 12.671875 C 14.550781 11.832031 15.042969 11.398438 15.316406 11.15625 C 15.316406 3.199219 15.988281 0.367188 17.863281 0.367188 C 19.429688 0.367188 20.410156 2.179688 20.410156 11.15625 C 20.683594 11.371094 21.160156 11.832031 22.035156 12.671875 L 23.15625 13.753906 C 23.121094 13.195312 23.121094 12.632812 23.15625 12.074219 L 23.15625 11.71875 L 25.933594 11.71875 L 25.933594 12.023438 C 26.101562 13.378906 26.027344 14.75 25.742188 16.078125 C 26.164062 16.484375 26.953125 17.261719 27.898438 18.128906 C 27.863281 17.589844 27.863281 17.054688 27.898438 16.511719 L 27.898438 16.21875 L 30.601562 16.21875 L 30.601562 16.570312 C 30.742188 17.851562 30.695312 19.140625 30.472656 20.398438 L 34.9375 24.226562 C 35.050781 24.339844 35.289062 24.554688 35.34375 27.464844 L 35.34375 28.621094 L 34.070312 26.484375 L 24.863281 21.128906 L 20.398438 19.554688 C 20.398438 21.507812 20.488281 29.109375 19.902344 31.171875 L 24.457031 35.695312 L 24.457031 37.753906 L 18.765625 36.113281 C 18.511719 37.5625 18.140625 37.765625 17.851562 37.765625 Z M 17.851562 37.765625 "/>
<path id="mwpfg" fill-rule="nonzero" fill="rgb(0%, 0%, 0%)" fill-opacity="1" d="M 17.851562 0.625 C 19.226562 0.625 20.082031 2.675781 20.082031 11.257812 C 20.421875 11.433594 22.710938 13.808594 23.5625 14.492188 C 23.429688 13.679688 23.378906 12.851562 23.417969 12.023438 L 25.589844 12.023438 C 25.746094 13.40625 25.667969 14.8125 25.34375 16.167969 C 25.820312 16.632812 26.953125 17.75 28.277344 18.933594 C 28.152344 18.140625 28.109375 17.332031 28.152344 16.523438 L 30.316406 16.523438 C 30.460938 17.816406 30.410156 19.121094 30.167969 20.398438 C 32.472656 22.453125 34.71875 24.425781 34.757812 24.457031 C 34.957031 25.441406 35.050781 26.445312 35.035156 27.453125 L 34.308594 26.175781 L 25.03125 20.796875 L 20.089844 19.125 C 20.089844 19.125 20.285156 29.324219 19.570312 31.265625 L 24.144531 35.789062 L 24.144531 37.292969 L 18.5 35.695312 C 18.359375 36.78125 18.117188 37.484375 17.851562 37.484375 C 17.585938 37.484375 17.339844 36.78125 17.199219 35.714844 L 11.550781 37.308594 L 11.550781 35.789062 L 16.128906 31.265625 C 15.480469 29.628906 15.582031 19.125 15.582031 19.125 L 10.671875 20.859375 L 1.40625 26.238281 L 0.675781 27.515625 C 0.664062 26.507812 0.753906 25.503906 0.957031 24.519531 C 0.957031 24.519531 3.222656 22.453125 5.546875 20.398438 C 5.308594 19.140625 5.257812 17.851562 5.390625 16.570312 L 7.558594 16.570312 C 7.597656 17.375 7.558594 18.183594 7.429688 18.976562 C 8.710938 17.785156 9.890625 16.675781 10.367188 16.207031 C 10.046875 14.855469 9.964844 13.453125 10.125 12.074219 L 12.292969 12.074219 C 12.332031 12.894531 12.28125 13.722656 12.148438 14.535156 C 13.019531 13.773438 15.304688 11.476562 15.617188 11.257812 C 15.617188 2.675781 16.410156 0.625 17.851562 0.625 M 17.851562 0 C 15.75 0 15.003906 2.769531 14.992188 10.953125 C 14.710938 11.191406 14.265625 11.613281 13.472656 12.394531 L 12.929688 12.929688 C 12.929688 12.421875 12.929688 12.035156 12.929688 11.996094 L 12.929688 11.410156 L 9.5 11.410156 L 9.5 12.035156 C 9.347656 13.359375 9.398438 14.691406 9.652344 16.003906 C 9.308594 16.332031 8.796875 16.835938 8.1875 17.402344 C 8.1875 16.921875 8.1875 16.546875 8.1875 16.511719 L 8.1875 15.925781 L 4.765625 15.925781 L 4.765625 16.546875 C 4.636719 17.773438 4.671875 19.003906 4.859375 20.21875 L 0.625 23.917969 L 0.550781 23.992188 C 0.367188 24.160156 0.125 24.390625 0.0625 27.425781 L 0.0625 29.757812 L 1.261719 27.769531 L 1.914062 26.699219 L 10.945312 21.421875 L 14.96875 19.996094 C 14.882812 23.691406 15.039062 27.390625 15.4375 31.074219 L 11.121094 35.34375 L 10.925781 35.519531 L 10.925781 38.25 L 11.757812 37.890625 L 16.6875 36.476562 C 16.921875 37.601562 17.277344 38.085938 17.839844 38.085938 C 18.398438 38.085938 18.765625 37.589844 19 36.464844 L 23.917969 37.890625 L 24.746094 38.25 L 24.746094 35.539062 L 24.554688 35.355469 L 20.242188 31.085938 C 20.679688 27.410156 20.828125 23.699219 20.707031 20.003906 L 24.734375 21.421875 L 33.824219 26.699219 L 34.476562 27.769531 L 35.695312 29.773438 L 35.695312 27.4375 C 35.695312 24.40625 35.394531 24.179688 35.214844 24.007812 L 35.140625 23.929688 L 30.851562 20.195312 C 31.039062 19 31.070312 17.785156 30.945312 16.570312 L 30.945312 15.949219 L 27.550781 15.949219 L 27.550781 16.535156 C 27.550781 16.535156 27.550781 16.945312 27.550781 17.425781 C 26.941406 16.855469 26.433594 16.355469 26.085938 16.03125 C 26.339844 14.726562 26.398438 13.390625 26.25 12.074219 L 26.25 11.398438 L 22.824219 11.398438 L 22.824219 11.984375 C 22.824219 11.984375 22.824219 12.40625 22.824219 12.929688 L 22.261719 12.382812 C 21.472656 11.605469 20.984375 11.183594 20.746094 10.945312 C 20.691406 2.867188 19.933594 0 17.851562 0 Z M 17.851562 0 "/>
</svg>
