<?xml version="1.0" encoding="UTF-8"?>
<svg xmlns="http://www.w3.org/2000/svg" xmlns:xlink="http://www.w3.org/1999/xlink" width="33" height="35.357143" viewBox="0 0 33 35.357143">
<path fill-rule="nonzero" fill="rgb(100%, 0%, 0%)" fill-opacity="1" d="M 16.5 34.910156 C 16.230469 34.910156 15.886719 34.722656 15.664062 33.339844 L 10.394531 34.863281 L 10.394531 33 L 14.589844 28.851562 C 14.109375 27.070312 14.121094 19.929688 14.121094 18.113281 L 9.972656 19.550781 L 1.496094 24.46875 L 0.316406 26.445312 L 0.316406 25.375 C 0.316406 22.6875 0.589844 22.488281 0.671875 22.40625 C 0.753906 22.320312 1.367188 21.804688 4.796875 18.761719 C 4.609375 17.625 4.582031 16.464844 4.714844 15.320312 L 4.714844 15.0625 L 7.261719 15.0625 L 7.261719 15.332031 C 7.285156 15.828125 7.285156 16.324219 7.261719 16.816406 C 8.132812 16.015625 8.863281 15.308594 9.25 14.921875 C 8.984375 13.703125 8.917969 12.449219 9.0625 11.207031 L 9.0625 10.949219 L 9.335938 10.890625 L 11.632812 10.890625 L 11.632812 11.160156 C 11.660156 11.675781 11.660156 12.191406 11.632812 12.703125 L 12.65625 11.714844 C 13.449219 10.9375 13.90625 10.535156 14.15625 10.3125 C 14.15625 2.957031 14.777344 0.339844 16.511719 0.339844 C 17.960938 0.339844 18.867188 2.015625 18.867188 10.3125 C 19.117188 10.511719 19.5625 10.9375 20.367188 11.714844 L 21.402344 12.714844 C 21.371094 12.199219 21.371094 11.679688 21.402344 11.160156 L 21.402344 10.832031 L 23.972656 10.832031 L 23.972656 11.113281 C 24.125 12.363281 24.0625 13.632812 23.796875 14.863281 C 24.183594 15.238281 24.914062 15.957031 25.789062 16.757812 C 25.757812 16.261719 25.757812 15.761719 25.789062 15.261719 L 25.789062 14.992188 L 28.285156 14.992188 L 28.285156 15.320312 C 28.417969 16.5 28.375 17.691406 28.167969 18.855469 L 32.292969 22.394531 C 32.398438 22.5 32.621094 22.699219 32.671875 25.386719 L 32.671875 26.457031 L 31.492188 24.480469 L 22.980469 19.527344 L 18.855469 18.078125 C 18.855469 19.882812 18.941406 26.90625 18.398438 28.816406 L 22.605469 33 L 22.605469 34.898438 L 17.347656 33.378906 C 17.113281 34.722656 16.769531 34.910156 16.5 34.910156 Z M 16.5 34.910156 "/>
<path fill-rule="nonzero" fill="rgb(0%, 0%, 0%)" fill-opacity="1" d="M 16.5 0.578125 C 17.773438 0.578125 18.5625 2.476562 18.5625 10.40625 C 18.878906 10.570312 20.992188 12.765625 21.78125 13.398438 C 21.65625 12.644531 21.609375 11.878906 21.648438 11.113281 L 23.652344 11.113281 C 23.800781 12.394531 23.726562 13.691406 23.429688 14.945312 C 23.867188 15.378906 24.914062 16.40625 26.140625 17.5 C 26.023438 16.765625 25.984375 16.019531 26.023438 15.273438 L 28.027344 15.273438 C 28.15625 16.46875 28.109375 17.675781 27.886719 18.855469 C 30.019531 20.753906 32.09375 22.582031 32.128906 22.605469 C 32.3125 23.515625 32.398438 24.445312 32.386719 25.375 L 31.714844 24.195312 L 23.136719 19.222656 L 18.574219 17.679688 C 18.574219 17.679688 18.75 27.105469 18.089844 28.898438 L 22.320312 33.082031 L 22.320312 34.472656 L 17.101562 33 C 16.972656 34 16.746094 34.648438 16.5 34.648438 C 16.253906 34.648438 16.027344 34 15.898438 33.011719 L 10.679688 34.484375 L 10.679688 33.082031 L 14.910156 28.898438 C 14.308594 27.390625 14.402344 17.679688 14.402344 17.679688 L 9.863281 19.28125 L 1.296875 24.253906 L 0.625 25.433594 C 0.613281 24.503906 0.699219 23.574219 0.882812 22.664062 C 0.882812 22.664062 2.980469 20.753906 5.125 18.855469 C 4.90625 17.691406 4.859375 16.5 4.984375 15.320312 L 6.988281 15.320312 C 7.023438 16.0625 6.984375 16.804688 6.871094 17.539062 C 8.050781 16.441406 9.144531 15.414062 9.582031 14.980469 C 9.285156 13.730469 9.210938 12.4375 9.359375 11.160156 L 11.363281 11.160156 C 11.398438 11.921875 11.355469 12.683594 11.230469 13.4375 C 12.035156 12.730469 14.144531 10.605469 14.4375 10.40625 C 14.4375 2.476562 15.167969 0.578125 16.5 0.578125 M 16.5 0 C 14.554688 0 13.871094 2.558594 13.859375 10.125 C 13.601562 10.347656 13.1875 10.738281 12.457031 11.457031 L 11.949219 11.949219 C 11.949219 11.480469 11.949219 11.125 11.949219 11.089844 L 11.949219 10.546875 L 8.78125 10.546875 L 8.78125 11.125 C 8.640625 12.347656 8.6875 13.582031 8.921875 14.792969 C 8.605469 15.097656 8.132812 15.558594 7.566406 16.085938 C 7.566406 15.640625 7.566406 15.296875 7.566406 15.261719 L 7.566406 14.71875 L 4.40625 14.71875 L 4.40625 15.296875 C 4.289062 16.429688 4.316406 17.570312 4.492188 18.691406 L 0.578125 22.109375 L 0.507812 22.179688 C 0.339844 22.332031 0.117188 22.546875 0.0585938 25.351562 L 0.0585938 27.507812 L 1.167969 25.667969 L 1.769531 24.679688 L 10.113281 19.800781 L 13.835938 18.480469 C 13.757812 21.898438 13.902344 25.320312 14.273438 28.722656 L 10.277344 32.671875 L 10.101562 32.835938 L 10.101562 35.355469 L 10.867188 35.027344 L 15.425781 33.71875 C 15.640625 34.757812 15.96875 35.203125 16.488281 35.203125 C 17.007812 35.203125 17.347656 34.746094 17.5625 33.707031 L 22.109375 35.027344 L 22.875 35.355469 L 22.875 32.847656 L 22.699219 32.683594 L 18.714844 28.734375 C 19.113281 25.335938 19.253906 21.910156 19.140625 18.492188 L 22.863281 19.800781 L 31.265625 24.679688 L 31.867188 25.667969 L 33 27.519531 L 33 25.363281 C 33 22.558594 32.71875 22.347656 32.550781 22.191406 L 32.480469 22.121094 L 28.519531 18.667969 C 28.691406 17.5625 28.71875 16.4375 28.605469 15.320312 L 28.605469 14.742188 L 25.46875 14.742188 L 25.46875 15.285156 C 25.46875 15.285156 25.46875 15.664062 25.46875 16.109375 C 24.902344 15.582031 24.433594 15.121094 24.113281 14.816406 C 24.347656 13.613281 24.402344 12.378906 24.265625 11.160156 L 24.265625 10.535156 L 21.097656 10.535156 L 21.097656 11.078125 C 21.097656 11.078125 21.097656 11.46875 21.097656 11.949219 L 20.578125 11.445312 C 19.847656 10.726562 19.398438 10.335938 19.175781 10.113281 C 19.128906 2.652344 18.421875 0 16.5 0 Z M 16.5 0 "/>
</svg>
