<?xml version="1.0" encoding="UTF-8"?>
<svg xmlns="http://www.w3.org/2000/svg" xmlns:xlink="http://www.w3.org/1999/xlink" width="35.466666" height="38" viewBox="0 0 35.466666 38">
<path fill-rule="nonzero" fill="rgb(100%, 0%, 0%)" fill-opacity="1" d="M 17.734375 37.519531 C 17.445312 37.519531 17.074219 37.316406 16.835938 35.832031 L 11.171875 37.46875 L 11.171875 35.464844 L 15.679688 31.007812 C 15.164062 29.09375 15.175781 21.417969 15.175781 19.46875 L 10.71875 21.011719 L 1.609375 26.296875 L 0.339844 28.421875 L 0.339844 27.273438 C 0.339844 24.382812 0.632812 24.167969 0.722656 24.082031 C 0.808594 23.988281 1.46875 23.433594 5.15625 20.164062 C 4.953125 18.941406 4.925781 17.695312 5.066406 16.464844 L 5.066406 16.1875 L 7.804688 16.1875 L 7.804688 16.476562 C 7.828125 17.011719 7.828125 17.542969 7.804688 18.074219 C 8.742188 17.210938 9.527344 16.453125 9.941406 16.039062 C 9.65625 14.726562 9.585938 13.378906 9.738281 12.042969 L 9.738281 11.769531 L 10.035156 11.703125 L 12.503906 11.703125 L 12.503906 11.996094 C 12.53125 12.546875 12.53125 13.101562 12.503906 13.652344 L 13.601562 12.589844 C 14.453125 11.753906 14.945312 11.324219 15.214844 11.082031 C 15.214844 3.179688 15.882812 0.367188 17.746094 0.367188 C 19.304688 0.367188 20.277344 2.167969 20.277344 11.082031 C 20.546875 11.296875 21.023438 11.753906 21.890625 12.589844 L 23.003906 13.664062 C 22.96875 13.109375 22.96875 12.550781 23.003906 11.996094 L 23.003906 11.640625 L 25.765625 11.640625 L 25.765625 11.945312 C 25.929688 13.289062 25.859375 14.652344 25.574219 15.972656 C 25.992188 16.378906 26.777344 17.148438 27.714844 18.011719 C 27.683594 17.476562 27.683594 16.941406 27.714844 16.402344 L 27.714844 16.113281 L 30.398438 16.113281 L 30.398438 16.464844 C 30.542969 17.734375 30.496094 19.015625 30.273438 20.265625 L 34.707031 24.070312 C 34.820312 24.183594 35.058594 24.394531 35.113281 27.285156 L 35.113281 28.433594 L 33.847656 26.308594 L 24.699219 20.988281 L 20.265625 19.429688 C 20.265625 21.367188 20.355469 28.917969 19.773438 30.96875 L 24.296875 35.464844 L 24.296875 37.507812 L 18.644531 35.875 C 18.390625 37.316406 18.023438 37.519531 17.734375 37.519531 Z M 17.734375 37.519531 "/>
<path fill-rule="nonzero" fill="rgb(0%, 0%, 0%)" fill-opacity="1" d="M 17.734375 0.621094 C 19.101562 0.621094 19.949219 2.660156 19.949219 11.183594 C 20.289062 11.359375 22.5625 13.71875 23.410156 14.398438 C 23.273438 13.589844 23.226562 12.765625 23.265625 11.945312 L 25.421875 11.945312 C 25.578125 13.320312 25.5 14.714844 25.179688 16.0625 C 25.652344 16.527344 26.777344 17.632812 28.09375 18.808594 C 27.96875 18.019531 27.925781 17.21875 27.96875 16.414062 L 30.121094 16.414062 C 30.261719 17.699219 30.210938 18.996094 29.972656 20.265625 C 32.261719 22.304688 34.492188 24.269531 34.53125 24.296875 C 34.726562 25.273438 34.820312 26.273438 34.808594 27.273438 L 34.085938 26.003906 L 24.867188 20.660156 L 19.960938 19 C 19.960938 19 20.152344 29.132812 19.441406 31.058594 L 23.988281 35.554688 L 23.988281 37.050781 L 18.378906 35.464844 C 18.242188 36.542969 17.996094 37.238281 17.734375 37.238281 C 17.46875 37.238281 17.226562 36.542969 17.085938 35.480469 L 11.476562 37.0625 L 11.476562 35.554688 L 16.023438 31.058594 C 15.378906 29.4375 15.480469 19 15.480469 19 L 10.601562 20.722656 L 1.394531 26.066406 L 0.671875 27.335938 C 0.660156 26.335938 0.75 25.335938 0.949219 24.359375 C 0.949219 24.359375 3.203125 22.304688 5.507812 20.265625 C 5.273438 19.015625 5.222656 17.734375 5.355469 16.464844 L 7.511719 16.464844 C 7.546875 17.261719 7.507812 18.0625 7.382812 18.851562 C 8.652344 17.671875 9.828125 16.566406 10.296875 16.101562 C 9.980469 14.757812 9.898438 13.367188 10.058594 11.996094 L 12.210938 11.996094 C 12.25 12.8125 12.203125 13.632812 12.070312 14.441406 C 12.933594 13.683594 15.203125 11.398438 15.515625 11.183594 C 15.515625 2.660156 16.300781 0.621094 17.734375 0.621094 M 17.734375 0 C 15.644531 0 14.90625 2.75 14.894531 10.882812 C 14.617188 11.121094 14.171875 11.539062 13.386719 12.3125 L 12.84375 12.84375 C 12.84375 12.339844 12.84375 11.957031 12.84375 11.917969 L 12.84375 11.335938 L 9.4375 11.335938 L 9.4375 11.957031 C 9.285156 13.269531 9.335938 14.597656 9.589844 15.898438 C 9.25 16.226562 8.742188 16.722656 8.132812 17.289062 C 8.132812 16.808594 8.132812 16.441406 8.132812 16.402344 L 8.132812 15.820312 L 4.734375 15.820312 L 4.734375 16.441406 C 4.609375 17.65625 4.640625 18.882812 4.828125 20.089844 L 0.621094 23.761719 L 0.546875 23.835938 C 0.367188 24 0.125 24.230469 0.0625 27.246094 L 0.0625 29.5625 L 1.253906 27.585938 L 1.902344 26.523438 L 10.871094 21.28125 L 14.871094 19.863281 C 14.785156 23.535156 14.941406 27.214844 15.339844 30.871094 L 11.046875 35.113281 L 10.855469 35.289062 L 10.855469 38 L 11.679688 37.644531 L 16.578125 36.238281 C 16.808594 37.355469 17.164062 37.835938 17.722656 37.835938 C 18.277344 37.835938 18.644531 37.34375 18.875 36.226562 L 23.761719 37.644531 L 24.585938 38 L 24.585938 35.304688 L 24.394531 35.125 L 20.113281 30.882812 C 20.542969 27.230469 20.691406 23.546875 20.570312 19.875 L 24.570312 21.28125 L 33.601562 26.523438 L 34.25 27.585938 L 35.464844 29.578125 L 35.464844 27.257812 C 35.464844 24.246094 35.164062 24.019531 34.984375 23.851562 L 34.910156 23.773438 L 30.652344 20.0625 C 30.835938 18.875 30.867188 17.667969 30.742188 16.464844 L 30.742188 15.84375 L 27.371094 15.84375 L 27.371094 16.425781 C 27.371094 16.425781 27.371094 16.835938 27.371094 17.3125 C 26.765625 16.746094 26.261719 16.25 25.914062 15.925781 C 26.167969 14.628906 26.226562 13.304688 26.078125 11.996094 L 26.078125 11.324219 L 22.675781 11.324219 L 22.675781 11.90625 C 22.675781 11.90625 22.675781 12.324219 22.675781 12.84375 L 22.117188 12.300781 C 21.332031 11.527344 20.847656 11.109375 20.609375 10.871094 C 20.558594 2.851562 19.800781 0 17.734375 0 Z M 17.734375 0 "/>
</svg>
