<?xml version="1.0" encoding="UTF-8"?>
<svg xmlns="http://www.w3.org/2000/svg" xmlns:xlink="http://www.w3.org/1999/xlink" width="17.857143" height="25" viewBox="0 0 17.857143 25">
<path fill-rule="nonzero" fill="rgb(90.196078%, 65.098039%, 6.666667%)" fill-opacity="1" d="M 3.738281 24.714844 L 3.738281 22.808594 L 6.796875 20.785156 L 6.796875 19.167969 L 0.308594 19.167969 L 0.308594 14.582031 L 1.917969 14.582031 L 1.917969 15.976562 L 6.285156 11.785156 C 6.453125 10.40625 7.476562 2.035156 8.667969 0.714844 L 8.929688 0.453125 L 9.167969 0.714844 C 10.355469 2.046875 11.417969 10.40625 11.546875 11.785156 L 15.917969 15.976562 L 15.917969 14.582031 L 17.523438 14.582031 L 17.523438 19.167969 L 11.058594 19.167969 L 11.058594 20.773438 L 14.117188 22.796875 L 14.117188 24.703125 Z M 3.738281 24.714844 "/>
<path fill-rule="nonzero" fill="rgb(0%, 0%, 0%)" fill-opacity="1" d="M 8.929688 0.90625 C 10.117188 2.238281 11.308594 11.929688 11.308594 11.929688 L 16.273438 16.691406 L 16.273438 14.882812 L 17.273438 14.882812 L 17.273438 18.882812 L 10.714844 18.882812 L 10.714844 20.929688 L 13.773438 22.953125 L 13.773438 24.417969 L 4.046875 24.417969 L 4.046875 22.953125 L 7.144531 20.929688 L 7.144531 18.882812 L 0.605469 18.882812 L 0.605469 14.882812 L 1.605469 14.882812 L 1.605469 16.667969 L 6.570312 11.90625 C 6.570312 11.90625 7.761719 2.226562 8.953125 0.882812 M 8.929688 0 L 8.464844 0.523438 C 7.273438 1.882812 6.238281 9.632812 5.953125 11.65625 L 2.179688 15.226562 L 2.179688 14.285156 L 0 14.285156 L 0 19.453125 L 6.488281 19.453125 L 6.488281 20.644531 L 3.703125 22.476562 L 3.441406 22.617188 L 3.441406 25 L 14.429688 25 L 14.429688 22.617188 L 14.167969 22.441406 L 11.367188 20.617188 L 11.367188 19.429688 L 17.855469 19.429688 L 17.855469 14.285156 L 15.644531 14.285156 L 15.644531 15.261719 L 11.90625 11.65625 C 11.617188 9.632812 10.582031 1.882812 9.394531 0.523438 Z M 8.929688 0 "/>
</svg>
