<?xml version="1.0" encoding="UTF-8"?>
<svg xmlns="http://www.w3.org/2000/svg" xmlns:xlink="http://www.w3.org/1999/xlink" width="19.428574" height="27.200001" viewBox="0 0 19.428574 27.200001">
<path id="mwpbg" fill-rule="nonzero" fill="rgb(255,255,255)" fill-opacity="1" d="M 4.066406 26.890625 L 4.066406 24.816406 L 7.394531 22.613281 L 7.394531 20.855469 L 0.335938 20.855469 L 0.335938 15.863281 L 2.082031 15.863281 L 2.082031 17.382812 L 6.835938 12.820312 C 7.023438 11.320312 8.132812 2.214844 9.429688 0.777344 L 9.714844 0.492188 L 9.972656 0.777344 C 11.265625 2.230469 12.421875 11.320312 12.5625 12.820312 L 17.320312 17.382812 L 17.320312 15.863281 L 19.066406 15.863281 L 19.066406 20.855469 L 12.03125 20.855469 L 12.03125 22.601562 L 15.359375 24.804688 L 15.359375 26.878906 Z M 4.066406 26.890625 "/>
<path id="mwpfg" fill-rule="nonzero" fill="rgb(0%, 0%, 0%)" fill-opacity="1" d="M 9.714844 0.984375 C 11.007812 2.4375 12.300781 12.976562 12.300781 12.976562 L 17.707031 18.15625 L 17.707031 16.195312 L 18.792969 16.195312 L 18.792969 20.542969 L 11.660156 20.542969 L 11.660156 22.769531 L 14.984375 24.972656 L 14.984375 26.566406 L 4.402344 26.566406 L 4.402344 24.972656 L 7.773438 22.769531 L 7.773438 20.542969 L 0.660156 20.542969 L 0.660156 16.195312 L 1.746094 16.195312 L 1.746094 18.132812 L 7.148438 12.953125 C 7.148438 12.953125 8.445312 2.417969 9.742188 0.957031 M 9.714844 0 L 9.210938 0.574219 C 7.914062 2.050781 6.785156 10.480469 6.476562 12.683594 L 2.375 16.5625 L 2.375 15.542969 L 0 15.542969 L 0 21.167969 L 7.058594 21.167969 L 7.058594 22.460938 L 4.03125 24.453125 L 3.742188 24.609375 L 3.742188 27.203125 L 15.699219 27.203125 L 15.699219 24.609375 L 15.414062 24.417969 L 12.367188 22.433594 L 12.367188 21.136719 L 19.429688 21.136719 L 19.429688 15.542969 L 17.019531 15.542969 L 17.019531 16.601562 L 12.953125 12.683594 C 12.640625 10.480469 11.511719 2.050781 10.222656 0.574219 Z M 9.714844 0 "/>
</svg>
