<?xml version="1.0" encoding="UTF-8"?>
<svg xmlns="http://www.w3.org/2000/svg" xmlns:xlink="http://www.w3.org/1999/xlink" width="21" height="29.399999" viewBox="0 0 21 29.399999">
<path fill-rule="nonzero" fill="rgb(100%, 0%, 0%)" fill-opacity="1" d="M 4.394531 29.066406 L 4.394531 26.824219 L 7.992188 24.441406 L 7.992188 22.542969 L 0.363281 22.542969 L 0.363281 17.148438 L 2.253906 17.148438 L 2.253906 18.789062 L 7.390625 13.859375 C 7.589844 12.238281 8.792969 2.394531 10.195312 0.839844 L 10.5 0.53125 L 10.78125 0.839844 C 12.179688 2.40625 13.425781 12.238281 13.578125 13.859375 L 18.71875 18.789062 L 18.71875 17.148438 L 20.609375 17.148438 L 20.609375 22.542969 L 13.003906 22.542969 L 13.003906 24.429688 L 16.601562 26.808594 L 16.601562 29.050781 Z M 4.394531 29.066406 "/>
<path fill-rule="nonzero" fill="rgb(0%, 0%, 0%)" fill-opacity="1" d="M 10.5 1.066406 C 11.898438 2.632812 13.300781 14.03125 13.300781 14.03125 L 19.136719 19.628906 L 19.136719 17.503906 L 20.3125 17.503906 L 20.3125 22.207031 L 12.601562 22.207031 L 12.601562 24.613281 L 16.199219 26.992188 L 16.199219 28.714844 L 4.757812 28.714844 L 4.757812 26.992188 L 8.402344 24.613281 L 8.402344 22.207031 L 0.710938 22.207031 L 0.710938 17.503906 L 1.886719 17.503906 L 1.886719 19.601562 L 7.726562 14 C 7.726562 14 9.128906 2.617188 10.527344 1.039062 M 10.5 0 L 9.953125 0.617188 C 8.554688 2.214844 7.335938 11.328125 7 13.707031 L 2.5625 17.90625 L 2.5625 16.800781 L 0 16.800781 L 0 22.875 L 7.628906 22.875 L 7.628906 24.277344 L 4.355469 26.433594 L 4.046875 26.597656 L 4.046875 29.398438 L 16.96875 29.398438 L 16.96875 26.597656 L 16.660156 26.390625 L 13.367188 24.246094 L 13.367188 22.847656 L 20.996094 22.847656 L 20.996094 16.800781 L 18.398438 16.800781 L 18.398438 17.949219 L 14 13.707031 C 13.660156 11.328125 12.445312 2.214844 11.046875 0.617188 Z M 10.5 0 "/>
</svg>
