<?xml version="1.0" encoding="UTF-8"?>
<svg xmlns="http://www.w3.org/2000/svg" xmlns:xlink="http://www.w3.org/1999/xlink" width="19" height="26.599999" viewBox="0 0 19 26.599999">
<path fill-rule="nonzero" fill="rgb(100%, 0%, 0%)" fill-opacity="1" d="M 3.976562 26.296875 L 3.976562 24.269531 L 7.230469 22.117188 L 7.230469 20.394531 L 0.328125 20.394531 L 0.328125 15.515625 L 2.039062 15.515625 L 2.039062 17 L 6.6875 12.539062 C 6.867188 11.070312 7.953125 2.164062 9.222656 0.761719 L 9.5 0.480469 L 9.753906 0.761719 C 11.019531 2.179688 12.148438 11.070312 12.285156 12.539062 L 16.9375 17 L 16.9375 15.515625 L 18.644531 15.515625 L 18.644531 20.394531 L 11.765625 20.394531 L 11.765625 22.101562 L 15.019531 24.257812 L 15.019531 26.285156 Z M 3.976562 26.296875 "/>
<path fill-rule="nonzero" fill="rgb(0%, 0%, 0%)" fill-opacity="1" d="M 9.5 0.964844 C 10.765625 2.382812 12.03125 12.691406 12.03125 12.691406 L 17.316406 17.757812 L 17.316406 15.835938 L 18.378906 15.835938 L 18.378906 20.089844 L 11.402344 20.089844 L 11.402344 22.269531 L 14.65625 24.421875 L 14.65625 25.980469 L 4.304688 25.980469 L 4.304688 24.421875 L 7.601562 22.269531 L 7.601562 20.089844 L 0.644531 20.089844 L 0.644531 15.835938 L 1.707031 15.835938 L 1.707031 17.734375 L 6.992188 12.667969 C 6.992188 12.667969 8.257812 2.367188 9.527344 0.9375 M 9.5 0 L 9.007812 0.558594 C 7.738281 2.003906 6.636719 10.25 6.335938 12.402344 L 2.320312 16.199219 L 2.320312 15.199219 L 0 15.199219 L 0 20.699219 L 6.902344 20.699219 L 6.902344 21.964844 L 3.941406 23.914062 L 3.660156 24.066406 L 3.660156 26.601562 L 15.351562 26.601562 L 15.351562 24.066406 L 15.074219 23.878906 L 12.09375 21.9375 L 12.09375 20.671875 L 19 20.671875 L 19 15.199219 L 16.644531 15.199219 L 16.644531 16.238281 L 12.667969 12.402344 C 12.359375 10.25 11.257812 2.003906 9.996094 0.558594 Z M 9.5 0 "/>
</svg>
