<?xml version="1.0" encoding="UTF-8"?>
<svg xmlns="http://www.w3.org/2000/svg" xmlns:xlink="http://www.w3.org/1999/xlink" width="18.666667" height="21" viewBox="0 0 18.666667 21">
<path fill-rule="nonzero" fill="rgb(90.196078%, 65.098039%, 6.666667%)" fill-opacity="1" d="M 9.332031 20.707031 C 7.722656 20.707031 6.464844 19.972656 6.464844 19.039062 C 6.464844 18.339844 7.140625 17.757812 8.203125 17.5 L 8.203125 14.070312 C 7.546875 13.207031 7.132812 12.191406 7 11.117188 L 1.285156 15.867188 L 0.410156 14.699219 L 6.742188 9.4375 C 6.742188 9.148438 6.742188 8.84375 6.742188 8.539062 C 6.742188 7.957031 6.777344 7.378906 6.847656 6.800781 L 0.441406 1.445312 L 1.261719 0.410156 L 7.09375 5.308594 C 7.558594 3.5 8.363281 2.449219 9.332031 2.449219 C 10.300781 2.449219 11.105469 3.617188 11.5625 5.449219 L 17.394531 0.535156 L 18.269531 1.703125 L 11.785156 7.082031 C 11.832031 7.5625 11.855469 8.046875 11.851562 8.527344 C 11.851562 8.785156 11.851562 9.042969 11.851562 9.285156 L 18.234375 14.640625 L 17.417969 15.679688 L 11.667969 10.863281 C 11.578125 11.417969 11.441406 11.964844 11.257812 12.496094 C 11.117188 12.957031 10.898438 13.394531 10.617188 13.789062 L 10.5 14 L 10.5 17.5 C 11.5625 17.757812 12.238281 18.339844 12.238281 19.039062 C 12.203125 19.972656 10.941406 20.707031 9.332031 20.707031 Z M 9.332031 20.707031 "/>
<path fill-rule="nonzero" fill="rgb(0%, 0%, 0%)" fill-opacity="1" d="M 1.308594 0.828125 L 7.269531 5.832031 C 7.652344 4 8.433594 2.742188 9.285156 2.742188 C 10.136719 2.742188 10.964844 4.058594 11.339844 5.972656 L 17.347656 0.957031 L 17.875 1.621094 L 11.480469 7 C 11.539062 7.523438 11.570312 8.046875 11.574219 8.574219 C 11.574219 8.878906 11.574219 9.171875 11.574219 9.460938 L 17.851562 14.722656 L 17.394531 15.308594 L 11.457031 10.3125 C 11.371094 11.019531 11.210938 11.714844 10.976562 12.390625 C 10.839844 12.808594 10.632812 13.203125 10.371094 13.558594 L 10.160156 13.8125 L 10.160156 17.734375 C 11.175781 17.921875 11.898438 18.433594 11.898438 19.027344 C 11.898438 19.625 10.757812 20.417969 9.332031 20.417969 C 7.910156 20.417969 6.742188 19.832031 6.742188 19.039062 C 6.742188 18.246094 7.464844 17.875 8.480469 17.746094 L 8.480469 14 C 7.699219 13.023438 7.234375 11.828125 7.152344 10.582031 L 1.316406 15.457031 L 0.792969 14.792969 L 7 9.566406 C 7 9.226562 7 8.890625 7 8.527344 C 6.996094 7.90625 7.035156 7.289062 7.117188 6.671875 L 0.851562 1.410156 L 1.308594 0.828125 M 1.167969 0 L 0.863281 0.453125 L 0.410156 1.039062 L 0 1.492188 L 0.441406 1.867188 L 6.523438 6.929688 C 6.464844 7.464844 6.4375 8.003906 6.441406 8.539062 C 6.441406 8.785156 6.441406 9.042969 6.441406 9.308594 L 0.441406 14.328125 L 0 14.699219 L 0.363281 15.167969 L 0.886719 15.832031 L 1.25 16.285156 L 1.691406 15.914062 L 6.777344 11.667969 C 6.964844 12.59375 7.363281 13.464844 7.945312 14.210938 L 7.945312 17.265625 C 6.871094 17.582031 6.207031 18.246094 6.207031 19.027344 C 6.183594 20.160156 7.535156 21 9.332031 21 C 11.128906 21 12.484375 20.160156 12.484375 19.039062 C 12.484375 18.257812 11.816406 17.59375 10.746094 17.277344 L 10.746094 14.082031 L 10.839844 14 C 11.136719 13.582031 11.367188 13.117188 11.515625 12.625 C 11.648438 12.242188 11.757812 11.851562 11.839844 11.457031 L 17 15.785156 L 17.441406 16.160156 L 17.804688 15.703125 L 18.257812 15.121094 L 18.621094 14.664062 L 18.175781 14.292969 L 12.121094 9.160156 C 12.121094 8.960938 12.121094 8.75 12.121094 8.539062 C 12.121094 8.109375 12.121094 7.664062 12.0625 7.222656 L 18.199219 2.089844 L 18.667969 1.714844 L 18.304688 1.261719 L 17.792969 0.582031 L 17.429688 0.128906 L 16.988281 0.5 L 11.667969 4.933594 C 11.164062 3.183594 10.300781 2.160156 9.332031 2.160156 C 8.363281 2.160156 7.5 3.125 7 4.808594 L 1.65625 0.375 Z M 1.167969 0 "/>
</svg>
