<?xml version="1.0" encoding="UTF-8"?>
<svg xmlns="http://www.w3.org/2000/svg" xmlns:xlink="http://www.w3.org/1999/xlink" width="22" height="24.749998" viewBox="0 0 22 24.749998">
<path fill-rule="nonzero" fill="rgb(90.196078%, 65.098039%, 6.666667%)" fill-opacity="1" d="M 11 24.40625 C 9.101562 24.40625 7.621094 23.539062 7.621094 22.4375 C 7.621094 21.613281 8.414062 20.929688 9.667969 20.625 L 9.667969 16.582031 C 8.894531 15.566406 8.40625 14.367188 8.25 13.101562 L 1.515625 18.699219 L 0.484375 17.324219 L 7.945312 11.121094 C 7.945312 10.78125 7.945312 10.421875 7.945312 10.0625 C 7.945312 9.378906 7.988281 8.695312 8.070312 8.015625 L 0.519531 1.703125 L 1.488281 0.484375 L 8.359375 6.257812 C 8.910156 4.125 9.855469 2.886719 11 2.886719 C 12.140625 2.886719 13.089844 4.261719 13.628906 6.421875 L 20.5 0.628906 L 21.53125 2.007812 L 13.890625 8.347656 C 13.945312 8.914062 13.972656 9.484375 13.96875 10.050781 C 13.96875 10.355469 13.96875 10.65625 13.96875 10.941406 L 21.492188 17.253906 L 20.527344 18.480469 L 13.75 12.804688 C 13.644531 13.457031 13.484375 14.101562 13.269531 14.726562 C 13.101562 15.269531 12.84375 15.785156 12.511719 16.25 L 12.375 16.5 L 12.375 20.625 C 13.628906 20.929688 14.421875 21.613281 14.421875 22.4375 C 14.382812 23.539062 12.894531 24.40625 11 24.40625 Z M 11 24.40625 "/>
<path fill-rule="nonzero" fill="rgb(0%, 0%, 0%)" fill-opacity="1" d="M 1.542969 0.976562 L 8.566406 6.875 C 9.019531 4.714844 9.941406 3.230469 10.941406 3.230469 C 11.945312 3.230469 12.921875 4.785156 13.363281 7.039062 L 20.445312 1.128906 L 21.066406 1.910156 L 13.53125 8.25 C 13.597656 8.867188 13.636719 9.484375 13.640625 10.105469 C 13.640625 10.464844 13.640625 10.808594 13.640625 11.148438 L 21.039062 17.351562 L 20.5 18.042969 L 13.503906 12.152344 C 13.402344 12.988281 13.210938 13.808594 12.9375 14.601562 C 12.777344 15.097656 12.53125 15.5625 12.222656 15.980469 L 11.972656 16.277344 L 11.972656 20.902344 C 13.171875 21.121094 14.023438 21.726562 14.023438 22.425781 C 14.023438 23.128906 12.679688 24.0625 11 24.0625 C 9.324219 24.0625 7.945312 23.375 7.945312 22.4375 C 7.945312 21.503906 8.796875 21.066406 9.996094 20.914062 L 9.996094 16.5 C 9.074219 15.347656 8.527344 13.941406 8.429688 12.472656 L 1.550781 18.21875 L 0.933594 17.433594 L 8.25 11.273438 C 8.25 10.875 8.25 10.476562 8.25 10.050781 C 8.246094 9.316406 8.292969 8.589844 8.386719 7.863281 L 1.003906 1.660156 L 1.542969 0.976562 M 1.375 0 L 1.015625 0.535156 L 0.484375 1.222656 L 0 1.757812 L 0.519531 2.199219 L 7.6875 8.167969 C 7.621094 8.796875 7.585938 9.433594 7.589844 10.0625 C 7.589844 10.355469 7.589844 10.65625 7.589844 10.972656 L 0.519531 16.886719 L 0 17.324219 L 0.429688 17.875 L 1.046875 18.660156 L 1.472656 19.191406 L 1.992188 18.753906 L 7.988281 13.75 C 8.207031 14.84375 8.679688 15.871094 9.363281 16.75 L 9.363281 20.347656 C 8.097656 20.722656 7.316406 21.503906 7.316406 22.425781 C 7.289062 23.761719 8.878906 24.75 11 24.75 C 13.117188 24.75 14.714844 23.761719 14.714844 22.4375 C 14.714844 21.519531 13.925781 20.734375 12.664062 20.363281 L 12.664062 16.597656 L 12.777344 16.5 C 13.125 16.007812 13.398438 15.460938 13.570312 14.878906 C 13.726562 14.429688 13.855469 13.96875 13.953125 13.503906 L 20.035156 18.605469 L 20.554688 19.046875 L 20.984375 18.507812 L 21.519531 17.820312 L 21.945312 17.28125 L 21.421875 16.84375 L 14.285156 10.796875 C 14.285156 10.5625 14.285156 10.3125 14.285156 10.0625 C 14.285156 9.558594 14.285156 9.03125 14.214844 8.511719 L 21.449219 2.464844 L 22 2.019531 L 21.574219 1.488281 L 20.96875 0.6875 L 20.542969 0.152344 L 20.023438 0.589844 L 13.75 5.816406 C 13.15625 3.753906 12.140625 2.546875 11 2.546875 C 9.855469 2.546875 8.839844 3.683594 8.25 5.667969 L 1.953125 0.441406 Z M 1.375 0 "/>
</svg>
