<?xml version="1.0" encoding="UTF-8"?>
<svg xmlns="http://www.w3.org/2000/svg" xmlns:xlink="http://www.w3.org/1999/xlink" width="19.549999" height="21.993748" viewBox="0 0 19.549999 21.993748">
<path id="mwpbg"  fill-rule="nonzero" fill="rgb(255,255,255)" fill-opacity="1" d="M 9.777344 21.691406 C 8.085938 21.691406 6.769531 20.917969 6.769531 19.9375 C 6.769531 19.207031 7.480469 18.597656 8.589844 18.328125 L 8.589844 14.734375 C 7.90625 13.832031 7.46875 12.769531 7.332031 11.640625 L 1.34375 16.617188 L 0.425781 15.394531 L 7.058594 9.886719 C 7.058594 9.582031 7.058594 9.265625 7.058594 8.941406 C 7.058594 8.332031 7.097656 7.730469 7.171875 7.121094 L 0.460938 1.511719 L 1.320312 0.425781 L 7.429688 5.558594 C 7.914062 3.664062 8.761719 2.5625 9.777344 2.5625 C 10.789062 2.5625 11.628906 3.789062 12.109375 5.707031 L 18.21875 0.558594 L 19.136719 1.785156 L 12.339844 7.417969 C 12.390625 7.917969 12.417969 8.429688 12.414062 8.929688 C 12.414062 9.203125 12.414062 9.46875 12.414062 9.722656 L 19.097656 15.335938 L 18.242188 16.425781 L 12.21875 11.378906 C 12.128906 11.960938 11.980469 12.53125 11.789062 13.085938 C 11.640625 13.570312 11.414062 14.027344 11.121094 14.441406 L 10.996094 14.664062 L 10.996094 18.328125 C 12.109375 18.597656 12.820312 19.207031 12.820312 19.9375 C 12.78125 20.917969 11.457031 21.691406 9.777344 21.691406 Z M 9.777344 21.691406 "/>
<path id="mwpfg" fill-rule="nonzero" fill="rgb(0%, 0%, 0%)" fill-opacity="1" d="M 1.371094 0.867188 L 7.613281 6.109375 C 8.015625 4.1875 8.832031 2.871094 9.722656 2.871094 C 10.617188 2.871094 11.480469 4.25 11.875 6.253906 L 18.167969 1 L 18.722656 1.699219 L 12.023438 7.332031 C 12.085938 7.882812 12.117188 8.429688 12.121094 8.980469 C 12.121094 9.296875 12.121094 9.605469 12.121094 9.910156 L 18.695312 15.417969 L 18.21875 16.035156 L 12 10.800781 C 11.910156 11.539062 11.742188 12.269531 11.496094 12.976562 C 11.351562 13.414062 11.132812 13.828125 10.863281 14.203125 L 10.640625 14.46875 L 10.640625 18.570312 C 11.703125 18.769531 12.464844 19.304688 12.464844 19.929688 C 12.464844 20.554688 11.269531 21.382812 9.777344 21.382812 C 8.285156 21.382812 7.058594 20.773438 7.058594 19.9375 C 7.058594 19.113281 7.816406 18.722656 8.882812 18.585938 L 8.882812 14.664062 C 8.0625 13.640625 7.574219 12.386719 7.492188 11.082031 L 1.378906 16.191406 L 0.832031 15.492188 L 7.332031 10.019531 C 7.332031 9.664062 7.332031 9.3125 7.332031 8.929688 C 7.328125 8.28125 7.371094 7.632812 7.453125 6.988281 L 0.894531 1.476562 L 1.371094 0.867188 M 1.21875 0 L 0.90625 0.472656 L 0.425781 1.085938 L 0 1.5625 L 0.460938 1.957031 L 6.832031 7.261719 C 6.769531 7.816406 6.742188 8.378906 6.746094 8.941406 C 6.746094 9.203125 6.746094 9.46875 6.746094 9.75 L 0.460938 15.003906 L 0 15.394531 L 0.378906 15.882812 L 0.925781 16.582031 L 1.308594 17.054688 L 1.769531 16.667969 L 7.097656 12.21875 C 7.292969 13.191406 7.710938 14.101562 8.320312 14.886719 L 8.320312 18.085938 C 7.199219 18.414062 6.5 19.113281 6.5 19.929688 C 6.476562 21.117188 7.890625 21.992188 9.777344 21.992188 C 11.652344 21.992188 13.074219 21.117188 13.074219 19.9375 C 13.074219 19.121094 12.375 18.429688 11.253906 18.09375 L 11.253906 14.746094 L 11.351562 14.664062 C 11.667969 14.222656 11.902344 13.738281 12.0625 13.222656 C 12.199219 12.820312 12.3125 12.414062 12.398438 12 L 17.804688 16.535156 L 18.265625 16.921875 L 18.648438 16.445312 L 19.121094 15.835938 L 19.5 15.355469 L 19.035156 14.964844 L 12.695312 9.589844 C 12.695312 9.386719 12.695312 9.164062 12.695312 8.941406 C 12.695312 8.492188 12.695312 8.023438 12.636719 7.5625 L 19.058594 2.1875 L 19.546875 1.792969 L 19.171875 1.320312 L 18.632812 0.613281 L 18.257812 0.132812 L 17.792969 0.523438 L 12.21875 5.167969 C 11.691406 3.332031 10.789062 2.261719 9.777344 2.261719 C 8.761719 2.261719 7.855469 3.273438 7.332031 5.039062 L 1.734375 0.394531 Z M 1.21875 0 "/>
</svg>
