<?xml version="1.0" encoding="UTF-8"?>
<svg xmlns="http://www.w3.org/2000/svg" xmlns:xlink="http://www.w3.org/1999/xlink" width="20" height="22.499998" viewBox="0 0 20 22.499998">
<path fill-rule="nonzero" fill="rgb(90.196078%, 65.098039%, 6.666667%)" fill-opacity="1" d="M 10 22.1875 C 8.273438 22.1875 6.925781 21.398438 6.925781 20.398438 C 6.925781 19.648438 7.652344 19.027344 8.789062 18.75 L 8.789062 15.074219 C 8.085938 14.148438 7.640625 13.0625 7.5 11.910156 L 1.375 17 L 0.4375 15.75 L 7.222656 10.113281 C 7.222656 9.800781 7.222656 9.476562 7.222656 9.148438 C 7.222656 8.523438 7.261719 7.90625 7.335938 7.285156 L 0.472656 1.546875 L 1.351562 0.4375 L 7.601562 5.6875 C 8.097656 3.75 8.960938 2.625 10 2.625 C 11.035156 2.625 11.898438 3.875 12.386719 5.839844 L 18.636719 0.574219 L 19.574219 1.824219 L 12.625 7.585938 C 12.675781 8.101562 12.703125 8.621094 12.699219 9.136719 C 12.699219 9.414062 12.699219 9.6875 12.699219 9.949219 L 19.535156 15.6875 L 18.660156 16.800781 L 12.5 11.640625 C 12.40625 12.234375 12.257812 12.820312 12.0625 13.386719 C 11.910156 13.882812 11.675781 14.351562 11.375 14.773438 L 11.25 15 L 11.25 18.75 C 12.386719 19.027344 13.113281 19.648438 13.113281 20.398438 C 13.074219 21.398438 11.722656 22.1875 10 22.1875 Z M 10 22.1875 "/>
<path fill-rule="nonzero" fill="rgb(0%, 0%, 0%)" fill-opacity="1" d="M 1.402344 0.886719 L 7.789062 6.25 C 8.199219 4.285156 9.035156 2.9375 9.949219 2.9375 C 10.859375 2.9375 11.746094 4.347656 12.148438 6.398438 L 18.585938 1.023438 L 19.152344 1.738281 L 12.300781 7.5 C 12.363281 8.0625 12.398438 8.621094 12.402344 9.1875 C 12.402344 9.511719 12.402344 9.828125 12.402344 10.136719 L 19.125 15.773438 L 18.636719 16.402344 L 12.273438 11.050781 C 12.183594 11.804688 12.011719 12.550781 11.761719 13.277344 C 11.613281 13.722656 11.390625 14.144531 11.113281 14.527344 L 10.886719 14.800781 L 10.886719 19 C 11.972656 19.203125 12.75 19.75 12.75 20.386719 C 12.75 21.027344 11.527344 21.875 10 21.875 C 8.476562 21.875 7.222656 21.25 7.222656 20.398438 C 7.222656 19.550781 7.996094 19.152344 9.085938 19.011719 L 9.085938 15 C 8.25 13.953125 7.75 12.671875 7.664062 11.335938 L 1.410156 16.5625 L 0.851562 15.847656 L 7.5 10.25 C 7.5 9.886719 7.5 9.527344 7.5 9.136719 C 7.496094 8.472656 7.539062 7.808594 7.625 7.148438 L 0.914062 1.511719 L 1.402344 0.886719 M 1.25 0 L 0.925781 0.484375 L 0.4375 1.113281 L 0 1.597656 L 0.472656 2 L 6.988281 7.425781 C 6.925781 7.996094 6.898438 8.574219 6.902344 9.148438 C 6.902344 9.414062 6.902344 9.6875 6.902344 9.972656 L 0.472656 15.351562 L 0 15.75 L 0.390625 16.25 L 0.949219 16.960938 L 1.339844 17.449219 L 1.8125 17.050781 L 7.261719 12.5 C 7.460938 13.492188 7.890625 14.425781 8.511719 15.226562 L 8.511719 18.5 C 7.363281 18.835938 6.648438 19.550781 6.648438 20.386719 C 6.625 21.601562 8.074219 22.5 10 22.5 C 11.921875 22.5 13.375 21.601562 13.375 20.398438 C 13.375 19.5625 12.660156 18.851562 11.511719 18.511719 L 11.511719 15.085938 L 11.613281 15 C 11.933594 14.550781 12.179688 14.054688 12.339844 13.527344 C 12.480469 13.117188 12.597656 12.699219 12.683594 12.273438 L 18.214844 16.914062 L 18.6875 17.3125 L 19.078125 16.824219 L 19.5625 16.199219 L 19.949219 15.710938 L 19.472656 15.3125 L 12.988281 9.8125 C 12.988281 9.601562 12.988281 9.375 12.988281 9.148438 C 12.988281 8.6875 12.988281 8.210938 12.925781 7.738281 L 19.5 2.238281 L 20 1.835938 L 19.613281 1.351562 L 19.0625 0.625 L 18.675781 0.136719 L 18.203125 0.535156 L 12.5 5.285156 C 11.960938 3.410156 11.035156 2.3125 10 2.3125 C 8.960938 2.3125 8.035156 3.347656 7.5 5.152344 L 1.773438 0.402344 Z M 1.25 0 "/>
</svg>
