<?xml version="1.0" encoding="UTF-8"?>
<svg xmlns="http://www.w3.org/2000/svg" xmlns:xlink="http://www.w3.org/1999/xlink" width="11.076924" height="16" viewBox="0 0 11.076924 16">
<path fill-rule="nonzero" fill="rgb(90.196078%, 65.098039%, 6.666667%)" fill-opacity="1" d="M 4.382812 15.695312 C 4.125 15.6875 3.894531 15.519531 3.816406 15.273438 L 3.238281 13.539062 C 3.179688 13.351562 3.214844 13.152344 3.324219 13 L 3.445312 12.871094 L 0.988281 8.347656 C 0.953125 8.277344 0.929688 8.207031 0.921875 8.132812 C 0.53125 7.375 0.332031 6.53125 0.332031 5.671875 C 0.308594 4.269531 0.84375 2.917969 1.820312 1.914062 C 2.800781 0.90625 4.136719 0.328125 5.539062 0.308594 C 8.453125 0.332031 10.796875 2.722656 10.769531 5.636719 C 10.769531 6.496094 10.566406 7.339844 10.175781 8.101562 C 10.171875 8.171875 10.152344 8.242188 10.117188 8.308594 L 7.65625 12.839844 C 7.703125 12.871094 7.746094 12.910156 7.78125 12.960938 C 7.890625 13.121094 7.921875 13.328125 7.867188 13.511719 L 7.261719 15.273438 C 7.183594 15.519531 6.953125 15.6875 6.695312 15.695312 Z M 6.351562 12.699219 L 7.507812 10.570312 C 7.074219 10.753906 6.621094 10.875 6.152344 10.929688 L 6.152344 12.699219 Z M 4.925781 12.699219 L 4.925781 10.929688 C 4.457031 10.875 4.003906 10.753906 3.570312 10.570312 L 4.726562 12.699219 Z M 4.925781 12.699219 "/>
<path fill-rule="nonzero" fill="rgb(0%, 0%, 0%)" fill-opacity="1" d="M 5.539062 0.628906 C 6.859375 0.628906 8.125 1.160156 9.050781 2.097656 C 9.976562 3.042969 10.484375 4.316406 10.460938 5.636719 C 10.453125 6.464844 10.242188 7.273438 9.847656 8 C 9.855469 8.042969 9.855469 8.089844 9.847656 8.132812 L 7.1875 13.058594 L 7.273438 13.058594 C 7.367188 13.058594 7.457031 13.105469 7.507812 13.179688 C 7.550781 13.265625 7.550781 13.367188 7.507812 13.453125 L 6.925781 15.226562 C 6.886719 15.339844 6.78125 15.417969 6.660156 15.421875 L 4.382812 15.421875 C 4.257812 15.417969 4.148438 15.339844 4.109375 15.226562 L 3.53125 13.453125 C 3.488281 13.367188 3.488281 13.265625 3.53125 13.179688 C 3.585938 13.105469 3.671875 13.058594 3.765625 13.058594 L 3.851562 13.058594 L 1.230469 8.148438 C 1.21875 8.101562 1.21875 8.046875 1.230469 8 C 0.835938 7.273438 0.625 6.464844 0.613281 5.636719 C 0.59375 4.316406 1.097656 3.042969 2.023438 2.097656 C 2.949219 1.160156 4.21875 0.628906 5.539062 0.628906 M 5.832031 13.011719 L 6.523438 13.011719 L 8.28125 9.847656 C 7.554688 10.34375 6.703125 10.636719 5.820312 10.683594 L 5.820312 13.058594 M 4.589844 13.058594 L 5.292969 13.058594 L 5.292969 10.636719 C 4.410156 10.582031 3.5625 10.292969 2.828125 9.796875 L 4.550781 13.011719 M 5.539062 0 C 2.453125 0.0351562 -0.0234375 2.554688 0 5.636719 C 0 6.523438 0.207031 7.402344 0.601562 8.195312 C 0.617188 8.285156 0.648438 8.371094 0.6875 8.453125 L 3.050781 12.785156 C 2.890625 13.027344 2.851562 13.328125 2.941406 13.597656 L 3.523438 15.375 C 3.644531 15.746094 3.988281 15.996094 4.382812 16 L 6.695312 16 C 7.085938 15.996094 7.433594 15.746094 7.554688 15.375 L 8.132812 13.597656 C 8.226562 13.328125 8.1875 13.027344 8.027344 12.785156 L 10.390625 8.441406 C 10.429688 8.363281 10.457031 8.273438 10.476562 8.1875 C 10.871094 7.394531 11.078125 6.519531 11.078125 5.636719 C 11.097656 2.554688 8.625 0.0351562 5.539062 0 Z M 6.445312 11.199219 L 6.855469 11.078125 L 6.4375 11.839844 L 6.4375 11.199219 Z M 4.636719 11.878906 L 4.222656 11.078125 L 4.636719 11.164062 Z M 4.636719 11.878906 "/>
</svg>
