<?xml version="1.0" encoding="UTF-8"?>
<svg xmlns="http://www.w3.org/2000/svg" xmlns:xlink="http://www.w3.org/1999/xlink" width="10.003847" height="14.45" viewBox="0 0 10.003847 14.45">
<path id="mwpbg" fill-rule="nonzero" fill="rgb(255,255,255)" fill-opacity="1" d="M 3.960938 14.175781 C 3.726562 14.167969 3.515625 14.015625 3.445312 13.792969 L 2.925781 12.226562 C 2.871094 12.0625 2.90625 11.878906 3.003906 11.738281 L 3.113281 11.625 L 0.890625 7.539062 C 0.855469 7.476562 0.839844 7.410156 0.832031 7.347656 C 0.480469 6.660156 0.300781 5.898438 0.300781 5.121094 C 0.28125 3.855469 0.765625 2.632812 1.644531 1.726562 C 2.53125 0.816406 3.734375 0.296875 5 0.28125 C 7.636719 0.300781 9.75 2.457031 9.726562 5.089844 C 9.726562 5.867188 9.542969 6.625 9.191406 7.3125 C 9.1875 7.382812 9.167969 7.445312 9.136719 7.503906 L 6.914062 11.59375 C 6.953125 11.625 6.996094 11.660156 7.023438 11.703125 C 7.128906 11.851562 7.15625 12.03125 7.105469 12.203125 L 6.558594 13.792969 C 6.488281 14.015625 6.28125 14.167969 6.046875 14.175781 Z M 5.734375 11.46875 L 6.78125 9.546875 C 6.390625 9.710938 5.980469 9.820312 5.558594 9.871094 L 5.558594 11.46875 Z M 4.449219 11.46875 L 4.449219 9.871094 C 4.023438 9.820312 3.613281 9.710938 3.222656 9.546875 L 4.265625 11.46875 Z M 4.449219 11.46875 "/>
<path id="mwpfg" fill-rule="nonzero" fill="rgb(0%, 0%, 0%)" fill-opacity="1" d="M 5 0.566406 C 6.195312 0.566406 7.335938 1.046875 8.171875 1.894531 C 9.015625 2.75 9.464844 3.898438 9.449219 5.089844 C 9.441406 5.835938 9.25 6.570312 8.898438 7.226562 C 8.902344 7.265625 8.902344 7.308594 8.898438 7.347656 L 6.488281 11.792969 L 6.570312 11.792969 C 6.65625 11.792969 6.730469 11.835938 6.78125 11.902344 C 6.820312 11.980469 6.820312 12.070312 6.78125 12.148438 L 6.257812 13.75 C 6.21875 13.851562 6.121094 13.925781 6.015625 13.929688 L 3.960938 13.929688 C 3.847656 13.925781 3.75 13.851562 3.714844 13.75 L 3.1875 12.148438 C 3.148438 12.070312 3.148438 11.980469 3.1875 11.902344 C 3.238281 11.835938 3.316406 11.792969 3.398438 11.792969 L 3.476562 11.792969 L 1.109375 7.355469 C 1.105469 7.3125 1.105469 7.273438 1.109375 7.226562 C 0.753906 6.570312 0.5625 5.835938 0.554688 5.089844 C 0.535156 3.898438 0.992188 2.75 1.832031 1.894531 C 2.664062 1.046875 3.8125 0.566406 5 0.566406 M 5.269531 11.753906 L 5.894531 11.753906 L 7.480469 8.898438 C 6.824219 9.34375 6.054688 9.605469 5.257812 9.648438 L 5.257812 11.792969 M 4.144531 11.792969 L 4.78125 11.792969 L 4.78125 9.605469 C 3.984375 9.558594 3.21875 9.296875 2.554688 8.847656 L 4.109375 11.753906 M 5 0 C 2.21875 0.03125 -0.0195312 2.304688 0 5.089844 C 0 5.894531 0.1875 6.683594 0.539062 7.402344 C 0.558594 7.484375 0.585938 7.5625 0.621094 7.636719 L 2.753906 11.546875 C 2.613281 11.765625 2.574219 12.03125 2.65625 12.285156 L 3.179688 13.886719 C 3.289062 14.222656 3.601562 14.445312 3.960938 14.449219 L 6.046875 14.449219 C 6.402344 14.445312 6.714844 14.222656 6.824219 13.886719 L 7.347656 12.285156 C 7.429688 12.03125 7.394531 11.765625 7.25 11.546875 L 9.382812 7.625 C 9.417969 7.550781 9.445312 7.472656 9.460938 7.394531 C 9.816406 6.679688 10 5.886719 10 5.089844 C 10.023438 2.304688 7.789062 0.03125 5 0 Z M 5.824219 10.113281 L 6.191406 10 L 5.8125 10.691406 L 5.8125 10.113281 Z M 4.1875 10.726562 L 3.816406 10 L 4.1875 10.082031 Z M 4.1875 10.726562 "/>
</svg>
