<?xml version="1.0" encoding="UTF-8"?>
<svg xmlns="http://www.w3.org/2000/svg" xmlns:xlink="http://www.w3.org/1999/xlink" width="10" height="14.444444" viewBox="0 0 10 14.444444">
<path fill-rule="nonzero" fill="rgb(100%, 0%, 0%)" fill-opacity="1" d="M 3.957031 14.167969 C 3.722656 14.164062 3.515625 14.011719 3.445312 13.789062 L 2.921875 12.222656 C 2.871094 12.054688 2.902344 11.875 3 11.734375 L 3.109375 11.621094 L 0.890625 7.535156 C 0.859375 7.472656 0.839844 7.410156 0.832031 7.34375 C 0.480469 6.65625 0.300781 5.894531 0.300781 5.121094 C 0.277344 3.855469 0.761719 2.632812 1.644531 1.726562 C 2.527344 0.816406 3.734375 0.296875 5 0.277344 C 7.632812 0.300781 9.746094 2.457031 9.722656 5.089844 C 9.722656 5.863281 9.539062 6.625 9.1875 7.3125 C 9.183594 7.378906 9.164062 7.441406 9.132812 7.5 L 6.910156 11.589844 C 6.953125 11.621094 6.992188 11.65625 7.023438 11.699219 C 7.125 11.84375 7.152344 12.03125 7.101562 12.199219 L 6.554688 13.789062 C 6.484375 14.011719 6.277344 14.164062 6.042969 14.167969 Z M 5.734375 11.464844 L 6.777344 9.542969 C 6.386719 9.707031 5.976562 9.816406 5.554688 9.867188 L 5.554688 11.464844 Z M 4.445312 11.464844 L 4.445312 9.867188 C 4.023438 9.816406 3.613281 9.707031 3.222656 9.542969 L 4.265625 11.464844 Z M 4.445312 11.464844 "/>
<path fill-rule="nonzero" fill="rgb(0%, 0%, 0%)" fill-opacity="1" d="M 5 0.566406 C 6.191406 0.566406 7.335938 1.046875 8.171875 1.894531 C 9.007812 2.746094 9.464844 3.898438 9.445312 5.089844 C 9.4375 5.835938 9.246094 6.566406 8.890625 7.222656 C 8.898438 7.261719 8.898438 7.304688 8.890625 7.34375 L 6.488281 11.789062 L 6.566406 11.789062 C 6.652344 11.789062 6.730469 11.832031 6.777344 11.898438 C 6.816406 11.976562 6.816406 12.066406 6.777344 12.144531 L 6.253906 13.746094 C 6.21875 13.847656 6.121094 13.917969 6.011719 13.921875 L 3.957031 13.921875 C 3.84375 13.917969 3.746094 13.847656 3.710938 13.746094 L 3.1875 12.144531 C 3.148438 12.066406 3.148438 11.976562 3.1875 11.898438 C 3.238281 11.832031 3.316406 11.789062 3.398438 11.789062 L 3.476562 11.789062 L 1.109375 7.355469 C 1.101562 7.3125 1.101562 7.265625 1.109375 7.222656 C 0.753906 6.566406 0.5625 5.835938 0.554688 5.089844 C 0.535156 3.898438 0.992188 2.746094 1.828125 1.894531 C 2.664062 1.046875 3.808594 0.566406 5 0.566406 M 5.265625 11.746094 L 5.890625 11.746094 L 7.476562 8.890625 C 6.820312 9.339844 6.050781 9.601562 5.253906 9.644531 L 5.253906 11.789062 M 4.144531 11.789062 L 4.777344 11.789062 L 4.777344 9.601562 C 3.980469 9.554688 3.214844 9.292969 2.554688 8.84375 L 4.109375 11.746094 M 5 0 C 2.214844 0.03125 -0.0195312 2.304688 0 5.089844 C 0 5.890625 0.1875 6.683594 0.542969 7.398438 C 0.558594 7.480469 0.585938 7.558594 0.621094 7.632812 L 2.753906 11.542969 C 2.609375 11.761719 2.574219 12.03125 2.65625 12.277344 L 3.179688 13.878906 C 3.289062 14.214844 3.601562 14.441406 3.957031 14.445312 L 6.042969 14.445312 C 6.398438 14.441406 6.710938 14.214844 6.820312 13.878906 L 7.34375 12.277344 C 7.425781 12.03125 7.390625 11.761719 7.246094 11.542969 L 9.378906 7.621094 C 9.414062 7.550781 9.441406 7.46875 9.457031 7.390625 C 9.8125 6.675781 10 5.886719 10 5.089844 C 10.019531 2.304688 7.785156 0.03125 5 0 Z M 5.820312 10.109375 L 6.1875 10 L 5.8125 10.6875 L 5.8125 10.109375 Z M 4.1875 10.722656 L 3.8125 10 L 4.1875 10.078125 Z M 4.1875 10.722656 "/>
</svg>
