<?xml version="1.0" encoding="UTF-8"?>
<svg xmlns="http://www.w3.org/2000/svg" xmlns:xlink="http://www.w3.org/1999/xlink" width="10.384616" height="15" viewBox="0 0 10.384616 15">
<path fill-rule="nonzero" fill="rgb(100%, 0%, 0%)" fill-opacity="1" d="M 4.109375 14.714844 C 3.867188 14.707031 3.652344 14.550781 3.578125 14.320312 L 3.035156 12.691406 C 2.980469 12.519531 3.015625 12.332031 3.117188 12.1875 L 3.230469 12.066406 L 0.925781 7.824219 C 0.890625 7.761719 0.871094 7.695312 0.863281 7.625 C 0.5 6.914062 0.3125 6.121094 0.3125 5.316406 C 0.289062 4.003906 0.792969 2.734375 1.707031 1.792969 C 2.625 0.847656 3.878906 0.308594 5.191406 0.289062 C 7.925781 0.3125 10.121094 2.550781 10.097656 5.285156 C 10.097656 6.089844 9.90625 6.878906 9.539062 7.59375 C 9.535156 7.664062 9.515625 7.726562 9.484375 7.789062 L 7.175781 12.035156 C 7.21875 12.066406 7.261719 12.105469 7.292969 12.148438 C 7.398438 12.300781 7.425781 12.492188 7.375 12.667969 L 6.808594 14.320312 C 6.734375 14.550781 6.519531 14.707031 6.277344 14.714844 Z M 5.953125 11.90625 L 7.039062 9.910156 C 6.632812 10.082031 6.207031 10.195312 5.769531 10.246094 L 5.769531 11.90625 Z M 4.617188 11.90625 L 4.617188 10.246094 C 4.179688 10.195312 3.753906 10.082031 3.347656 9.910156 L 4.429688 11.90625 Z M 4.617188 11.90625 "/>
<path fill-rule="nonzero" fill="rgb(0%, 0%, 0%)" fill-opacity="1" d="M 5.191406 0.589844 C 6.429688 0.589844 7.617188 1.085938 8.484375 1.96875 C 9.355469 2.851562 9.828125 4.046875 9.808594 5.285156 C 9.800781 6.058594 9.601562 6.820312 9.234375 7.5 C 9.242188 7.542969 9.242188 7.585938 9.234375 7.625 L 6.738281 12.242188 L 6.820312 12.242188 C 6.910156 12.242188 6.988281 12.289062 7.039062 12.355469 C 7.078125 12.4375 7.078125 12.53125 7.039062 12.613281 L 6.496094 14.273438 C 6.457031 14.378906 6.355469 14.453125 6.242188 14.457031 L 4.109375 14.457031 C 3.992188 14.453125 3.890625 14.378906 3.855469 14.273438 L 3.308594 12.613281 C 3.269531 12.53125 3.269531 12.4375 3.308594 12.355469 C 3.363281 12.289062 3.445312 12.242188 3.527344 12.242188 L 3.609375 12.242188 L 1.152344 7.636719 C 1.144531 7.59375 1.144531 7.546875 1.152344 7.5 C 0.78125 6.820312 0.585938 6.058594 0.574219 5.285156 C 0.554688 4.046875 1.03125 2.851562 1.898438 1.96875 C 2.765625 1.085938 3.957031 0.589844 5.191406 0.589844 M 5.46875 12.199219 L 6.117188 12.199219 L 7.765625 9.234375 C 7.082031 9.699219 6.285156 9.972656 5.457031 10.015625 L 5.457031 12.242188 M 4.304688 12.242188 L 4.960938 12.242188 L 4.960938 9.972656 C 4.132812 9.921875 3.339844 9.652344 2.652344 9.183594 L 4.265625 12.199219 M 5.191406 0 C 2.300781 0.03125 -0.0195312 2.394531 0 5.285156 C 0 6.117188 0.195312 6.941406 0.5625 7.683594 C 0.582031 7.769531 0.609375 7.847656 0.644531 7.925781 L 2.859375 11.988281 C 2.710938 12.214844 2.671875 12.492188 2.757812 12.75 L 3.300781 14.414062 C 3.414062 14.761719 3.738281 14.996094 4.109375 15 L 6.277344 15 C 6.644531 14.996094 6.96875 14.761719 7.082031 14.414062 L 7.625 12.75 C 7.710938 12.492188 7.675781 12.214844 7.523438 11.988281 L 9.738281 7.914062 C 9.777344 7.839844 9.804688 7.757812 9.820312 7.675781 C 10.191406 6.933594 10.382812 6.113281 10.382812 5.285156 C 10.40625 2.394531 8.085938 0.03125 5.191406 0 Z M 6.042969 10.5 L 6.425781 10.382812 L 6.035156 11.097656 L 6.035156 10.5 Z M 4.347656 11.136719 L 3.960938 10.382812 L 4.347656 10.464844 Z M 4.347656 11.136719 "/>
</svg>
