<?xml version="1.0" encoding="UTF-8"?>
<svg xmlns="http://www.w3.org/2000/svg" xmlns:xlink="http://www.w3.org/1999/xlink" width="6.8" height="17" viewBox="0 0 6.8 17">
<path fill-rule="nonzero" fill="rgb(35.294118%, 35.294118%, 35.294118%)" fill-opacity="1" d="M 2.007812 0 C 1.765625 0.00390625 1.523438 0.03125 1.289062 0.078125 L 1.136719 0.125 L 0.972656 0.183594 L 0.792969 0.261719 L 0.667969 0.339844 L 0.554688 0.429688 L 0.554688 4.535156 C 0.554688 4.679688 0.621094 4.710938 0.667969 4.792969 L 0.667969 5.136719 L 0.101562 5.136719 C 0.101562 6.628906 0.101562 8.960938 0.101562 10.574219 L 0.101562 11.074219 C 0.078125 11.132812 0 11.199219 0 11.332031 L 0 14.53125 C 0 14.632812 -0.0585938 14.6875 0.078125 14.734375 L 0.078125 16.886719 C 2.261719 17.011719 4.445312 17.011719 6.628906 16.886719 L 6.628906 14.800781 C 6.796875 14.734375 6.796875 14.652344 6.796875 14.550781 L 6.796875 11.332031 C 6.796875 11.164062 6.742188 11.105469 6.675781 11.082031 L 6.675781 10.621094 C 6.675781 9.019531 6.675781 6.640625 6.675781 5.179688 L 6.292969 5.179688 L 6.292969 4.839844 C 6.292969 4.746094 6.414062 4.722656 6.390625 4.578125 L 6.390625 1.179688 L 6.351562 1.136719 L 6.351562 0.574219 C 6.351562 0.554688 6.351562 0.53125 6.351562 0.507812 L 6.132812 0.363281 L 5.960938 0.261719 L 5.800781 0.191406 L 5.667969 0.125 L 5.488281 0.125 C 5.175781 0.0429688 4.855469 0.00390625 4.535156 0 Z M 2.007812 0 "/>
<path fill-rule="nonzero" fill="rgb(100%, 100%, 100%)" fill-opacity="1" d="M 0.871094 3.136719 C 1.652344 2.75 2.527344 2.578125 3.398438 2.640625 C 4.285156 2.574219 5.167969 2.746094 5.960938 3.136719 L 5.527344 4.179688 C 4.839844 3.988281 4.121094 3.875 3.398438 3.863281 C 2.667969 3.875 1.941406 3.980469 1.238281 4.171875 Z M 0.871094 3.136719 "/>
<path fill-rule="nonzero" fill="rgb(100%, 100%, 100%)" fill-opacity="1" d="M 4.882812 8.511719 C 4.804688 8.34375 4.683594 8.191406 4.535156 8.070312 C 4.367188 7.917969 4.175781 7.804688 3.964844 7.726562 C 3.683594 7.628906 3.394531 7.585938 3.09375 7.59375 C 2.84375 7.589844 2.59375 7.628906 2.355469 7.71875 C 2.148438 7.796875 1.953125 7.925781 1.789062 8.078125 C 1.636719 8.234375 1.511719 8.421875 1.425781 8.625 C 1.339844 8.839844 1.292969 9.074219 1.289062 9.304688 L 1.289062 9.441406 L 2.617188 9.441406 L 2.617188 9.292969 C 2.605469 9.199219 2.605469 9.105469 2.617188 9.007812 C 2.636719 8.933594 2.671875 8.859375 2.71875 8.796875 C 2.765625 8.734375 2.824219 8.691406 2.890625 8.65625 C 2.972656 8.640625 3.058594 8.640625 3.136719 8.65625 C 3.261719 8.648438 3.378906 8.6875 3.46875 8.761719 C 3.550781 8.855469 3.59375 8.976562 3.582031 9.101562 C 3.601562 9.171875 3.601562 9.246094 3.582031 9.316406 C 3.527344 9.367188 3.464844 9.40625 3.398438 9.441406 L 3.148438 9.621094 C 3.046875 9.695312 2.953125 9.777344 2.867188 9.871094 C 2.777344 9.96875 2.699219 10.082031 2.640625 10.203125 C 2.566406 10.359375 2.523438 10.535156 2.515625 10.707031 L 2.515625 11.132812 L 3.730469 11.132812 L 3.730469 10.789062 C 3.738281 10.699219 3.777344 10.613281 3.828125 10.542969 C 3.894531 10.460938 3.964844 10.394531 4.042969 10.335938 L 4.328125 10.144531 C 4.441406 10.070312 4.546875 9.984375 4.636719 9.882812 C 4.738281 9.769531 4.816406 9.644531 4.871094 9.507812 C 4.945312 9.332031 4.976562 9.144531 4.972656 8.953125 C 4.972656 8.800781 4.945312 8.652344 4.882812 8.511719 Z M 4.882812 8.511719 "/>
<path fill-rule="nonzero" fill="rgb(100%, 100%, 100%)" fill-opacity="1" d="M 2.46875 11.628906 L 3.742188 11.628906 L 3.742188 12.785156 L 2.46875 12.785156 Z M 2.46875 11.628906 "/>
</svg>
