<?xml version="1.0" encoding="UTF-8"?>
<svg xmlns="http://www.w3.org/2000/svg" xmlns:xlink="http://www.w3.org/1999/xlink" width="10.2" height="25.5" viewBox="0 0 10.2 25.5">
<path fill-rule="nonzero" fill="rgb(35.294118%, 35.294118%, 35.294118%)" fill-opacity="1" d="M 3.011719 0 C 2.648438 0.0078125 2.285156 0.046875 1.933594 0.117188 L 1.707031 0.1875 L 1.457031 0.277344 L 1.191406 0.394531 L 1.003906 0.511719 L 0.832031 0.644531 L 0.832031 6.800781 C 0.832031 7.019531 0.933594 7.066406 1.003906 7.191406 L 1.003906 7.707031 L 0.152344 7.707031 C 0.152344 9.941406 0.152344 13.441406 0.152344 15.863281 L 0.152344 16.613281 C 0.117188 16.699219 0 16.800781 0 16.996094 L 0 21.796875 C 0 21.949219 -0.0898438 22.03125 0.117188 22.101562 L 0.117188 25.332031 C 3.394531 25.519531 6.667969 25.519531 9.941406 25.332031 L 9.941406 22.199219 C 10.195312 22.101562 10.195312 21.980469 10.195312 21.824219 L 10.195312 16.996094 C 10.195312 16.746094 10.113281 16.660156 10.011719 16.621094 L 10.011719 15.933594 C 10.011719 13.527344 10.011719 9.960938 10.011719 7.769531 L 9.441406 7.769531 L 9.441406 7.261719 C 9.441406 7.121094 9.621094 7.082031 9.585938 6.867188 L 9.585938 1.769531 L 9.527344 1.707031 L 9.527344 0.863281 C 9.527344 0.832031 9.527344 0.796875 9.527344 0.761719 L 9.199219 0.542969 L 8.941406 0.394531 L 8.699219 0.285156 L 8.503906 0.1875 L 8.230469 0.1875 C 7.761719 0.0664062 7.285156 0.0078125 6.800781 0 Z M 3.011719 0 "/>
<path fill-rule="nonzero" fill="rgb(100%, 100%, 100%)" fill-opacity="1" d="M 1.308594 4.707031 C 2.480469 4.125 3.792969 3.867188 5.097656 3.960938 C 6.425781 3.863281 7.753906 4.121094 8.941406 4.707031 L 8.292969 6.269531 C 7.261719 5.980469 6.183594 5.8125 5.097656 5.792969 C 4.003906 5.8125 2.910156 5.972656 1.855469 6.257812 Z M 1.308594 4.707031 "/>
<path fill-rule="nonzero" fill="rgb(100%, 100%, 100%)" fill-opacity="1" d="M 7.324219 12.769531 C 7.207031 12.515625 7.027344 12.285156 6.800781 12.105469 C 6.550781 11.878906 6.261719 11.707031 5.949219 11.589844 C 5.527344 11.441406 5.089844 11.378906 4.640625 11.390625 C 4.265625 11.386719 3.890625 11.441406 3.535156 11.578125 C 3.222656 11.695312 2.929688 11.886719 2.683594 12.117188 C 2.457031 12.351562 2.269531 12.632812 2.136719 12.9375 C 2.011719 13.261719 1.941406 13.613281 1.933594 13.957031 L 1.933594 14.160156 L 3.925781 14.160156 L 3.925781 13.941406 C 3.910156 13.800781 3.910156 13.660156 3.925781 13.511719 C 3.957031 13.402344 4.007812 13.289062 4.078125 13.195312 C 4.148438 13.101562 4.238281 13.035156 4.335938 12.984375 C 4.457031 12.960938 4.589844 12.960938 4.707031 12.984375 C 4.894531 12.972656 5.066406 13.03125 5.203125 13.144531 C 5.324219 13.285156 5.390625 13.464844 5.371094 13.652344 C 5.402344 13.757812 5.402344 13.871094 5.371094 13.972656 C 5.292969 14.050781 5.199219 14.109375 5.097656 14.160156 L 4.722656 14.433594 C 4.570312 14.542969 4.429688 14.667969 4.300781 14.808594 C 4.167969 14.953125 4.050781 15.121094 3.960938 15.304688 C 3.847656 15.539062 3.785156 15.800781 3.773438 16.058594 L 3.773438 16.699219 L 5.597656 16.699219 L 5.597656 16.183594 C 5.605469 16.050781 5.667969 15.917969 5.742188 15.816406 C 5.839844 15.691406 5.949219 15.589844 6.066406 15.503906 L 6.492188 15.214844 C 6.660156 15.105469 6.820312 14.976562 6.957031 14.824219 C 7.105469 14.652344 7.222656 14.464844 7.308594 14.261719 C 7.417969 13.996094 7.464844 13.714844 7.457031 13.429688 C 7.457031 13.199219 7.417969 12.980469 7.324219 12.769531 Z M 7.324219 12.769531 "/>
<path fill-rule="nonzero" fill="rgb(100%, 100%, 100%)" fill-opacity="1" d="M 3.703125 17.441406 L 5.613281 17.441406 L 5.613281 19.175781 L 3.703125 19.175781 Z M 3.703125 17.441406 "/>
</svg>
