<?xml version="1.0" encoding="UTF-8"?>
<svg xmlns="http://www.w3.org/2000/svg" xmlns:xlink="http://www.w3.org/1999/xlink" width="8" height="20" viewBox="0 0 8 20">
<path fill-rule="nonzero" fill="rgb(35.294118%, 35.294118%, 35.294118%)" fill-opacity="1" d="M 2.363281 0 C 2.074219 0.00390625 1.792969 0.0351562 1.519531 0.09375 L 1.335938 0.148438 L 1.148438 0.214844 L 0.933594 0.308594 L 0.785156 0.402344 L 0.652344 0.503906 L 0.652344 5.335938 C 0.652344 5.503906 0.730469 5.542969 0.785156 5.636719 L 0.785156 6.039062 L 0.121094 6.039062 C 0.121094 7.800781 0.121094 10.542969 0.121094 12.441406 L 0.121094 13.027344 C 0.09375 13.09375 0 13.175781 0 13.335938 L 0 17.09375 C 0 17.214844 -0.0664062 17.28125 0.09375 17.335938 L 0.09375 19.867188 C 2.660156 20.011719 5.230469 20.011719 7.800781 19.867188 L 7.800781 17.414062 C 8 17.335938 8 17.242188 8 17.121094 L 8 13.335938 C 8 13.132812 7.933594 13.066406 7.851562 13.039062 L 7.851562 12.496094 C 7.851562 10.613281 7.851562 7.8125 7.851562 6.09375 L 7.402344 6.09375 L 7.402344 5.691406 C 7.402344 5.585938 7.542969 5.558594 7.519531 5.386719 L 7.519531 1.386719 L 7.46875 1.335938 L 7.46875 0.679688 C 7.472656 0.652344 7.472656 0.625 7.46875 0.597656 L 7.214844 0.429688 L 7.011719 0.308594 L 6.824219 0.226562 L 6.664062 0.148438 L 6.457031 0.148438 C 6.089844 0.0546875 5.710938 0.00390625 5.335938 0 Z M 2.363281 0 "/>
<path fill-rule="nonzero" fill="rgb(100%, 100%, 100%)" fill-opacity="1" d="M 1.027344 3.691406 C 1.945312 3.238281 2.972656 3.03125 4 3.105469 C 5.039062 3.027344 6.082031 3.226562 7.011719 3.691406 L 6.503906 4.917969 C 5.691406 4.691406 4.847656 4.5625 4 4.542969 C 3.136719 4.5625 2.285156 4.683594 1.457031 4.90625 Z M 1.027344 3.691406 "/>
<path fill-rule="nonzero" fill="rgb(100%, 100%, 100%)" fill-opacity="1" d="M 5.746094 10.011719 C 5.652344 9.8125 5.507812 9.632812 5.335938 9.496094 C 5.136719 9.316406 4.910156 9.183594 4.664062 9.09375 C 4.335938 8.976562 3.992188 8.925781 3.636719 8.933594 C 3.34375 8.929688 3.050781 8.976562 2.773438 9.082031 C 2.527344 9.175781 2.300781 9.320312 2.105469 9.503906 C 1.925781 9.6875 1.777344 9.90625 1.679688 10.148438 C 1.574219 10.402344 1.523438 10.675781 1.519531 10.945312 L 1.519531 11.105469 L 3.082031 11.105469 L 3.082031 10.933594 C 3.066406 10.820312 3.066406 10.710938 3.082031 10.597656 C 3.101562 10.507812 3.144531 10.425781 3.199219 10.347656 C 3.253906 10.277344 3.320312 10.222656 3.402344 10.1875 C 3.496094 10.164062 3.597656 10.164062 3.691406 10.1875 C 3.835938 10.175781 3.972656 10.21875 4.082031 10.308594 C 4.179688 10.414062 4.226562 10.5625 4.214844 10.707031 C 4.238281 10.789062 4.238281 10.878906 4.214844 10.960938 C 4.152344 11.019531 4.074219 11.066406 4 11.105469 L 3.707031 11.320312 C 3.585938 11.40625 3.472656 11.503906 3.375 11.613281 C 3.269531 11.726562 3.179688 11.863281 3.105469 12 C 3.019531 12.1875 2.96875 12.394531 2.960938 12.597656 L 2.960938 13.09375 L 4.386719 13.09375 L 4.386719 12.691406 C 4.398438 12.585938 4.441406 12.488281 4.503906 12.402344 C 4.582031 12.308594 4.664062 12.226562 4.757812 12.160156 L 5.09375 11.933594 C 5.226562 11.847656 5.347656 11.746094 5.457031 11.625 C 5.570312 11.496094 5.664062 11.347656 5.730469 11.1875 C 5.816406 10.976562 5.855469 10.757812 5.851562 10.53125 C 5.851562 10.351562 5.816406 10.179688 5.746094 10.011719 Z M 5.746094 10.011719 "/>
<path fill-rule="nonzero" fill="rgb(100%, 100%, 100%)" fill-opacity="1" d="M 2.90625 13.679688 L 4.402344 13.679688 L 4.402344 15.039062 L 2.90625 15.039062 Z M 2.90625 13.679688 "/>
</svg>
