<?xml version="1.0" encoding="UTF-8"?>
<svg xmlns="http://www.w3.org/2000/svg" xmlns:xlink="http://www.w3.org/1999/xlink" width="7" height="17.5" viewBox="0 0 7 17.5">
<path fill-rule="nonzero" fill="rgb(35.294118%, 35.294118%, 35.294118%)" fill-opacity="1" d="M 2.066406 0 C 1.816406 0.00390625 1.570312 0.03125 1.328125 0.0820312 L 1.167969 0.128906 L 1.003906 0.1875 L 0.816406 0.269531 L 0.6875 0.351562 L 0.570312 0.441406 L 0.570312 4.667969 C 0.570312 4.816406 0.640625 4.851562 0.6875 4.933594 L 0.6875 5.285156 L 0.105469 5.285156 C 0.105469 6.824219 0.105469 9.226562 0.105469 10.886719 L 0.105469 11.398438 C 0.0820312 11.457031 0 11.527344 0 11.667969 L 0 14.957031 C 0 15.0625 -0.0585938 15.121094 0.0820312 15.167969 L 0.0820312 17.382812 C 2.328125 17.511719 4.578125 17.511719 6.824219 17.382812 L 6.824219 15.238281 C 7 15.167969 7 15.085938 7 14.980469 L 7 11.667969 C 7 11.492188 6.941406 11.433594 6.871094 11.410156 L 6.871094 10.933594 C 6.871094 9.285156 6.871094 6.835938 6.871094 5.332031 L 6.476562 5.332031 L 6.476562 4.980469 C 6.476562 4.886719 6.601562 4.863281 6.578125 4.714844 L 6.578125 1.214844 L 6.535156 1.167969 L 6.535156 0.59375 C 6.539062 0.570312 6.539062 0.546875 6.535156 0.523438 L 6.3125 0.375 L 6.136719 0.269531 L 5.972656 0.199219 L 5.832031 0.128906 L 5.648438 0.128906 C 5.328125 0.046875 4.996094 0.00390625 4.667969 0 Z M 2.066406 0 "/>
<path fill-rule="nonzero" fill="rgb(100%, 100%, 100%)" fill-opacity="1" d="M 0.898438 3.230469 C 1.703125 2.832031 2.601562 2.652344 3.5 2.71875 C 4.410156 2.648438 5.320312 2.824219 6.136719 3.230469 L 5.691406 4.304688 C 4.980469 4.105469 4.242188 3.992188 3.5 3.976562 C 2.746094 3.992188 2 4.097656 1.273438 4.292969 Z M 0.898438 3.230469 "/>
<path fill-rule="nonzero" fill="rgb(100%, 100%, 100%)" fill-opacity="1" d="M 5.027344 8.761719 C 4.945312 8.585938 4.820312 8.429688 4.667969 8.308594 C 4.496094 8.152344 4.296875 8.035156 4.082031 7.957031 C 3.792969 7.855469 3.492188 7.808594 3.183594 7.816406 C 2.925781 7.8125 2.667969 7.855469 2.425781 7.945312 C 2.210938 8.027344 2.011719 8.15625 1.84375 8.316406 C 1.683594 8.476562 1.554688 8.667969 1.46875 8.878906 C 1.378906 9.101562 1.332031 9.339844 1.328125 9.578125 L 1.328125 9.71875 L 2.695312 9.71875 L 2.695312 9.566406 C 2.683594 9.46875 2.683594 9.371094 2.695312 9.273438 C 2.714844 9.195312 2.75 9.121094 2.800781 9.054688 C 2.847656 8.992188 2.90625 8.945312 2.976562 8.914062 C 3.058594 8.894531 3.148438 8.894531 3.230469 8.914062 C 3.355469 8.902344 3.476562 8.941406 3.570312 9.019531 C 3.65625 9.113281 3.699219 9.242188 3.6875 9.367188 C 3.707031 9.441406 3.707031 9.519531 3.6875 9.589844 C 3.632812 9.640625 3.566406 9.683594 3.5 9.71875 L 3.242188 9.90625 C 3.136719 9.980469 3.039062 10.066406 2.953125 10.160156 C 2.859375 10.261719 2.78125 10.378906 2.71875 10.5 C 2.640625 10.664062 2.597656 10.84375 2.589844 11.023438 L 2.589844 11.457031 L 3.839844 11.457031 L 3.839844 11.105469 C 3.847656 11.011719 3.886719 10.925781 3.941406 10.851562 C 4.007812 10.769531 4.082031 10.699219 4.164062 10.640625 L 4.457031 10.441406 C 4.574219 10.367188 4.679688 10.277344 4.773438 10.171875 C 4.875 10.058594 4.957031 9.929688 5.015625 9.789062 C 5.089844 9.605469 5.125 9.414062 5.121094 9.214844 C 5.121094 9.058594 5.089844 8.90625 5.027344 8.761719 Z M 5.027344 8.761719 "/>
<path fill-rule="nonzero" fill="rgb(100%, 100%, 100%)" fill-opacity="1" d="M 2.542969 11.96875 L 3.851562 11.96875 L 3.851562 13.160156 L 2.542969 13.160156 Z M 2.542969 11.96875 "/>
</svg>
