<?xml version="1.0" encoding="UTF-8"?>
<svg xmlns="http://www.w3.org/2000/svg" xmlns:xlink="http://www.w3.org/1999/xlink" width="6.8" height="17" viewBox="0 0 6.8 17">
<path fill-rule="nonzero" fill="rgb(35.294118%, 35.294118%, 35.294118%)" fill-opacity="1" d="M 2.007812 0 C 1.765625 0.00390625 1.523438 0.03125 1.289062 0.078125 L 1.136719 0.125 L 0.972656 0.183594 L 0.792969 0.261719 L 0.667969 0.339844 L 0.554688 0.429688 L 0.554688 4.535156 C 0.554688 4.679688 0.621094 4.710938 0.667969 4.792969 L 0.667969 5.136719 L 0.101562 5.136719 C 0.101562 6.628906 0.101562 8.960938 0.101562 10.574219 L 0.101562 11.074219 C 0.078125 11.132812 0 11.199219 0 11.332031 L 0 14.53125 C 0 14.632812 -0.0585938 14.6875 0.078125 14.734375 L 0.078125 16.886719 C 2.261719 17.011719 4.445312 17.011719 6.628906 16.886719 L 6.628906 14.800781 C 6.796875 14.734375 6.796875 14.652344 6.796875 14.550781 L 6.796875 11.332031 C 6.796875 11.164062 6.742188 11.105469 6.675781 11.082031 L 6.675781 10.621094 C 6.675781 9.019531 6.675781 6.640625 6.675781 5.179688 L 6.292969 5.179688 L 6.292969 4.839844 C 6.292969 4.746094 6.414062 4.722656 6.390625 4.578125 L 6.390625 1.179688 L 6.351562 1.136719 L 6.351562 0.574219 C 6.351562 0.554688 6.351562 0.53125 6.351562 0.507812 L 6.132812 0.363281 L 5.960938 0.261719 L 5.800781 0.191406 L 5.667969 0.125 L 5.488281 0.125 C 5.175781 0.0429688 4.855469 0.00390625 4.535156 0 Z M 2.007812 0 "/>
<path fill-rule="nonzero" fill="rgb(100%, 100%, 100%)" fill-opacity="1" d="M 0.871094 3.136719 C 1.652344 2.75 2.527344 2.578125 3.398438 2.640625 C 4.285156 2.574219 5.167969 2.746094 5.960938 3.136719 L 5.527344 4.179688 C 4.839844 3.988281 4.121094 3.875 3.398438 3.863281 C 2.667969 3.875 1.941406 3.980469 1.238281 4.171875 Z M 0.871094 3.136719 "/>
<path fill-rule="nonzero" fill="rgb(100%, 100%, 100%)" fill-opacity="1" d="M 4.929688 9.371094 C 4.925781 9.820312 4.664062 10.230469 4.261719 10.429688 C 4.257812 9.320312 3.789062 8.257812 2.972656 7.511719 C 2.964844 8.058594 2.734375 8.574219 2.332031 8.941406 L 1.871094 9.371094 C 1.46875 9.738281 1.238281 10.257812 1.238281 10.800781 C 1.253906 11.691406 1.859375 12.464844 2.71875 12.707031 L 4.078125 12.707031 C 4.949219 12.46875 5.554688 11.6875 5.574219 10.789062 C 5.566406 10.25 5.335938 9.734375 4.929688 9.371094 Z M 4.929688 9.371094 "/>
</svg>
