<?xml version="1.0" encoding="UTF-8"?>
<svg xmlns="http://www.w3.org/2000/svg" xmlns:xlink="http://www.w3.org/1999/xlink" width="7" height="17.5" viewBox="0 0 7 17.5">
<path fill-rule="nonzero" fill="rgb(35.294118%, 35.294118%, 35.294118%)" fill-opacity="1" d="M 2.066406 0 C 1.816406 0.00390625 1.570312 0.03125 1.328125 0.0820312 L 1.167969 0.128906 L 1.003906 0.1875 L 0.816406 0.269531 L 0.6875 0.351562 L 0.570312 0.441406 L 0.570312 4.667969 C 0.570312 4.816406 0.640625 4.851562 0.6875 4.933594 L 0.6875 5.285156 L 0.105469 5.285156 C 0.105469 6.824219 0.105469 9.226562 0.105469 10.886719 L 0.105469 11.398438 C 0.0820312 11.457031 0 11.527344 0 11.667969 L 0 14.957031 C 0 15.0625 -0.0585938 15.121094 0.0820312 15.167969 L 0.0820312 17.382812 C 2.328125 17.511719 4.578125 17.511719 6.824219 17.382812 L 6.824219 15.238281 C 7 15.167969 7 15.085938 7 14.980469 L 7 11.667969 C 7 11.492188 6.941406 11.433594 6.871094 11.410156 L 6.871094 10.933594 C 6.871094 9.285156 6.871094 6.835938 6.871094 5.332031 L 6.476562 5.332031 L 6.476562 4.980469 C 6.476562 4.886719 6.601562 4.863281 6.578125 4.714844 L 6.578125 1.214844 L 6.535156 1.167969 L 6.535156 0.59375 C 6.539062 0.570312 6.539062 0.546875 6.535156 0.523438 L 6.3125 0.375 L 6.136719 0.269531 L 5.972656 0.199219 L 5.832031 0.128906 L 5.648438 0.128906 C 5.328125 0.046875 4.996094 0.00390625 4.667969 0 Z M 2.066406 0 "/>
<path fill-rule="nonzero" fill="rgb(100%, 100%, 100%)" fill-opacity="1" d="M 0.898438 3.230469 C 1.703125 2.832031 2.601562 2.652344 3.5 2.71875 C 4.410156 2.648438 5.320312 2.824219 6.136719 3.230469 L 5.691406 4.304688 C 4.980469 4.105469 4.242188 3.992188 3.5 3.976562 C 2.746094 3.992188 2 4.097656 1.273438 4.292969 Z M 0.898438 3.230469 "/>
<path fill-rule="nonzero" fill="rgb(100%, 100%, 100%)" fill-opacity="1" d="M 5.074219 9.648438 C 5.070312 10.109375 4.800781 10.53125 4.386719 10.734375 C 4.382812 9.59375 3.898438 8.503906 3.058594 7.734375 C 3.054688 8.296875 2.816406 8.828125 2.402344 9.203125 L 1.925781 9.648438 C 1.511719 10.023438 1.273438 10.558594 1.273438 11.117188 C 1.292969 12.035156 1.914062 12.832031 2.800781 13.078125 L 4.199219 13.078125 C 5.09375 12.835938 5.71875 12.03125 5.738281 11.105469 C 5.730469 10.550781 5.492188 10.019531 5.074219 9.648438 Z M 5.074219 9.648438 "/>
</svg>
