<?xml version="1.0" encoding="UTF-8"?>
<svg xmlns="http://www.w3.org/2000/svg" xmlns:xlink="http://www.w3.org/1999/xlink" width="10.2" height="25.5" viewBox="0 0 10.2 25.5">
<path fill-rule="nonzero" fill="rgb(35.294118%, 35.294118%, 35.294118%)" fill-opacity="1" d="M 3.011719 0 C 2.648438 0.0078125 2.285156 0.046875 1.933594 0.117188 L 1.707031 0.1875 L 1.457031 0.277344 L 1.191406 0.394531 L 1.003906 0.511719 L 0.832031 0.644531 L 0.832031 6.800781 C 0.832031 7.019531 0.933594 7.066406 1.003906 7.191406 L 1.003906 7.707031 L 0.152344 7.707031 C 0.152344 9.941406 0.152344 13.441406 0.152344 15.863281 L 0.152344 16.613281 C 0.117188 16.699219 0 16.800781 0 16.996094 L 0 21.796875 C 0 21.949219 -0.0898438 22.03125 0.117188 22.101562 L 0.117188 25.332031 C 3.394531 25.519531 6.667969 25.519531 9.941406 25.332031 L 9.941406 22.199219 C 10.195312 22.101562 10.195312 21.980469 10.195312 21.824219 L 10.195312 16.996094 C 10.195312 16.746094 10.113281 16.660156 10.011719 16.621094 L 10.011719 15.933594 C 10.011719 13.527344 10.011719 9.960938 10.011719 7.769531 L 9.441406 7.769531 L 9.441406 7.261719 C 9.441406 7.121094 9.621094 7.082031 9.585938 6.867188 L 9.585938 1.769531 L 9.527344 1.707031 L 9.527344 0.863281 C 9.527344 0.832031 9.527344 0.796875 9.527344 0.761719 L 9.199219 0.542969 L 8.941406 0.394531 L 8.699219 0.285156 L 8.503906 0.1875 L 8.230469 0.1875 C 7.761719 0.0664062 7.285156 0.0078125 6.800781 0 Z M 3.011719 0 "/>
<path fill-rule="nonzero" fill="rgb(99.607843%, 99.607843%, 99.607843%)" fill-opacity="1" d="M 1.308594 4.707031 C 2.480469 4.125 3.792969 3.867188 5.097656 3.960938 C 6.425781 3.863281 7.753906 4.121094 8.941406 4.707031 L 8.292969 6.269531 C 7.261719 5.980469 6.183594 5.8125 5.097656 5.792969 C 4.003906 5.8125 2.910156 5.972656 1.855469 6.257812 Z M 1.308594 4.707031 "/>
<path fill-rule="nonzero" fill="rgb(99.607843%, 99.607843%, 99.607843%)" fill-opacity="1" d="M 7.394531 14.058594 C 7.386719 14.730469 6.996094 15.347656 6.394531 15.644531 C 6.386719 13.980469 5.683594 12.386719 4.457031 11.269531 C 4.449219 12.089844 4.101562 12.863281 3.496094 13.410156 L 2.808594 14.058594 C 2.203125 14.605469 1.855469 15.386719 1.855469 16.199219 C 1.878906 17.535156 2.789062 18.699219 4.078125 19.058594 L 6.117188 19.058594 C 7.425781 18.703125 8.332031 17.53125 8.363281 16.183594 C 8.347656 15.375 8.003906 14.601562 7.394531 14.058594 Z M 7.394531 14.058594 "/>
</svg>
