<?xml version="1.0" encoding="UTF-8"?>
<svg xmlns="http://www.w3.org/2000/svg" xmlns:xlink="http://www.w3.org/1999/xlink" width="8" height="20" viewBox="0 0 8 20">
<path fill-rule="nonzero" fill="rgb(35.294118%, 35.294118%, 35.294118%)" fill-opacity="1" d="M 2.363281 0 C 2.074219 0.00390625 1.792969 0.0351562 1.519531 0.09375 L 1.335938 0.148438 L 1.148438 0.214844 L 0.933594 0.308594 L 0.785156 0.402344 L 0.652344 0.503906 L 0.652344 5.335938 C 0.652344 5.503906 0.730469 5.542969 0.785156 5.636719 L 0.785156 6.039062 L 0.121094 6.039062 C 0.121094 7.800781 0.121094 10.542969 0.121094 12.441406 L 0.121094 13.027344 C 0.09375 13.09375 0 13.175781 0 13.335938 L 0 17.09375 C 0 17.214844 -0.0664062 17.28125 0.09375 17.335938 L 0.09375 19.867188 C 2.660156 20.011719 5.230469 20.011719 7.800781 19.867188 L 7.800781 17.414062 C 8 17.335938 8 17.242188 8 17.121094 L 8 13.335938 C 8 13.132812 7.933594 13.066406 7.851562 13.039062 L 7.851562 12.496094 C 7.851562 10.613281 7.851562 7.8125 7.851562 6.09375 L 7.402344 6.09375 L 7.402344 5.691406 C 7.402344 5.585938 7.542969 5.558594 7.519531 5.386719 L 7.519531 1.386719 L 7.46875 1.335938 L 7.46875 0.679688 C 7.472656 0.652344 7.472656 0.625 7.46875 0.597656 L 7.214844 0.429688 L 7.011719 0.308594 L 6.824219 0.226562 L 6.664062 0.148438 L 6.457031 0.148438 C 6.089844 0.0546875 5.710938 0.00390625 5.335938 0 Z M 2.363281 0 "/>
<path fill-rule="nonzero" fill="rgb(100%, 100%, 100%)" fill-opacity="1" d="M 1.027344 3.691406 C 1.945312 3.238281 2.972656 3.03125 4 3.105469 C 5.039062 3.027344 6.082031 3.226562 7.011719 3.691406 L 6.503906 4.917969 C 5.691406 4.691406 4.847656 4.5625 4 4.542969 C 3.136719 4.5625 2.285156 4.683594 1.457031 4.90625 Z M 1.027344 3.691406 "/>
<path fill-rule="nonzero" fill="rgb(100%, 100%, 100%)" fill-opacity="1" d="M 5.800781 11.027344 C 5.792969 11.554688 5.488281 12.035156 5.011719 12.269531 C 5.007812 10.964844 4.457031 9.71875 3.496094 8.839844 C 3.492188 9.480469 3.21875 10.089844 2.746094 10.519531 L 2.199219 11.027344 C 1.726562 11.457031 1.457031 12.066406 1.457031 12.707031 C 1.476562 13.753906 2.1875 14.664062 3.199219 14.945312 L 4.800781 14.945312 C 5.820312 14.667969 6.535156 13.75 6.558594 12.691406 C 6.550781 12.058594 6.277344 11.449219 5.800781 11.027344 Z M 5.800781 11.027344 "/>
</svg>
