<?xml version="1.0" encoding="UTF-8"?>
<svg xmlns="http://www.w3.org/2000/svg" xmlns:xlink="http://www.w3.org/1999/xlink" width="6.8" height="17" viewBox="0 0 6.8 17">
<path fill-rule="nonzero" fill="rgb(35.294118%, 35.294118%, 35.294118%)" fill-opacity="1" d="M 2.007812 0 C 1.765625 0.00390625 1.523438 0.03125 1.289062 0.078125 L 1.136719 0.125 L 0.972656 0.183594 L 0.792969 0.261719 L 0.667969 0.339844 L 0.554688 0.429688 L 0.554688 4.535156 C 0.554688 4.679688 0.621094 4.710938 0.667969 4.792969 L 0.667969 5.136719 L 0.101562 5.136719 C 0.101562 6.628906 0.101562 8.960938 0.101562 10.574219 L 0.101562 11.074219 C 0.078125 11.132812 0 11.199219 0 11.332031 L 0 14.53125 C 0 14.632812 -0.0585938 14.6875 0.078125 14.734375 L 0.078125 16.886719 C 2.261719 17.011719 4.445312 17.011719 6.628906 16.886719 L 6.628906 14.800781 C 6.796875 14.734375 6.796875 14.652344 6.796875 14.550781 L 6.796875 11.332031 C 6.796875 11.164062 6.742188 11.105469 6.675781 11.082031 L 6.675781 10.621094 C 6.675781 9.019531 6.675781 6.640625 6.675781 5.179688 L 6.292969 5.179688 L 6.292969 4.839844 C 6.292969 4.746094 6.414062 4.722656 6.390625 4.578125 L 6.390625 1.179688 L 6.351562 1.136719 L 6.351562 0.574219 C 6.351562 0.554688 6.351562 0.53125 6.351562 0.507812 L 6.132812 0.363281 L 5.960938 0.261719 L 5.800781 0.191406 L 5.667969 0.125 L 5.488281 0.125 C 5.175781 0.0429688 4.855469 0.00390625 4.535156 0 Z M 2.007812 0 "/>
<path fill-rule="nonzero" fill="rgb(100%, 100%, 100%)" fill-opacity="1" d="M 0.871094 3.136719 C 1.652344 2.75 2.527344 2.578125 3.398438 2.640625 C 4.285156 2.574219 5.167969 2.746094 5.960938 3.136719 L 5.527344 4.179688 C 4.839844 3.988281 4.121094 3.875 3.398438 3.863281 C 2.667969 3.875 1.941406 3.980469 1.238281 4.171875 Z M 0.871094 3.136719 "/>
<path fill-rule="nonzero" fill="rgb(100%, 100%, 100%)" fill-opacity="1" d="M 5.5 9.066406 C 5.488281 8.488281 5.21875 7.945312 4.757812 7.59375 C 4.726562 7.558594 4.679688 7.546875 4.632812 7.550781 C 4.589844 7.5625 4.550781 7.59375 4.535156 7.640625 L 4.535156 8.714844 C 4.546875 8.746094 4.546875 8.785156 4.535156 8.820312 L 3.511719 9.554688 C 3.46875 9.582031 3.410156 9.582031 3.363281 9.554688 L 2.265625 8.808594 C 2.253906 8.773438 2.253906 8.734375 2.265625 8.707031 L 2.265625 7.628906 C 2.265625 7.582031 2.234375 7.535156 2.195312 7.515625 C 2.148438 7.496094 2.101562 7.507812 2.066406 7.535156 C 1.585938 7.90625 1.308594 8.464844 1.304688 9.066406 C 1.324219 9.730469 1.6875 10.328125 2.265625 10.648438 C 2.335938 10.6875 2.378906 10.765625 2.378906 10.847656 L 2.378906 12.59375 C 2.378906 12.625 2.394531 12.65625 2.414062 12.675781 C 2.441406 12.695312 2.472656 12.707031 2.503906 12.707031 L 4.285156 12.707031 C 4.363281 12.707031 4.421875 12.707031 4.40625 12.59375 L 4.40625 10.847656 C 4.417969 10.765625 4.460938 10.695312 4.535156 10.648438 C 5.105469 10.324219 5.46875 9.726562 5.5 9.066406 Z M 5.5 9.066406 "/>
</svg>
