<?xml version="1.0" encoding="UTF-8"?>
<svg xmlns="http://www.w3.org/2000/svg" xmlns:xlink="http://www.w3.org/1999/xlink" width="10.2" height="25.5" viewBox="0 0 10.2 25.5">
<path fill-rule="nonzero" fill="rgb(35.294118%, 35.294118%, 35.294118%)" fill-opacity="1" d="M 3.011719 0 C 2.648438 0.0078125 2.285156 0.046875 1.933594 0.117188 L 1.707031 0.1875 L 1.457031 0.277344 L 1.191406 0.394531 L 1.003906 0.511719 L 0.832031 0.644531 L 0.832031 6.800781 C 0.832031 7.019531 0.933594 7.066406 1.003906 7.191406 L 1.003906 7.707031 L 0.152344 7.707031 C 0.152344 9.941406 0.152344 13.441406 0.152344 15.863281 L 0.152344 16.613281 C 0.117188 16.699219 0 16.800781 0 16.996094 L 0 21.796875 C 0 21.949219 -0.0898438 22.03125 0.117188 22.101562 L 0.117188 25.332031 C 3.394531 25.519531 6.667969 25.519531 9.941406 25.332031 L 9.941406 22.199219 C 10.195312 22.101562 10.195312 21.980469 10.195312 21.824219 L 10.195312 16.996094 C 10.195312 16.746094 10.113281 16.660156 10.011719 16.621094 L 10.011719 15.933594 C 10.011719 13.527344 10.011719 9.960938 10.011719 7.769531 L 9.441406 7.769531 L 9.441406 7.261719 C 9.441406 7.121094 9.621094 7.082031 9.585938 6.867188 L 9.585938 1.769531 L 9.527344 1.707031 L 9.527344 0.863281 C 9.527344 0.832031 9.527344 0.796875 9.527344 0.761719 L 9.199219 0.542969 L 8.941406 0.394531 L 8.699219 0.285156 L 8.503906 0.1875 L 8.230469 0.1875 C 7.761719 0.0664062 7.285156 0.0078125 6.800781 0 Z M 3.011719 0 "/>
<path fill-rule="nonzero" fill="rgb(99.607843%, 99.607843%, 99.607843%)" fill-opacity="1" d="M 1.308594 4.707031 C 2.480469 4.125 3.792969 3.867188 5.097656 3.960938 C 6.425781 3.863281 7.753906 4.121094 8.941406 4.707031 L 8.292969 6.269531 C 7.261719 5.980469 6.183594 5.8125 5.097656 5.792969 C 4.003906 5.8125 2.910156 5.972656 1.855469 6.257812 Z M 1.308594 4.707031 "/>
<path fill-rule="nonzero" fill="rgb(99.607843%, 99.607843%, 99.607843%)" fill-opacity="1" d="M 8.25 13.597656 C 8.230469 12.730469 7.828125 11.917969 7.136719 11.390625 C 7.089844 11.339844 7.019531 11.320312 6.949219 11.324219 C 6.886719 11.34375 6.824219 11.390625 6.800781 11.460938 L 6.800781 13.074219 C 6.820312 13.121094 6.820312 13.175781 6.800781 13.230469 L 5.269531 14.332031 C 5.203125 14.371094 5.113281 14.371094 5.042969 14.332031 L 3.398438 13.214844 C 3.378906 13.160156 3.378906 13.101562 3.398438 13.058594 L 3.398438 11.441406 C 3.398438 11.371094 3.351562 11.300781 3.292969 11.273438 C 3.222656 11.246094 3.152344 11.261719 3.097656 11.300781 C 2.378906 11.859375 1.964844 12.699219 1.957031 13.597656 C 1.988281 14.597656 2.53125 15.492188 3.398438 15.972656 C 3.503906 16.03125 3.566406 16.148438 3.566406 16.269531 L 3.566406 18.890625 C 3.566406 18.9375 3.589844 18.984375 3.621094 19.011719 C 3.660156 19.042969 3.707031 19.058594 3.753906 19.058594 L 6.425781 19.058594 C 6.542969 19.058594 6.632812 19.058594 6.609375 18.890625 L 6.609375 16.269531 C 6.628906 16.148438 6.691406 16.042969 6.800781 15.972656 C 7.660156 15.488281 8.203125 14.589844 8.25 13.597656 Z M 8.25 13.597656 "/>
</svg>
