<?xml version="1.0" encoding="UTF-8"?>
<svg xmlns="http://www.w3.org/2000/svg" xmlns:xlink="http://www.w3.org/1999/xlink" width="8" height="20" viewBox="0 0 8 20">
<path fill-rule="nonzero" fill="rgb(35.294118%, 35.294118%, 35.294118%)" fill-opacity="1" d="M 2.363281 0 C 2.074219 0.00390625 1.792969 0.0351562 1.519531 0.09375 L 1.335938 0.148438 L 1.148438 0.214844 L 0.933594 0.308594 L 0.785156 0.402344 L 0.652344 0.503906 L 0.652344 5.335938 C 0.652344 5.503906 0.730469 5.542969 0.785156 5.636719 L 0.785156 6.039062 L 0.121094 6.039062 C 0.121094 7.800781 0.121094 10.542969 0.121094 12.441406 L 0.121094 13.027344 C 0.09375 13.09375 0 13.175781 0 13.335938 L 0 17.09375 C 0 17.214844 -0.0664062 17.28125 0.09375 17.335938 L 0.09375 19.867188 C 2.660156 20.011719 5.230469 20.011719 7.800781 19.867188 L 7.800781 17.414062 C 8 17.335938 8 17.242188 8 17.121094 L 8 13.335938 C 8 13.132812 7.933594 13.066406 7.851562 13.039062 L 7.851562 12.496094 C 7.851562 10.613281 7.851562 7.8125 7.851562 6.09375 L 7.402344 6.09375 L 7.402344 5.691406 C 7.402344 5.585938 7.542969 5.558594 7.519531 5.386719 L 7.519531 1.386719 L 7.46875 1.335938 L 7.46875 0.679688 C 7.472656 0.652344 7.472656 0.625 7.46875 0.597656 L 7.214844 0.429688 L 7.011719 0.308594 L 6.824219 0.226562 L 6.664062 0.148438 L 6.457031 0.148438 C 6.089844 0.0546875 5.710938 0.00390625 5.335938 0 Z M 2.363281 0 "/>
<path fill-rule="nonzero" fill="rgb(100%, 100%, 100%)" fill-opacity="1" d="M 1.027344 3.691406 C 1.945312 3.238281 2.972656 3.03125 4 3.105469 C 5.039062 3.027344 6.082031 3.226562 7.011719 3.691406 L 6.503906 4.917969 C 5.691406 4.691406 4.847656 4.5625 4 4.542969 C 3.136719 4.5625 2.285156 4.683594 1.457031 4.90625 Z M 1.027344 3.691406 "/>
<path fill-rule="nonzero" fill="rgb(100%, 100%, 100%)" fill-opacity="1" d="M 6.46875 10.664062 C 6.457031 9.988281 6.136719 9.347656 5.597656 8.933594 C 5.5625 8.894531 5.503906 8.875 5.449219 8.882812 C 5.398438 8.898438 5.351562 8.933594 5.335938 8.988281 L 5.335938 10.253906 C 5.347656 10.289062 5.347656 10.335938 5.335938 10.375 L 4.132812 11.242188 C 4.082031 11.273438 4.011719 11.273438 3.960938 11.242188 L 2.664062 10.363281 C 2.652344 10.320312 2.652344 10.277344 2.664062 10.242188 L 2.664062 8.972656 C 2.664062 8.917969 2.628906 8.867188 2.582031 8.84375 C 2.527344 8.820312 2.46875 8.832031 2.429688 8.867188 C 1.867188 9.300781 1.539062 9.960938 1.53125 10.664062 C 1.558594 11.445312 1.988281 12.152344 2.664062 12.53125 C 2.75 12.574219 2.800781 12.664062 2.800781 12.757812 L 2.800781 14.8125 C 2.800781 14.851562 2.816406 14.886719 2.84375 14.910156 C 2.871094 14.9375 2.910156 14.949219 2.945312 14.945312 L 5.039062 14.945312 C 5.132812 14.945312 5.199219 14.945312 5.1875 14.8125 L 5.1875 12.757812 C 5.195312 12.664062 5.25 12.582031 5.335938 12.53125 C 6.003906 12.148438 6.433594 11.441406 6.46875 10.664062 Z M 6.46875 10.664062 "/>
</svg>
