<?xml version="1.0" encoding="UTF-8"?>
<svg xmlns="http://www.w3.org/2000/svg" xmlns:xlink="http://www.w3.org/1999/xlink" width="7" height="17.5" viewBox="0 0 7 17.5">
<path fill-rule="nonzero" fill="rgb(35.294118%, 35.294118%, 35.294118%)" fill-opacity="1" d="M 2.066406 0 C 1.816406 0.00390625 1.570312 0.03125 1.328125 0.0820312 L 1.167969 0.128906 L 1.003906 0.1875 L 0.816406 0.269531 L 0.6875 0.351562 L 0.570312 0.441406 L 0.570312 4.667969 C 0.570312 4.816406 0.640625 4.851562 0.6875 4.933594 L 0.6875 5.285156 L 0.105469 5.285156 C 0.105469 6.824219 0.105469 9.226562 0.105469 10.886719 L 0.105469 11.398438 C 0.0820312 11.457031 0 11.527344 0 11.667969 L 0 14.957031 C 0 15.0625 -0.0585938 15.121094 0.0820312 15.167969 L 0.0820312 17.382812 C 2.328125 17.511719 4.578125 17.511719 6.824219 17.382812 L 6.824219 15.238281 C 7 15.167969 7 15.085938 7 14.980469 L 7 11.667969 C 7 11.492188 6.941406 11.433594 6.871094 11.410156 L 6.871094 10.933594 C 6.871094 9.285156 6.871094 6.835938 6.871094 5.332031 L 6.476562 5.332031 L 6.476562 4.980469 C 6.476562 4.886719 6.601562 4.863281 6.578125 4.714844 L 6.578125 1.214844 L 6.535156 1.167969 L 6.535156 0.59375 C 6.539062 0.570312 6.539062 0.546875 6.535156 0.523438 L 6.3125 0.375 L 6.136719 0.269531 L 5.972656 0.199219 L 5.832031 0.128906 L 5.648438 0.128906 C 5.328125 0.046875 4.996094 0.00390625 4.667969 0 Z M 2.066406 0 "/>
<path fill-rule="nonzero" fill="rgb(100%, 100%, 100%)" fill-opacity="1" d="M 0.898438 3.230469 C 1.703125 2.832031 2.601562 2.652344 3.5 2.71875 C 4.410156 2.648438 5.320312 2.824219 6.136719 3.230469 L 5.691406 4.304688 C 4.980469 4.105469 4.242188 3.992188 3.5 3.976562 C 2.746094 3.992188 2 4.097656 1.273438 4.292969 Z M 0.898438 3.230469 "/>
<path fill-rule="nonzero" fill="rgb(100%, 100%, 100%)" fill-opacity="1" d="M 5.660156 9.332031 C 5.648438 8.738281 5.371094 8.179688 4.898438 7.816406 C 4.867188 7.78125 4.816406 7.765625 4.769531 7.773438 C 4.722656 7.785156 4.683594 7.816406 4.667969 7.863281 L 4.667969 8.972656 C 4.679688 9.003906 4.679688 9.042969 4.667969 9.078125 L 3.617188 9.835938 C 3.570312 9.863281 3.511719 9.863281 3.464844 9.835938 L 2.332031 9.066406 C 2.320312 9.03125 2.320312 8.992188 2.332031 8.960938 L 2.332031 7.851562 C 2.332031 7.804688 2.300781 7.757812 2.257812 7.738281 C 2.210938 7.71875 2.160156 7.726562 2.125 7.757812 C 1.632812 8.136719 1.347656 8.714844 1.339844 9.332031 C 1.363281 10.015625 1.738281 10.632812 2.332031 10.964844 C 2.40625 11.003906 2.449219 11.082031 2.449219 11.164062 L 2.449219 12.960938 C 2.449219 12.996094 2.464844 13.027344 2.488281 13.046875 C 2.511719 13.070312 2.546875 13.082031 2.578125 13.078125 L 4.410156 13.078125 C 4.492188 13.078125 4.550781 13.078125 4.539062 12.960938 L 4.539062 11.164062 C 4.546875 11.082031 4.59375 11.007812 4.667969 10.964844 C 5.253906 10.628906 5.628906 10.011719 5.660156 9.332031 Z M 5.660156 9.332031 "/>
</svg>
