<?xml version="1.0" encoding="UTF-8"?>
<svg xmlns="http://www.w3.org/2000/svg" xmlns:xlink="http://www.w3.org/1999/xlink" width="15.3" height="15.3" viewBox="0 0 15.3 15.3">
<rect x="-1.53" y="-1.53" width="18.36" height="18.36" fill="rgb(35.294118%, 35.294118%, 35.294118%)" fill-opacity="1"/>
<path fill-rule="nonzero" fill="rgb(254, 254, 254)" fill-opacity="1" d="M 4.128906 3.480469 L 1.734375 1.09375 L 13.578125 1.09375 L 11.179688 3.480469 C 9.144531 1.757812 6.167969 1.757812 4.128906 3.480469 Z M 4.128906 3.480469 "/>
<path fill-rule="nonzero" fill="rgb(254, 254, 254)" fill-opacity="1" d="M 10.875 4.421875 C 12.652344 6.210938 12.652344 9.089844 10.875 10.878906 C 9.085938 12.664062 6.199219 12.664062 4.417969 10.878906 C 2.632812 9.089844 2.632812 6.210938 4.417969 4.421875 C 6.199219 2.636719 9.085938 2.636719 10.875 4.421875 Z M 10.875 4.421875 "/>
<path fill-rule="nonzero" fill="rgb(254, 254, 254)" fill-opacity="1" d="M 3.480469 4.121094 C 1.757812 6.15625 1.757812 9.144531 3.480469 11.179688 L 1.09375 13.542969 L 1.09375 1.746094 Z M 3.480469 4.121094 "/>
<path fill-rule="nonzero" fill="rgb(254, 254, 254)" fill-opacity="1" d="M 4.128906 11.832031 C 6.167969 13.554688 9.15625 13.554688 11.191406 11.832031 L 13.578125 14.21875 L 1.71875 14.21875 Z M 4.128906 11.832031 "/>
<path fill-rule="nonzero" fill="rgb(254, 254, 254)" fill-opacity="1" d="M 11.832031 11.179688 C 13.554688 9.144531 13.554688 6.15625 11.832031 4.121094 L 14.203125 1.746094 L 14.203125 13.554688 Z M 11.832031 11.179688 "/>
<path fill-rule="nonzero" fill="rgb(35.294118%, 35.294118%, 35.294118%)" fill-opacity="1" d="M 9.445312 5.851562 C 10.441406 6.847656 10.441406 8.453125 9.445312 9.449219 C 8.449219 10.453125 6.832031 10.453125 5.839844 9.449219 C 4.84375 8.453125 4.84375 6.847656 5.839844 5.851562 C 6.832031 4.847656 8.449219 4.847656 9.445312 5.851562 Z M 9.445312 5.851562 "/>
</svg>
