<?xml version="1.0" encoding="UTF-8"?>
<svg xmlns="http://www.w3.org/2000/svg" xmlns:xlink="http://www.w3.org/1999/xlink" width="22.5" height="22.5" viewBox="0 0 22.5 22.5">
<rect x="-2.25" y="-2.25" width="27" height="27" fill="rgb(35.294118%, 35.294118%, 35.294118%)" fill-opacity="1"/>
<path fill-rule="nonzero" fill="rgb(99.607843%, 99.607843%, 99.607843%)" fill-opacity="1" d="M 6.070312 5.117188 L 2.550781 1.609375 L 19.96875 1.609375 L 16.441406 5.117188 C 13.449219 2.585938 9.070312 2.585938 6.070312 5.117188 Z M 6.070312 5.117188 "/>
<path fill-rule="nonzero" fill="rgb(99.607843%, 99.607843%, 99.607843%)" fill-opacity="1" d="M 15.992188 6.503906 C 18.605469 9.132812 18.605469 13.367188 15.992188 16 C 13.363281 18.625 9.117188 18.625 6.496094 16 C 3.871094 13.367188 3.871094 9.132812 6.496094 6.503906 C 9.117188 3.878906 13.363281 3.878906 15.992188 6.503906 Z M 15.992188 6.503906 "/>
<path fill-rule="nonzero" fill="rgb(99.607843%, 99.607843%, 99.607843%)" fill-opacity="1" d="M 5.117188 6.058594 C 2.585938 9.054688 2.585938 13.449219 5.117188 16.441406 L 1.609375 19.917969 L 1.609375 2.566406 Z M 5.117188 6.058594 "/>
<path fill-rule="nonzero" fill="rgb(99.607843%, 99.607843%, 99.607843%)" fill-opacity="1" d="M 6.070312 17.398438 C 9.070312 19.933594 13.464844 19.933594 16.457031 17.398438 L 19.96875 20.910156 L 2.527344 20.910156 Z M 6.070312 17.398438 "/>
<path fill-rule="nonzero" fill="rgb(99.607843%, 99.607843%, 99.607843%)" fill-opacity="1" d="M 17.398438 16.441406 C 19.933594 13.449219 19.933594 9.054688 17.398438 6.058594 L 20.886719 2.566406 L 20.886719 19.933594 Z M 17.398438 16.441406 "/>
<path fill-rule="nonzero" fill="rgb(35.294118%, 35.294118%, 35.294118%)" fill-opacity="1" d="M 13.890625 8.605469 C 15.355469 10.070312 15.355469 12.429688 13.890625 13.894531 C 12.425781 15.371094 10.046875 15.371094 8.589844 13.894531 C 7.125 12.429688 7.125 10.070312 8.589844 8.605469 C 10.046875 7.128906 12.425781 7.128906 13.890625 8.605469 Z M 13.890625 8.605469 "/>
</svg>
