<?xml version="1.0" encoding="UTF-8"?>
<svg xmlns="http://www.w3.org/2000/svg" xmlns:xlink="http://www.w3.org/1999/xlink" width="16" height="16" viewBox="0 0 16 16">
<rect x="-1.6" y="-1.6" width="19.2" height="19.2" fill="rgb(35.294118%, 35.294118%, 35.294118%)" fill-opacity="1"/>
<path fill-rule="nonzero" fill="rgb(100%, 100%, 100%)" fill-opacity="1" d="M 4.320312 3.636719 L 1.8125 1.148438 L 14.199219 1.148438 L 11.691406 3.636719 C 9.5625 1.84375 6.449219 1.84375 4.320312 3.636719 Z M 4.320312 3.636719 "/>
<path fill-rule="nonzero" fill="rgb(100%, 100%, 100%)" fill-opacity="1" d="M 11.371094 4.625 C 13.230469 6.492188 13.230469 9.507812 11.371094 11.375 C 9.503906 13.242188 6.480469 13.242188 4.621094 11.375 C 2.753906 9.507812 2.753906 6.492188 4.621094 4.625 C 6.480469 2.757812 9.503906 2.757812 11.371094 4.625 Z M 11.371094 4.625 "/>
<path fill-rule="nonzero" fill="rgb(100%, 100%, 100%)" fill-opacity="1" d="M 3.636719 4.308594 C 1.839844 6.4375 1.839844 9.5625 3.636719 11.691406 L 1.148438 14.160156 L 1.148438 1.824219 Z M 3.636719 4.308594 "/>
<path fill-rule="nonzero" fill="rgb(100%, 100%, 100%)" fill-opacity="1" d="M 4.320312 12.375 C 6.449219 14.175781 9.574219 14.175781 11.707031 12.375 L 14.199219 14.867188 L 1.800781 14.867188 Z M 4.320312 12.375 "/>
<path fill-rule="nonzero" fill="rgb(100%, 100%, 100%)" fill-opacity="1" d="M 12.375 11.691406 C 14.175781 9.5625 14.175781 6.4375 12.375 4.308594 L 14.851562 1.824219 L 14.851562 14.175781 Z M 12.375 11.691406 "/>
<path fill-rule="nonzero" fill="rgb(35.294118%, 35.294118%, 35.294118%)" fill-opacity="1" d="M 9.878906 6.117188 C 10.917969 7.15625 10.917969 8.84375 9.878906 9.882812 C 8.839844 10.929688 7.148438 10.929688 6.105469 9.882812 C 5.066406 8.84375 5.066406 7.15625 6.105469 6.117188 C 7.148438 5.070312 8.839844 5.070312 9.878906 6.117188 Z M 9.878906 6.117188 "/>
</svg>
