<?xml version="1.0" encoding="UTF-8"?>
<svg xmlns="http://www.w3.org/2000/svg" xmlns:xlink="http://www.w3.org/1999/xlink" width="14" height="14" viewBox="0 0 14 14">
<rect x="-1.4" y="-1.4" width="16.8" height="16.8" fill="rgb(35.294118%, 35.294118%, 35.294118%)" fill-opacity="1"/>
<path fill-rule="nonzero" fill="rgb(100%, 100%, 100%)" fill-opacity="1" d="M 3.78125 3.183594 L 1.585938 1.003906 L 12.425781 1.003906 L 10.230469 3.183594 C 8.367188 1.613281 5.644531 1.613281 3.78125 3.183594 Z M 3.78125 3.183594 "/>
<path fill-rule="nonzero" fill="rgb(100%, 100%, 100%)" fill-opacity="1" d="M 9.949219 4.046875 C 11.578125 5.679688 11.578125 8.320312 9.949219 9.953125 C 8.316406 11.585938 5.671875 11.585938 4.042969 9.953125 C 2.410156 8.320312 2.410156 5.679688 4.042969 4.046875 C 5.671875 2.414062 8.316406 2.414062 9.949219 4.046875 Z M 9.949219 4.046875 "/>
<path fill-rule="nonzero" fill="rgb(100%, 100%, 100%)" fill-opacity="1" d="M 3.183594 3.769531 C 1.609375 5.632812 1.609375 8.367188 3.183594 10.230469 L 1.003906 12.390625 L 1.003906 1.597656 Z M 3.183594 3.769531 "/>
<path fill-rule="nonzero" fill="rgb(100%, 100%, 100%)" fill-opacity="1" d="M 3.78125 10.828125 C 5.644531 12.402344 8.378906 12.402344 10.242188 10.828125 L 12.425781 13.007812 L 1.574219 13.007812 Z M 3.78125 10.828125 "/>
<path fill-rule="nonzero" fill="rgb(100%, 100%, 100%)" fill-opacity="1" d="M 10.828125 10.230469 C 12.402344 8.367188 12.402344 5.632812 10.828125 3.769531 L 12.996094 1.597656 L 12.996094 12.402344 Z M 10.828125 10.230469 "/>
<path fill-rule="nonzero" fill="rgb(35.294118%, 35.294118%, 35.294118%)" fill-opacity="1" d="M 8.644531 5.351562 C 9.554688 6.261719 9.554688 7.738281 8.644531 8.648438 C 7.734375 9.5625 6.253906 9.5625 5.34375 8.648438 C 4.433594 7.738281 4.433594 6.261719 5.34375 5.351562 C 6.253906 4.4375 7.734375 4.4375 8.644531 5.351562 Z M 8.644531 5.351562 "/>
</svg>
