<?xml version="1.0" encoding="UTF-8"?>
<svg xmlns="http://www.w3.org/2000/svg" xmlns:xlink="http://www.w3.org/1999/xlink" width="15" height="15" viewBox="0 0 15 15">
<rect x="-1.5" y="-1.5" width="18" height="18" fill="rgb(35.294118%, 35.294118%, 35.294118%)" fill-opacity="1"/>
<path fill-rule="nonzero" fill="rgb(100%, 100%, 100%)" fill-opacity="1" d="M 4.050781 3.410156 L 1.699219 1.074219 L 13.3125 1.074219 L 10.960938 3.410156 C 8.964844 1.726562 6.046875 1.726562 4.050781 3.410156 Z M 4.050781 3.410156 "/>
<path fill-rule="nonzero" fill="rgb(100%, 100%, 100%)" fill-opacity="1" d="M 10.660156 4.335938 C 12.40625 6.085938 12.40625 8.914062 10.660156 10.664062 C 8.910156 12.414062 6.078125 12.414062 4.332031 10.664062 C 2.582031 8.914062 2.582031 6.085938 4.332031 4.335938 C 6.078125 2.585938 8.910156 2.585938 10.660156 4.335938 Z M 10.660156 4.335938 "/>
<path fill-rule="nonzero" fill="rgb(100%, 100%, 100%)" fill-opacity="1" d="M 3.410156 4.039062 C 1.722656 6.035156 1.722656 8.964844 3.410156 10.960938 L 1.074219 13.277344 L 1.074219 1.710938 Z M 3.410156 4.039062 "/>
<path fill-rule="nonzero" fill="rgb(100%, 100%, 100%)" fill-opacity="1" d="M 4.050781 11.601562 C 6.046875 13.289062 8.976562 13.289062 10.972656 11.601562 L 13.3125 13.9375 L 1.6875 13.9375 Z M 4.050781 11.601562 "/>
<path fill-rule="nonzero" fill="rgb(100%, 100%, 100%)" fill-opacity="1" d="M 11.601562 10.960938 C 13.289062 8.964844 13.289062 6.035156 11.601562 4.039062 L 13.925781 1.710938 L 13.925781 13.289062 Z M 11.601562 10.960938 "/>
<path fill-rule="nonzero" fill="rgb(35.294118%, 35.294118%, 35.294118%)" fill-opacity="1" d="M 9.261719 5.734375 C 10.238281 6.710938 10.238281 8.289062 9.261719 9.265625 C 8.285156 10.246094 6.699219 10.246094 5.726562 9.265625 C 4.75 8.289062 4.75 6.710938 5.726562 5.734375 C 6.699219 4.753906 8.285156 4.753906 9.261719 5.734375 Z M 9.261719 5.734375 "/>
</svg>
