<?xml version="1.0" encoding="UTF-8"?>
<svg xmlns="http://www.w3.org/2000/svg" xmlns:xlink="http://www.w3.org/1999/xlink" width="32px" height="32px" viewBox="0 0 32 32" version="1.1">
<g id="surface1">
<path style=" stroke:none;fill-rule:nonzero;fill:rgb(21.568628%,65.882355%,85.882354%);fill-opacity:1;" d="M 15.769531 23.289062 C 15.828125 23.347656 15.882812 23.402344 16 23.402344 C 16.058594 23.402344 16.171875 23.347656 16.230469 23.289062 C 16.691406 22.835938 17.617188 21.816406 18.484375 20.566406 C 19.640625 18.976562 20.96875 16.652344 20.96875 14.609375 C 20.96875 11.886719 18.714844 9.730469 16 9.730469 C 13.226562 9.730469 11.03125 11.945312 11.03125 14.609375 C 11.03125 16.652344 12.417969 18.976562 13.515625 20.566406 C 14.441406 21.816406 15.308594 22.777344 15.769531 23.289062 Z M 16 11.546875 C 17.675781 11.546875 19.0625 12.90625 19.0625 14.554688 C 19.0625 16.199219 17.675781 17.558594 16 17.558594 C 14.324219 17.558594 12.9375 16.199219 12.9375 14.554688 C 12.9375 12.851562 14.324219 11.546875 16 11.546875 Z M 16 11.546875 "/>
<path style="fill-rule:nonzero;fill:rgb(25.098041%,25.098041%,25.098041%);fill-opacity:1;stroke-width:1;stroke-linecap:butt;stroke-linejoin:miter;stroke:rgb(0%,0%,0%);stroke-opacity:1;stroke-miterlimit:4;" d="M 350.602095 10.000172 C 350.602095 8.299416 349.202217 6.998027 347.599458 6.998027 C 345.902021 6.998027 344.596821 8.4027 344.596821 10.000172 C 344.596821 11.700929 345.996699 13.002317 347.599458 13.002317 C 347.998457 13.002317 348.397456 12.899032 348.701777 12.802633 L 354.90317 18.999722 L 356.600606 17.298965 L 350.399214 11.101877 C 350.500654 10.798908 350.602095 10.39954 350.602095 10.000172 Z M 350.602095 10.000172 " transform="matrix(0.577617,0,0,0.567303,-194.021638,0.994844)"/>
<path style="fill-rule:nonzero;fill:rgb(25.098041%,25.098041%,25.098041%);fill-opacity:1;stroke-width:1;stroke-linecap:butt;stroke-linejoin:miter;stroke:rgb(0%,0%,0%);stroke-opacity:1;stroke-miterlimit:4;" d="M 347.599458 -1.698554 C 341.100507 -1.698554 335.899994 3.500115 335.899994 10.000172 C 335.899994 16.50023 341.100507 21.698898 347.599458 21.698898 C 349.296895 21.698898 350.798213 21.29953 352.299532 20.700479 L 350.500654 18.903323 C 349.601216 19.199406 348.701777 19.302691 347.700898 19.302691 C 342.601826 19.302691 338.402191 15.102442 338.402191 10.000172 C 338.402191 4.897902 342.601826 0.697653 347.700898 0.697653 C 352.799971 0.697653 356.999605 4.897902 356.999605 10.000172 C 356.999605 11.301561 356.702047 12.499665 356.303048 13.601369 L 358.101925 15.398525 C 358.899923 13.801053 359.400362 11.997012 359.400362 10.000172 C 359.298922 3.500115 354.098409 -1.698554 347.599458 -1.698554 Z M 347.599458 -1.698554 " transform="matrix(0.577617,0,0,0.567303,-194.021638,0.994844)"/>
<path style="fill-rule:nonzero;fill:rgb(34.509805%,34.509805%,35.294119%);fill-opacity:1;stroke-width:1;stroke-linecap:butt;stroke-linejoin:miter;stroke:rgb(0%,0%,0%);stroke-opacity:1;stroke-miterlimit:4;" d="M 376.597898 10.000172 C 376.597898 8.299416 377.997776 6.998027 379.600535 6.998027 C 381.297972 6.998027 382.603172 8.4027 382.603172 10.000172 C 382.603172 11.700929 381.203294 13.002317 379.600535 13.002317 C 379.201536 13.002317 378.802537 12.899032 378.498216 12.802633 L 372.296824 18.999722 L 370.599387 17.298965 L 376.800779 11.101877 C 376.597898 10.798908 376.597898 10.39954 376.597898 10.000172 Z M 376.597898 10.000172 " transform="matrix(0.577617,0,0,0.567303,-194.021638,0.994844)"/>
<path style="fill-rule:nonzero;fill:rgb(25.098041%,25.098041%,25.098041%);fill-opacity:1;stroke-width:1;stroke-linecap:butt;stroke-linejoin:miter;stroke:rgb(0%,0%,0%);stroke-opacity:1;stroke-miterlimit:4;" d="M 379.600535 -1.698554 C 386.099486 -1.698554 391.299999 3.500115 391.299999 10.000172 C 391.299999 16.50023 386.099486 21.698898 379.600535 21.698898 C 377.903099 21.698898 376.40178 21.29953 374.900462 20.700479 L 376.699339 18.903323 C 377.598777 19.199406 378.498216 19.302691 379.499095 19.302691 C 384.598168 19.302691 388.797802 15.102442 388.797802 10.000172 C 388.797802 4.897902 384.598168 0.697653 379.499095 0.697653 C 374.400022 0.697653 370.200388 4.897902 370.200388 10.000172 C 370.200388 11.301561 370.497946 12.499665 370.896946 13.601369 L 369.098068 15.398525 C 368.30007 13.801053 367.799631 11.997012 367.799631 10.000172 C 367.901071 3.500115 373.101584 -1.698554 379.600535 -1.698554 Z M 379.600535 -1.698554 " transform="matrix(0.577617,0,0,0.567303,-194.021638,0.994844)"/>
<path style="fill-rule:nonzero;fill:rgb(25.098041%,25.098041%,25.098041%);fill-opacity:1;stroke-width:1;stroke-linecap:butt;stroke-linejoin:miter;stroke:rgb(0%,0%,0%);stroke-opacity:1;stroke-miterlimit:4;" d="M 350.602095 42.899827 C 350.602095 44.600584 349.202217 45.901972 347.599458 45.901972 C 345.902021 45.901972 344.596821 44.497299 344.596821 42.899827 C 344.596821 41.199071 345.996699 39.897682 347.599458 39.897682 C 347.998457 39.897682 348.397456 40.000967 348.701777 40.097366 L 354.90317 33.900277 L 356.600606 35.601034 L 350.399214 41.798123 C 350.500654 42.101091 350.602095 42.500459 350.602095 42.899827 Z M 350.602095 42.899827 " transform="matrix(0.577617,0,0,0.567303,-194.021638,0.994844)"/>
<path style="fill-rule:nonzero;fill:rgb(25.098041%,25.098041%,25.098041%);fill-opacity:1;stroke-width:1;stroke-linecap:butt;stroke-linejoin:miter;stroke:rgb(0%,0%,0%);stroke-opacity:1;stroke-miterlimit:4;" d="M 347.599458 54.598554 C 341.100507 54.598554 335.899994 49.399885 335.899994 42.899827 C 335.899994 36.39977 341.100507 31.201101 347.599458 31.201101 C 349.296895 31.201101 350.798213 31.600469 352.299532 32.199521 L 350.500654 33.996677 C 349.601216 33.700593 348.701777 33.597309 347.700898 33.597309 C 342.601826 33.597309 338.402191 37.797558 338.402191 42.899827 C 338.402191 48.002097 342.601826 52.202346 347.700898 52.202346 C 352.799971 52.202346 356.999605 48.002097 356.999605 42.899827 C 356.999605 41.598439 356.702047 40.400335 356.303048 39.29863 L 358.101925 37.501474 C 358.899923 39.098946 359.400362 40.902988 359.400362 42.899827 C 359.298922 49.399885 354.098409 54.598554 347.599458 54.598554 Z M 347.599458 54.598554 " transform="matrix(0.577617,0,0,0.567303,-194.021638,0.994844)"/>
<path style="fill-rule:nonzero;fill:rgb(25.098041%,25.098041%,25.098041%);fill-opacity:1;stroke-width:1;stroke-linecap:butt;stroke-linejoin:miter;stroke:rgb(0%,0%,5.882353%);stroke-opacity:1;stroke-miterlimit:4;" d="M 376.597898 42.899827 C 376.597898 44.600584 377.997776 45.901972 379.600535 45.901972 C 381.297972 45.901972 382.603172 44.497299 382.603172 42.899827 C 382.603172 41.199071 381.203294 39.897682 379.600535 39.897682 C 379.201536 39.897682 378.802537 40.000967 378.498216 40.097366 L 372.296824 33.900277 L 370.599387 35.601034 L 376.800779 41.798123 C 376.597898 42.101091 376.597898 42.500459 376.597898 42.899827 Z M 376.597898 42.899827 " transform="matrix(0.577617,0,0,0.567303,-194.021638,0.994844)"/>
<path style="fill-rule:nonzero;fill:rgb(25.098041%,25.098041%,25.098041%);fill-opacity:1;stroke-width:1;stroke-linecap:butt;stroke-linejoin:miter;stroke:rgb(0%,0%,5.882353%);stroke-opacity:1;stroke-miterlimit:4;" d="M 379.600535 54.598554 C 386.099486 54.598554 391.299999 49.399885 391.299999 42.899827 C 391.299999 36.39977 386.099486 31.201101 379.600535 31.201101 C 377.903099 31.201101 376.40178 31.600469 374.900462 32.199521 L 376.699339 33.996677 C 377.598777 33.700593 378.498216 33.597309 379.499095 33.597309 C 384.598168 33.597309 388.797802 37.797558 388.797802 42.899827 C 388.797802 48.002097 384.598168 52.202346 379.499095 52.202346 C 374.400022 52.202346 370.200388 48.002097 370.200388 42.899827 C 370.200388 41.598439 370.497946 40.400335 370.896946 39.29863 L 369.098068 37.501474 C 368.30007 39.098946 367.799631 40.902988 367.799631 42.899827 C 367.901071 49.399885 373.101584 54.598554 379.600535 54.598554 Z M 379.600535 54.598554 " transform="matrix(0.577617,0,0,0.567303,-194.021638,0.994844)"/>
</g>
</svg>
