<?xml version="1.0" encoding="UTF-8" standalone="no"?>
<!-- Uploaded to: SVG Repo, www.svgrepo.com, Generator: SVG Repo Mixer Tools -->

<svg
   fill="#000000"
   width="800px"
   height="800px"
   viewBox="0 0 256 256"
   id="Flat"
   version="1.1"
   sodipodi:docname="paper-plane-duotone-svgrepo-com.svg"
   inkscape:version="1.3.2 (091e20ef0f, 2023-11-25, custom)"
   xmlns:inkscape="http://www.inkscape.org/namespaces/inkscape"
   xmlns:sodipodi="http://sodipodi.sourceforge.net/DTD/sodipodi-0.dtd"
   xmlns="http://www.w3.org/2000/svg"
   xmlns:svg="http://www.w3.org/2000/svg">
  <defs
     id="defs2" />
  <sodipodi:namedview
     id="namedview2"
     pagecolor="#ffffff"
     bordercolor="#666666"
     borderopacity="1.0"
     inkscape:showpageshadow="2"
     inkscape:pageopacity="0.0"
     inkscape:pagecheckerboard="0"
     inkscape:deskcolor="#d1d1d1"
     inkscape:zoom="1.0125"
     inkscape:cx="400"
     inkscape:cy="400"
     inkscape:window-width="1920"
     inkscape:window-height="1014"
     inkscape:window-x="0"
     inkscape:window-y="0"
     inkscape:window-maximized="1"
     inkscape:current-layer="Flat" />
  <g
     id="g2">
    <path
       d="M 120.90154,36.46437 26.30921,205.37925 A 8,8 0 0 0 35.98,216.822 l 89.211,-31.86106 a 8,8 0 0 1 5.38138,0 l 89.211,31.86106 a 8,8 0 0 0 9.67074,-11.44277 L 134.86164,36.46437 a 8,8 0 0 0 -13.9601,0 z"
       id="path1"
       style="opacity:0.5;fill:#00ffff" />
    <path
       d="M236.43432,201.4707l-94.59179-168.915a16.00119,16.00119,0,0,0-27.92188,0L19.32885,201.47021A16.00042,16.00042,0,0,0,38.67065,224.356l89.21094-31.86084L217.09253,224.356a16.171,16.171,0,0,0,5.44531.95117,16.02221,16.02221,0,0,0,13.89648-23.83643ZM135.88159,178.3623V120a8,8,0,1,0-16,0v58.3623l-86.58789,30.918L127.88159,40.37305l94.584,168.91211Z"
       id="path2" />
  </g>
</svg>
