<?xml version="1.0" encoding="UTF-8"?>
<svg xmlns="http://www.w3.org/2000/svg" xmlns:xlink="http://www.w3.org/1999/xlink" width="32" height="32" viewBox="0 0 32 32">
<defs>
<clipPath id="clip-0">
<path clip-rule="nonzero" d="M 32 16 C 32 24.835938 24.835938 32 16 32 C 7.164062 32 0 24.835938 0 16 C 0 7.164062 7.164062 0 16 0 C 24.835938 0 32 7.164062 32 16 Z M 32 16 "/>
</clipPath>
<clipPath id="clip-1">
<path clip-rule="nonzero" d="M 0 15 L 32 15 L 32 32 L 0 32 Z M 0 15 "/>
</clipPath>
<clipPath id="clip-2">
<path clip-rule="nonzero" d="M 32 16 C 32 24.835938 24.835938 32 16 32 C 7.164062 32 0 24.835938 0 16 C 0 7.164062 7.164062 0 16 0 C 24.835938 0 32 7.164062 32 16 Z M 32 16 "/>
</clipPath>
</defs>
<g clip-path="url(#clip-0)">
<rect x="-3.2" y="-3.2" width="38.4" height="38.4" fill="rgb(0%, 35.686275%, 73.333333%)" fill-opacity="1"/>
</g>
<g clip-path="url(#clip-1)">
<g clip-path="url(#clip-2)">
<path fill-rule="nonzero" fill="rgb(100%, 83.529412%, 0%)" fill-opacity="1" d="M -48.78125 15.949219 L 55.242188 15.949219 L 55.242188 50.625 L -48.78125 50.625 Z M -48.78125 15.949219 "/>
</g>
</g>
</svg>
