<?xml version="1.0" encoding="UTF-8"?>
<svg xmlns="http://www.w3.org/2000/svg" xmlns:xlink="http://www.w3.org/1999/xlink" width="32" height="32" viewBox="0 0 32 32">
<defs>
<linearGradient id="linear-pattern-0" gradientUnits="userSpaceOnUse" x1="146.34433" y1="396.840302" x2="653.833801" y2="396.840302">
<stop offset="0" stop-color="rgb(0%, 33.72549%, 72.54902%)" stop-opacity="1"/>
<stop offset="1" stop-color="rgb(100%, 84.705882%, 0%)" stop-opacity="1"/>
</linearGradient>
</defs>
<path fill-rule="nonzero" fill="rgb(0%, 0%, 0%)" fill-opacity="1" d="M 16.402344 0 L 15.742188 0 C 9.613281 0 4.554688 4.941406 4.554688 11.070312 L 4.554688 31.347656 C 4.554688 31.597656 4.738281 31.824219 4.964844 31.933594 C 5.1875 32.042969 5.476562 32.015625 5.671875 31.855469 L 8.496094 29.605469 L 10.703125 31.808594 C 10.957031 32.0625 11.371094 32.0625 11.628906 31.808594 L 13.78125 29.65625 L 15.9375 31.808594 C 16.191406 32.0625 16.605469 32.0625 16.863281 31.808594 L 19.015625 29.65625 L 21.167969 31.808594 C 21.421875 32.0625 21.835938 32.0625 22.09375 31.808594 L 24.246094 29.65625 L 26.398438 31.808594 C 26.523438 31.933594 26.691406 32 26.863281 32 C 26.945312 32 26.996094 31.984375 27.078125 31.949219 C 27.320312 31.847656 27.445312 31.609375 27.445312 31.347656 L 27.445312 11.070312 C 27.445312 4.941406 22.53125 0 16.402344 0 Z M 26.136719 29.765625 L 24.671875 28.269531 C 24.417969 28.011719 24.023438 28.011719 23.765625 28.269531 L 21.621094 30.421875 L 19.472656 28.269531 C 19.34375 28.140625 19.179688 28.078125 19.011719 28.078125 C 18.84375 28.078125 18.679688 28.140625 18.550781 28.269531 L 16.398438 30.421875 L 14.246094 28.269531 C 13.992188 28.011719 13.578125 28.011719 13.320312 28.269531 L 11.167969 30.421875 L 9.015625 28.269531 C 8.777344 28.03125 8.367188 28.011719 8.109375 28.21875 L 5.863281 29.984375 L 5.863281 11.070312 C 5.863281 5.664062 10.335938 1.308594 15.742188 1.308594 L 16.402344 1.308594 C 21.808594 1.308594 26.136719 5.664062 26.136719 11.070312 Z M 26.136719 29.765625 "/>
<path fill-rule="nonzero" fill="rgb(0%, 0%, 0%)" fill-opacity="1" d="M 12.148438 9.765625 C 11.246094 9.765625 10.515625 10.5 10.515625 11.402344 C 10.515625 12.304688 11.246094 13.035156 12.148438 13.035156 C 13.050781 13.035156 13.785156 12.304688 13.785156 11.402344 C 13.785156 10.5 13.050781 9.765625 12.148438 9.765625 Z M 12.148438 11.726562 C 11.96875 11.726562 11.820312 11.582031 11.820312 11.402344 C 11.820312 11.222656 11.96875 11.074219 12.148438 11.074219 C 12.328125 11.074219 12.476562 11.222656 12.476562 11.402344 C 12.476562 11.582031 12.328125 11.726562 12.148438 11.726562 Z M 12.148438 11.726562 "/>
<path fill-rule="nonzero" fill="rgb(0%, 0%, 0%)" fill-opacity="1" d="M 19.996094 9.765625 C 19.09375 9.765625 18.359375 10.5 18.359375 11.402344 C 18.359375 12.304688 19.09375 13.035156 19.996094 13.035156 C 20.898438 13.035156 21.628906 12.304688 21.628906 11.402344 C 21.628906 10.5 20.898438 9.765625 19.996094 9.765625 Z M 19.996094 11.726562 C 19.816406 11.726562 19.667969 11.582031 19.667969 11.402344 C 19.667969 11.222656 19.816406 11.074219 19.996094 11.074219 C 20.175781 11.074219 20.324219 11.222656 20.324219 11.402344 C 20.324219 11.582031 20.175781 11.726562 19.996094 11.726562 Z M 19.996094 11.726562 "/>
<path fill-rule="nonzero" fill="url(#linear-pattern-0)" stroke-width="1.1" stroke-linecap="butt" stroke-linejoin="miter" stroke="rgb(0%, 0%, 0%)" stroke-opacity="1" stroke-miterlimit="4" d="M 250.292974 731.15236 C 222.167974 703.125016 221.48438 702.539078 216.79688 701.855484 C 213.867192 701.367203 210.449223 701.562516 208.20313 702.246109 C 205.85938 702.929703 193.750004 711.816422 176.074223 725.68361 C 160.449222 737.890641 147.460941 747.949235 147.167972 747.949235 C 146.875003 747.949235 146.777347 637.402358 146.97266 502.343761 C 147.363285 229.101568 146.777347 250.097662 154.101566 220.117192 C 169.62891 156.152347 209.960942 102.14844 268.066412 67.675783 C 296.386725 50.878907 328.027351 39.941407 362.792977 35.058595 C 377.636727 32.910157 429.589853 33.203126 444.140635 35.44922 C 476.953136 40.625001 506.347668 50.878907 533.105481 66.69922 C 602.734388 108.007815 646.679702 179.589848 652.246108 260.937506 C 652.832046 270.117194 653.222671 362.890633 653.222671 509.277355 L 653.320327 743.066423 L 634.179702 723.535172 C 623.632826 712.695328 613.671889 703.417984 611.914076 702.734391 C 610.156264 701.953141 607.324232 701.367203 605.56642 701.367203 C 598.730482 701.367203 594.433607 704.785172 567.285169 732.71486 L 540.820325 759.863298 L 512.500011 731.640641 C 496.972667 716.113297 483.007823 703.027359 481.445323 702.441422 C 479.980479 701.855484 477.148448 701.367203 475.292979 701.367203 C 473.535167 701.367203 470.703136 701.855484 469.238292 702.441422 C 467.675792 703.027359 453.710948 716.113297 438.183604 731.640641 L 409.86329 759.863298 L 382.128915 732.031266 C 366.894539 716.699235 352.929695 703.515641 351.171883 702.734391 C 347.07032 700.976578 342.871101 700.976578 338.281258 702.929703 C 335.839851 703.906266 325.19532 713.769547 306.835944 732.128923 L 279.101569 759.863298 Z M 311.425788 325.683601 C 324.121101 323.242195 334.863289 315.03907 340.722664 303.027351 C 344.335945 295.800788 344.531258 295.117194 344.531258 285.0586 C 344.531258 275.390631 344.238289 274.1211 341.406258 268.164068 C 335.253914 255.371099 325.390632 247.460943 311.914069 244.726568 C 293.066413 240.917974 274.707037 250.195318 266.015631 267.8711 C 263.378912 273.144537 263.1836 274.511725 263.1836 284.960944 C 263.1836 295.507819 263.378912 296.875007 266.015631 302.148444 C 274.609381 319.628913 292.8711 329.10157 311.425788 325.683601 Z M 509.570324 325.097664 C 531.542981 320.117195 545.507825 297.167975 539.843762 275.097662 C 535.644543 258.4961 523.242199 247.167974 506.347668 244.335943 C 488.867198 241.308599 470.703136 250.781256 462.695323 267.08985 C 459.667979 273.242194 459.472667 274.1211 459.472667 284.960944 C 459.472667 295.312507 459.765635 296.972663 462.109385 302.148444 C 468.75001 316.113288 483.88673 325.97657 499.414074 326.562507 C 501.269542 326.562507 505.76173 325.97657 509.570324 325.097664 Z M 509.570324 325.097664 " transform="matrix(0.04, 0, 0, 0.04, 0, 0)"/>
</svg>
