<?xml version="1.0" encoding="UTF-8"?>
<svg xmlns="http://www.w3.org/2000/svg" xmlns:xlink="http://www.w3.org/1999/xlink" width="40" height="40" viewBox="0 0 40 40">
<path fill-rule="nonzero" fill="rgb(47.058824%, 72.54902%, 92.156863%)" fill-opacity="1" d="M 20 40 L 13.601562 35.734375 L 15.160156 33.394531 L 24.839844 33.394531 L 26.398438 35.734375 Z M 20 40 "/>
<path fill-rule="nonzero" fill="rgb(35.294118%, 54.509804%, 69.019608%)" fill-opacity="1" d="M 20 40 L 20 33.394531 L 24.839844 33.394531 L 26.398438 35.734375 Z M 20 40 "/>
<path fill-rule="nonzero" fill="rgb(57.647059%, 78.039216%, 93.72549%)" fill-opacity="1" d="M 20 0 L 3.464844 39.683594 L 17.191406 35.109375 L 20 34.171875 L 22.808594 35.109375 L 36.535156 39.683594 Z M 20 0 "/>
<path fill-rule="nonzero" fill="rgb(74.901961%, 89.411765%, 97.254902%)" fill-opacity="1" d="M 20 34.171875 L 22.808594 35.109375 L 36.535156 39.683594 "/>
<path fill-rule="nonzero" fill="rgb(47.058824%, 72.54902%, 92.156863%)" fill-opacity="1" d="M 20 0 L 20 34.171875 L 36.535156 39.683594 Z M 20 0 "/>
<path fill-rule="nonzero" fill="rgb(74.901961%, 89.411765%, 97.254902%)" fill-opacity="1" d="M 20 0 L 3.464844 39.683594 L 17.191406 35.109375 Z M 20 0 "/>
<path fill-rule="nonzero" fill="rgb(57.647059%, 78.039216%, 93.72549%)" fill-opacity="1" d="M 20 0 L 22.808594 35.109375 L 36.535156 39.683594 Z M 20 0 "/>
</svg>
