<?xml version="1.0" encoding="UTF-8"?>
<svg xmlns="http://www.w3.org/2000/svg" xmlns:xlink="http://www.w3.org/1999/xlink" width="48" height="48" viewBox="0 0 48 48">
<path fill-rule="nonzero" fill="rgb(100%, 0%, 100%)" fill-opacity="1" d="M 39.234375 0 L 8.765625 0 C 3.933594 0 0 3.933594 0 8.769531 L 0 39.230469 C 0 44.066406 3.933594 48 8.765625 48 L 39.234375 48 C 44.066406 48 48 44.066406 48 39.230469 L 48 8.769531 C 48 3.933594 44.066406 0 39.234375 0 Z M 44.960938 39.230469 C 44.960938 42.390625 42.390625 44.960938 39.234375 44.960938 L 8.765625 44.960938 C 5.609375 44.960938 3.039062 42.390625 3.039062 39.230469 L 3.039062 8.769531 C 3.039062 5.609375 5.609375 3.039062 8.765625 3.039062 L 39.234375 3.039062 C 42.390625 3.039062 44.960938 5.609375 44.960938 8.769531 Z M 44.960938 39.230469 "/>
<path fill-rule="nonzero" fill="rgb(100%, 0%, 100%)" fill-opacity="1" d="M 24 9.710938 C 19.894531 9.710938 16.558594 13.050781 16.558594 17.152344 C 16.558594 17.992188 17.238281 18.671875 18.074219 18.671875 C 18.914062 18.671875 19.59375 17.992188 19.59375 17.152344 C 19.59375 14.726562 21.570312 12.75 24 12.75 C 26.429688 12.75 28.40625 14.726562 28.40625 17.152344 C 28.40625 18.550781 27.394531 19.484375 25.730469 20.855469 C 24.207031 22.113281 22.480469 23.535156 22.480469 25.800781 L 22.480469 30.671875 C 22.480469 31.511719 23.160156 32.191406 24 32.191406 C 24.839844 32.191406 25.519531 31.511719 25.519531 30.671875 L 25.519531 25.800781 C 25.519531 24.96875 26.511719 24.148438 27.664062 23.199219 C 29.347656 21.8125 31.441406 20.085938 31.441406 17.152344 C 31.445312 13.050781 28.105469 9.710938 24 9.710938 Z M 24 9.710938 "/>
<path fill-rule="nonzero" fill="rgb(100%, 0%, 100%)" fill-opacity="1" d="M 24 34.394531 C 22.925781 34.394531 22.050781 35.265625 22.050781 36.339844 C 22.050781 37.414062 22.925781 38.289062 24 38.289062 C 25.074219 38.289062 25.949219 37.414062 25.949219 36.339844 C 25.949219 35.265625 25.074219 34.394531 24 34.394531 Z M 24 34.394531 "/>
</svg>
