<svg width="5" height="125" viewBox="0 0 5 125" version="1.1" id="svg1"
   xmlns="http://www.w3.org/2000/svg" xmlns:svg="http://www.w3.org/2000/svg">
  <g id="alts">
<rect
style="opacity:1;fill:#ffad32;stroke:#ffad32;stroke-width:0;stroke-dasharray:none"
id="alt_0" width="5" height="5" x="0" y="120" />
<rect
style="opacity:1;fill:#ffd132;stroke:#ffd132;stroke-width:0;stroke-dasharray:none"
id="alt_500" width="5" height="5" x="0" y="115" />
<rect
style="opacity:1;fill:#fff432;stroke:#fff432;stroke-width:0;stroke-dasharray:none"
id="alt_1000" width="5" height="5" x="0" y="110" />
<rect
style="opacity:1;fill:#e5ff32;stroke:#e5ff32;stroke-width:0;stroke-dasharray:none"
id="alt_1500" width="5" height="5" x="0" y="105" />
<rect
style="opacity:1;fill:#c1ff32;stroke:#c1ff32;stroke-width:0;stroke-dasharray:none"
id="alt_2000" width="5" height="5" x="0" y="100" />
<rect
style="opacity:1;fill:#9eff32;stroke:#9eff32;stroke-width:0;stroke-dasharray:none"
id="alt_2500" width="5" height="5" x="0" y="95" />
<rect
style="opacity:1;fill:#7aff32;stroke:#7aff32;stroke-width:0;stroke-dasharray:none"
id="alt_3000" width="5" height="5" x="0" y="90" />
<rect
style="opacity:1;fill:#56ff32;stroke:#56ff32;stroke-width:0;stroke-dasharray:none"
id="alt_3500" width="5" height="5" x="0" y="85" />
<rect
style="opacity:1;fill:#32ff32;stroke:#32ff32;stroke-width:0;stroke-dasharray:none"
id="alt_4000" width="5" height="5" x="0" y="80" />
<rect
style="opacity:1;fill:#32ff56;stroke:#32ff56;stroke-width:0;stroke-dasharray:none"
id="alt_4500" width="5" height="5" x="0" y="75" />
<rect
style="opacity:1;fill:#32ff7a;stroke:#32ff7a;stroke-width:0;stroke-dasharray:none"
id="alt_5000" width="5" height="5" x="0" y="70" />
<rect
style="opacity:1;fill:#32ff9e;stroke:#32ff9e;stroke-width:0;stroke-dasharray:none"
id="alt_5500" width="5" height="5" x="0" y="65" />
<rect
style="opacity:1;fill:#32ffc1;stroke:#32ffc1;stroke-width:0;stroke-dasharray:none"
id="alt_6000" width="5" height="5" x="0" y="60" />
<rect
style="opacity:1;fill:#32ffe5;stroke:#32ffe5;stroke-width:0;stroke-dasharray:none"
id="alt_6500" width="5" height="5" x="0" y="55" />
<rect
style="opacity:1;fill:#32f4ff;stroke:#32f4ff;stroke-width:0;stroke-dasharray:none"
id="alt_7000" width="5" height="5" x="0" y="50" />
<rect
style="opacity:1;fill:#32d1ff;stroke:#32d1ff;stroke-width:0;stroke-dasharray:none"
id="alt_7500" width="5" height="5" x="0" y="45" />
<rect
style="opacity:1;fill:#32adff;stroke:#32adff;stroke-width:0;stroke-dasharray:none"
id="alt_8000" width="5" height="5" x="0" y="40" />
<rect
style="opacity:1;fill:#3289ff;stroke:#3289ff;stroke-width:0;stroke-dasharray:none"
id="alt_8500" width="5" height="5" x="0" y="35" />
<rect
style="opacity:1;fill:#3265ff;stroke:#3265ff;stroke-width:0;stroke-dasharray:none"
id="alt_9000" width="5" height="5" x="0" y="30" />
<rect
style="opacity:1;fill:#3242ff;stroke:#3242ff;stroke-width:0;stroke-dasharray:none"
id="alt_9500" width="5" height="5" x="0" y="25" />
<rect
style="opacity:1;fill:#4732ff;stroke:#4732ff;stroke-width:0;stroke-dasharray:none"
id="alt_10000" width="5" height="5" x="0" y="20" />
<rect
style="opacity:1;fill:#6b32ff;stroke:#6b32ff;stroke-width:0;stroke-dasharray:none"
id="alt_10500" width="5" height="5" x="0" y="15" />
<rect
style="opacity:1;fill:#8e32ff;stroke:#8e32ff;stroke-width:0;stroke-dasharray:none"
id="alt_11000" width="5" height="5" x="0" y="10" />
<rect
style="opacity:1;fill:#b232ff;stroke:#b232ff;stroke-width:0;stroke-dasharray:none"
id="alt_11500" width="5" height="5" x="0" y="5" />
<rect
style="opacity:1;fill:#d632ff;stroke:#d632ff;stroke-width:0;stroke-dasharray:none"
id="alt_12000" width="5" height="5" x="0" y="0" />
 </g>
</svg>
