<?xml version="1.0" encoding="UTF-8"?>
<svg xmlns="http://www.w3.org/2000/svg" xmlns:xlink="http://www.w3.org/1999/xlink" width="604" height="24" viewBox="0 0 604 24">
<defs>
<filter id="filter-remove-color" x="0%" y="0%" width="100%" height="100%">
<feColorMatrix color-interpolation-filters="sRGB" values="0 0 0 0 1 0 0 0 0 1 0 0 0 0 1 0 0 0 1 0" />
</filter>
<mask id="mask-0">
<g filter="url(#filter-remove-color)">
<rect x="-60.4" y="-2.4" width="724.8" height="28.8" fill="rgb(0%, 0%, 0%)" fill-opacity="0.8"/>
</g>
</mask>
<clipPath id="clip-0">
<rect x="0" y="0" width="604" height="24"/>
</clipPath>
<g id="source-7" clip-path="url(#clip-0)">
<path fill-rule="nonzero" fill="rgb(100%, 43.921569%, 19.607843%)" fill-opacity="1" d="M 80 0 L 100 0 L 100 10 L 80 10 Z M 80 0 "/>
</g>
<mask id="mask-1">
<g filter="url(#filter-remove-color)">
<rect x="-60.4" y="-2.4" width="724.8" height="28.8" fill="rgb(0%, 0%, 0%)" fill-opacity="0.8"/>
</g>
</mask>
<clipPath id="clip-1">
<rect x="0" y="0" width="604" height="24"/>
</clipPath>
<g id="source-12" clip-path="url(#clip-1)">
<path fill-rule="nonzero" fill="rgb(100%, 58.823529%, 19.607843%)" fill-opacity="1" d="M 100 0 L 120 0 L 120 10 L 100 10 Z M 100 0 "/>
</g>
<mask id="mask-2">
<g filter="url(#filter-remove-color)">
<rect x="-60.4" y="-2.4" width="724.8" height="28.8" fill="rgb(0%, 0%, 0%)" fill-opacity="0.8"/>
</g>
</mask>
<clipPath id="clip-2">
<rect x="0" y="0" width="604" height="24"/>
</clipPath>
<g id="source-16" clip-path="url(#clip-2)">
<path fill-rule="nonzero" fill="rgb(100%, 73.72549%, 19.607843%)" fill-opacity="1" d="M 120 0 L 140 0 L 140 10 L 120 10 Z M 120 0 "/>
</g>
<mask id="mask-3">
<g filter="url(#filter-remove-color)">
<rect x="-60.4" y="-2.4" width="724.8" height="28.8" fill="rgb(0%, 0%, 0%)" fill-opacity="0.8"/>
</g>
</mask>
<clipPath id="clip-3">
<rect x="0" y="0" width="604" height="24"/>
</clipPath>
<g id="source-21" clip-path="url(#clip-3)">
<path fill-rule="nonzero" fill="rgb(100%, 88.627451%, 19.607843%)" fill-opacity="1" d="M 140 0 L 160 0 L 160 10 L 140 10 Z M 140 0 "/>
</g>
<mask id="mask-4">
<g filter="url(#filter-remove-color)">
<rect x="-60.4" y="-2.4" width="724.8" height="28.8" fill="rgb(0%, 0%, 0%)" fill-opacity="0.8"/>
</g>
</mask>
<clipPath id="clip-4">
<rect x="0" y="0" width="604" height="24"/>
</clipPath>
<g id="source-25" clip-path="url(#clip-4)">
<path fill-rule="nonzero" fill="rgb(95.686275%, 100%, 19.607843%)" fill-opacity="1" d="M 160 0 L 180 0 L 180 10 L 160 10 Z M 160 0 "/>
</g>
<mask id="mask-5">
<g filter="url(#filter-remove-color)">
<rect x="-60.4" y="-2.4" width="724.8" height="28.8" fill="rgb(0%, 0%, 0%)" fill-opacity="0.8"/>
</g>
</mask>
<clipPath id="clip-5">
<rect x="0" y="0" width="604" height="24"/>
</clipPath>
<g id="source-29" clip-path="url(#clip-5)">
<path fill-rule="nonzero" fill="rgb(80.784314%, 100%, 19.607843%)" fill-opacity="1" d="M 180 0 L 200 0 L 200 10 L 180 10 Z M 180 0 "/>
</g>
<mask id="mask-6">
<g filter="url(#filter-remove-color)">
<rect x="-60.4" y="-2.4" width="724.8" height="28.8" fill="rgb(0%, 0%, 0%)" fill-opacity="0.8"/>
</g>
</mask>
<clipPath id="clip-6">
<rect x="0" y="0" width="604" height="24"/>
</clipPath>
<g id="source-33" clip-path="url(#clip-6)">
<path fill-rule="nonzero" fill="rgb(65.882353%, 100%, 19.607843%)" fill-opacity="1" d="M 200 0 L 220 0 L 220 10 L 200 10 Z M 200 0 "/>
</g>
<mask id="mask-7">
<g filter="url(#filter-remove-color)">
<rect x="-60.4" y="-2.4" width="724.8" height="28.8" fill="rgb(0%, 0%, 0%)" fill-opacity="0.8"/>
</g>
</mask>
<clipPath id="clip-7">
<rect x="0" y="0" width="604" height="24"/>
</clipPath>
<g id="source-38" clip-path="url(#clip-7)">
<path fill-rule="nonzero" fill="rgb(50.980392%, 100%, 19.607843%)" fill-opacity="1" d="M 220 0 L 240 0 L 240 10 L 220 10 Z M 220 0 "/>
</g>
<mask id="mask-8">
<g filter="url(#filter-remove-color)">
<rect x="-60.4" y="-2.4" width="724.8" height="28.8" fill="rgb(0%, 0%, 0%)" fill-opacity="0.8"/>
</g>
</mask>
<clipPath id="clip-8">
<rect x="0" y="0" width="604" height="24"/>
</clipPath>
<g id="source-42" clip-path="url(#clip-8)">
<path fill-rule="nonzero" fill="rgb(35.686275%, 100%, 19.607843%)" fill-opacity="1" d="M 240 0 L 260 0 L 260 10 L 240 10 Z M 240 0 "/>
</g>
<mask id="mask-9">
<g filter="url(#filter-remove-color)">
<rect x="-60.4" y="-2.4" width="724.8" height="28.8" fill="rgb(0%, 0%, 0%)" fill-opacity="0.8"/>
</g>
</mask>
<clipPath id="clip-9">
<rect x="0" y="0" width="604" height="24"/>
</clipPath>
<g id="source-46" clip-path="url(#clip-9)">
<path fill-rule="nonzero" fill="rgb(20.784314%, 100%, 19.607843%)" fill-opacity="1" d="M 260 0 L 280 0 L 280 10 L 260 10 Z M 260 0 "/>
</g>
<mask id="mask-10">
<g filter="url(#filter-remove-color)">
<rect x="-60.4" y="-2.4" width="724.8" height="28.8" fill="rgb(0%, 0%, 0%)" fill-opacity="0.8"/>
</g>
</mask>
<clipPath id="clip-10">
<rect x="0" y="0" width="604" height="24"/>
</clipPath>
<g id="source-50" clip-path="url(#clip-10)">
<path fill-rule="nonzero" fill="rgb(19.607843%, 100%, 33.72549%)" fill-opacity="1" d="M 280 0 L 300 0 L 300 10 L 280 10 Z M 280 0 "/>
</g>
<mask id="mask-11">
<g filter="url(#filter-remove-color)">
<rect x="-60.4" y="-2.4" width="724.8" height="28.8" fill="rgb(0%, 0%, 0%)" fill-opacity="0.8"/>
</g>
</mask>
<clipPath id="clip-11">
<rect x="0" y="0" width="604" height="24"/>
</clipPath>
<g id="source-54" clip-path="url(#clip-11)">
<path fill-rule="nonzero" fill="rgb(19.607843%, 100%, 48.627451%)" fill-opacity="1" d="M 300 0 L 320 0 L 320 10 L 300 10 Z M 300 0 "/>
</g>
<mask id="mask-12">
<g filter="url(#filter-remove-color)">
<rect x="-60.4" y="-2.4" width="724.8" height="28.8" fill="rgb(0%, 0%, 0%)" fill-opacity="0.8"/>
</g>
</mask>
<clipPath id="clip-12">
<rect x="0" y="0" width="604" height="24"/>
</clipPath>
<g id="source-58" clip-path="url(#clip-12)">
<path fill-rule="nonzero" fill="rgb(19.607843%, 100%, 63.921569%)" fill-opacity="1" d="M 320 0 L 340 0 L 340 10 L 320 10 Z M 320 0 "/>
</g>
<mask id="mask-13">
<g filter="url(#filter-remove-color)">
<rect x="-60.4" y="-2.4" width="724.8" height="28.8" fill="rgb(0%, 0%, 0%)" fill-opacity="0.8"/>
</g>
</mask>
<clipPath id="clip-13">
<rect x="0" y="0" width="604" height="24"/>
</clipPath>
<g id="source-63" clip-path="url(#clip-13)">
<path fill-rule="nonzero" fill="rgb(19.607843%, 100%, 78.823529%)" fill-opacity="1" d="M 340 0 L 360 0 L 360 10 L 340 10 Z M 340 0 "/>
</g>
<mask id="mask-14">
<g filter="url(#filter-remove-color)">
<rect x="-60.4" y="-2.4" width="724.8" height="28.8" fill="rgb(0%, 0%, 0%)" fill-opacity="0.8"/>
</g>
</mask>
<clipPath id="clip-14">
<rect x="0" y="0" width="604" height="24"/>
</clipPath>
<g id="source-67" clip-path="url(#clip-14)">
<path fill-rule="nonzero" fill="rgb(19.607843%, 100%, 93.72549%)" fill-opacity="1" d="M 360 0 L 380 0 L 380 10 L 360 10 Z M 360 0 "/>
</g>
<mask id="mask-15">
<g filter="url(#filter-remove-color)">
<rect x="-60.4" y="-2.4" width="724.8" height="28.8" fill="rgb(0%, 0%, 0%)" fill-opacity="0.8"/>
</g>
</mask>
<clipPath id="clip-15">
<rect x="0" y="0" width="604" height="24"/>
</clipPath>
<g id="source-71" clip-path="url(#clip-15)">
<path fill-rule="nonzero" fill="rgb(19.607843%, 90.980392%, 100%)" fill-opacity="1" d="M 380 0 L 400 0 L 400 10 L 380 10 Z M 380 0 "/>
</g>
<mask id="mask-16">
<g filter="url(#filter-remove-color)">
<rect x="-60.4" y="-2.4" width="724.8" height="28.8" fill="rgb(0%, 0%, 0%)" fill-opacity="0.8"/>
</g>
</mask>
<clipPath id="clip-16">
<rect x="0" y="0" width="604" height="24"/>
</clipPath>
<g id="source-75" clip-path="url(#clip-16)">
<path fill-rule="nonzero" fill="rgb(19.607843%, 75.686275%, 100%)" fill-opacity="1" d="M 400 0 L 420 0 L 420 10 L 400 10 Z M 400 0 "/>
</g>
<mask id="mask-17">
<g filter="url(#filter-remove-color)">
<rect x="-60.4" y="-2.4" width="724.8" height="28.8" fill="rgb(0%, 0%, 0%)" fill-opacity="0.8"/>
</g>
</mask>
<clipPath id="clip-17">
<rect x="0" y="0" width="604" height="24"/>
</clipPath>
<g id="source-79" clip-path="url(#clip-17)">
<path fill-rule="nonzero" fill="rgb(19.607843%, 60.784314%, 100%)" fill-opacity="1" d="M 420 0 L 440 0 L 440 10 L 420 10 Z M 420 0 "/>
</g>
<mask id="mask-18">
<g filter="url(#filter-remove-color)">
<rect x="-60.4" y="-2.4" width="724.8" height="28.8" fill="rgb(0%, 0%, 0%)" fill-opacity="0.8"/>
</g>
</mask>
<clipPath id="clip-18">
<rect x="0" y="0" width="604" height="24"/>
</clipPath>
<g id="source-83" clip-path="url(#clip-18)">
<path fill-rule="nonzero" fill="rgb(19.607843%, 45.882353%, 100%)" fill-opacity="1" d="M 440 0 L 460 0 L 460 10 L 440 10 Z M 440 0 "/>
</g>
<mask id="mask-19">
<g filter="url(#filter-remove-color)">
<rect x="-60.4" y="-2.4" width="724.8" height="28.8" fill="rgb(0%, 0%, 0%)" fill-opacity="0.8"/>
</g>
</mask>
<clipPath id="clip-19">
<rect x="0" y="0" width="604" height="24"/>
</clipPath>
<g id="source-88" clip-path="url(#clip-19)">
<path fill-rule="nonzero" fill="rgb(19.607843%, 30.980392%, 100%)" fill-opacity="1" d="M 460 0 L 480 0 L 480 10 L 460 10 Z M 460 0 "/>
</g>
<mask id="mask-20">
<g filter="url(#filter-remove-color)">
<rect x="-60.4" y="-2.4" width="724.8" height="28.8" fill="rgb(0%, 0%, 0%)" fill-opacity="0.8"/>
</g>
</mask>
<clipPath id="clip-20">
<rect x="0" y="0" width="604" height="24"/>
</clipPath>
<g id="source-92" clip-path="url(#clip-20)">
<path fill-rule="nonzero" fill="rgb(23.921569%, 19.607843%, 100%)" fill-opacity="1" d="M 480 0 L 500 0 L 500 10 L 480 10 Z M 480 0 "/>
</g>
<mask id="mask-21">
<g filter="url(#filter-remove-color)">
<rect x="-60.4" y="-2.4" width="724.8" height="28.8" fill="rgb(0%, 0%, 0%)" fill-opacity="0.8"/>
</g>
</mask>
<clipPath id="clip-21">
<rect x="0" y="0" width="604" height="24"/>
</clipPath>
<g id="source-96" clip-path="url(#clip-21)">
<path fill-rule="nonzero" fill="rgb(38.823529%, 19.607843%, 100%)" fill-opacity="1" d="M 500 0 L 520 0 L 520 10 L 500 10 Z M 500 0 "/>
</g>
<mask id="mask-22">
<g filter="url(#filter-remove-color)">
<rect x="-60.4" y="-2.4" width="724.8" height="28.8" fill="rgb(0%, 0%, 0%)" fill-opacity="0.8"/>
</g>
</mask>
<clipPath id="clip-22">
<rect x="0" y="0" width="604" height="24"/>
</clipPath>
<g id="source-100" clip-path="url(#clip-22)">
<path fill-rule="nonzero" fill="rgb(53.72549%, 19.607843%, 100%)" fill-opacity="1" d="M 520 0 L 540 0 L 540 10 L 520 10 Z M 520 0 "/>
</g>
<mask id="mask-23">
<g filter="url(#filter-remove-color)">
<rect x="-60.4" y="-2.4" width="724.8" height="28.8" fill="rgb(0%, 0%, 0%)" fill-opacity="0.8"/>
</g>
</mask>
<clipPath id="clip-23">
<rect x="0" y="0" width="604" height="24"/>
</clipPath>
<g id="source-104" clip-path="url(#clip-23)">
<path fill-rule="nonzero" fill="rgb(68.627451%, 19.607843%, 100%)" fill-opacity="1" d="M 540 0 L 560 0 L 560 10 L 540 10 Z M 540 0 "/>
</g>
<mask id="mask-24">
<g filter="url(#filter-remove-color)">
<rect x="-60.4" y="-2.4" width="724.8" height="28.8" fill="rgb(0%, 0%, 0%)" fill-opacity="0.8"/>
</g>
</mask>
<clipPath id="clip-24">
<rect x="0" y="0" width="604" height="24"/>
</clipPath>
<g id="source-108" clip-path="url(#clip-24)">
<path fill-rule="nonzero" fill="rgb(83.921569%, 19.607843%, 100%)" fill-opacity="1" d="M 560 0 L 580 0 L 580 10 L 560 10 Z M 560 0 "/>
</g>
</defs>
<path fill-rule="nonzero" fill="rgb(100%, 100%, 100%)" fill-opacity="1" d="M 6.53125 19.601562 L 5.5 16.945312 L 2.125 16.945312 L 1.09375 19.601562 L 0 19.601562 L 3.34375 11.007812 L 4.3125 11.007812 L 7.65625 19.601562 Z M 4.21875 13.382812 C 4.195312 13.320312 4.15625 13.210938 4.09375 13.039062 C 4.046875 12.875 4 12.710938 3.9375 12.539062 C 3.890625 12.351562 3.851562 12.210938 3.8125 12.101562 C 3.75 12.351562 3.6875 12.601562 3.625 12.851562 C 3.5625 13.085938 3.5 13.257812 3.4375 13.382812 L 2.46875 15.976562 L 5.1875 15.976562 Z M 9.734375 19.601562 L 8.703125 19.601562 L 8.703125 10.476562 L 9.734375 10.476562 Z M 12.328125 10.757812 C 12.492188 10.757812 12.640625 10.8125 12.765625 10.914062 C 12.890625 11.023438 12.953125 11.1875 12.953125 11.414062 C 12.953125 11.648438 12.890625 11.820312 12.765625 11.945312 C 12.640625 12.054688 12.492188 12.101562 12.328125 12.101562 C 12.140625 12.101562 11.984375 12.054688 11.859375 11.945312 C 11.75 11.820312 11.703125 11.648438 11.703125 11.414062 C 11.703125 11.1875 11.75 11.023438 11.859375 10.914062 C 11.984375 10.8125 12.140625 10.757812 12.328125 10.757812 Z M 12.828125 13.164062 L 12.828125 19.601562 L 11.796875 19.601562 L 11.796875 13.164062 Z M 17.015625 18.851562 C 17.179688 18.851562 17.34375 18.84375 17.515625 18.820312 C 17.679688 18.804688 17.8125 18.773438 17.921875 18.726562 L 17.921875 19.539062 C 17.8125 19.585938 17.65625 19.617188 17.453125 19.664062 C 17.242188 19.703125 17.046875 19.726562 16.859375 19.726562 C 16.5 19.726562 16.179688 19.671875 15.890625 19.570312 C 15.617188 19.445312 15.390625 19.242188 15.203125 18.945312 C 15.03125 18.65625 14.953125 18.25 14.953125 17.726562 L 14.953125 13.976562 L 14.046875 13.976562 L 14.046875 13.476562 L 14.984375 13.070312 L 15.390625 11.695312 L 16.015625 11.695312 L 16.015625 13.164062 L 17.890625 13.164062 L 17.890625 13.976562 L 16.015625 13.976562 L 16.015625 17.695312 C 16.015625 18.09375 16.109375 18.382812 16.296875 18.570312 C 16.484375 18.757812 16.71875 18.851562 17.015625 18.851562 Z M 24.59375 13.164062 L 24.59375 19.601562 L 23.71875 19.601562 L 23.5625 18.757812 L 23.5 18.757812 C 23.3125 19.09375 23.03125 19.34375 22.65625 19.507812 C 22.28125 19.648438 21.882812 19.726562 21.46875 19.726562 C 20.695312 19.726562 20.109375 19.539062 19.71875 19.164062 C 19.320312 18.789062 19.125 18.195312 19.125 17.382812 L 19.125 13.164062 L 20.21875 13.164062 L 20.21875 17.320312 C 20.21875 18.34375 20.6875 18.851562 21.625 18.851562 C 22.328125 18.851562 22.820312 18.65625 23.09375 18.257812 C 23.382812 17.84375 23.53125 17.257812 23.53125 16.507812 L 23.53125 13.164062 Z M 28.921875 19.726562 C 28.109375 19.726562 27.460938 19.445312 26.984375 18.882812 C 26.5 18.320312 26.265625 17.492188 26.265625 16.382812 C 26.265625 15.28125 26.5 14.445312 26.984375 13.882812 C 27.484375 13.320312 28.125 13.039062 28.921875 13.039062 C 29.421875 13.039062 29.828125 13.132812 30.140625 13.320312 C 30.453125 13.507812 30.710938 13.742188 30.921875 14.007812 L 30.984375 14.007812 C 30.984375 13.90625 30.96875 13.75 30.953125 13.539062 C 30.929688 13.335938 30.921875 13.164062 30.921875 13.039062 L 30.921875 10.476562 L 31.984375 10.476562 L 31.984375 19.601562 L 31.109375 19.601562 L 30.953125 18.726562 L 30.921875 18.726562 C 30.734375 19 30.46875 19.242188 30.140625 19.445312 C 29.828125 19.632812 29.421875 19.726562 28.921875 19.726562 Z M 29.078125 18.851562 C 29.765625 18.851562 30.242188 18.664062 30.515625 18.289062 C 30.78125 17.914062 30.921875 17.351562 30.921875 16.601562 L 30.921875 16.414062 C 30.921875 15.601562 30.78125 14.992188 30.515625 14.570312 C 30.265625 14.132812 29.78125 13.914062 29.078125 13.914062 C 28.492188 13.914062 28.054688 14.148438 27.765625 14.601562 C 27.492188 15.0625 27.359375 15.664062 27.359375 16.414062 C 27.359375 17.1875 27.492188 17.789062 27.765625 18.226562 C 28.054688 18.648438 28.492188 18.851562 29.078125 18.851562 Z M 36.484375 13.039062 C 37.046875 13.039062 37.523438 13.164062 37.921875 13.414062 C 38.3125 13.648438 38.617188 13.976562 38.828125 14.414062 C 39.03125 14.851562 39.140625 15.367188 39.140625 15.945312 L 39.140625 16.601562 L 34.734375 16.601562 C 34.75 17.335938 34.9375 17.882812 35.296875 18.257812 C 35.648438 18.632812 36.148438 18.820312 36.796875 18.820312 C 37.1875 18.820312 37.546875 18.789062 37.859375 18.726562 C 38.1875 18.648438 38.523438 18.53125 38.859375 18.382812 L 38.859375 19.289062 C 38.523438 19.4375 38.1875 19.539062 37.859375 19.601562 C 37.546875 19.679688 37.171875 19.726562 36.734375 19.726562 C 36.125 19.726562 35.585938 19.601562 35.109375 19.351562 C 34.648438 19.101562 34.28125 18.742188 34.015625 18.257812 C 33.765625 17.757812 33.640625 17.15625 33.640625 16.445312 C 33.640625 15.742188 33.75 15.132812 33.984375 14.632812 C 34.234375 14.117188 34.5625 13.71875 34.984375 13.445312 C 35.421875 13.179688 35.921875 13.039062 36.484375 13.039062 Z M 36.484375 13.914062 C 35.984375 13.914062 35.585938 14.085938 35.296875 14.414062 C 35 14.726562 34.828125 15.179688 34.765625 15.757812 L 38.046875 15.757812 C 38.023438 15.21875 37.890625 14.78125 37.640625 14.445312 C 37.390625 14.09375 37 13.914062 36.484375 13.914062 Z M 43.34375 16.320312 C 43.34375 15.34375 43.484375 14.40625 43.78125 13.507812 C 44.070312 12.59375 44.515625 11.773438 45.125 11.039062 L 46.125 11.039062 C 45.5625 11.789062 45.132812 12.625 44.84375 13.539062 C 44.570312 14.4375 44.4375 15.351562 44.4375 16.289062 C 44.4375 17.226562 44.570312 18.148438 44.84375 19.039062 C 45.132812 19.929688 45.546875 20.757812 46.09375 21.507812 L 45.125 21.507812 C 44.515625 20.796875 44.070312 19.992188 43.78125 19.101562 C 43.484375 18.210938 43.34375 17.28125 43.34375 16.320312 Z M 54.539062 13.039062 C 55.265625 13.039062 55.804688 13.226562 56.164062 13.601562 C 56.539062 13.976562 56.726562 14.585938 56.726562 15.414062 L 56.726562 19.601562 L 55.695312 19.601562 L 55.695312 15.476562 C 55.695312 14.460938 55.257812 13.945312 54.382812 13.945312 C 53.757812 13.945312 53.304688 14.125 53.039062 14.476562 C 52.765625 14.835938 52.632812 15.351562 52.632812 16.039062 L 52.632812 19.601562 L 51.601562 19.601562 L 51.601562 15.476562 C 51.601562 14.460938 51.148438 13.945312 50.257812 13.945312 C 49.609375 13.945312 49.164062 14.148438 48.914062 14.539062 C 48.664062 14.9375 48.539062 15.507812 48.539062 16.257812 L 48.539062 19.601562 L 47.507812 19.601562 L 47.507812 13.164062 L 48.351562 13.164062 L 48.507812 14.039062 L 48.570312 14.039062 C 48.757812 13.710938 49.015625 13.460938 49.351562 13.289062 C 49.703125 13.125 50.070312 13.039062 50.445312 13.039062 C 51.460938 13.039062 52.117188 13.40625 52.414062 14.132812 L 52.476562 14.132812 C 52.703125 13.757812 52.992188 13.492188 53.351562 13.320312 C 53.726562 13.132812 54.117188 13.039062 54.539062 13.039062 Z M 60.820312 16.320312 C 60.820312 17.28125 60.671875 18.210938 60.382812 19.101562 C 60.109375 19.992188 59.664062 20.796875 59.039062 21.507812 L 58.070312 21.507812 C 58.609375 20.757812 59.023438 19.929688 59.320312 19.039062 C 59.609375 18.148438 59.757812 17.226562 59.757812 16.289062 C 59.757812 15.351562 59.609375 14.4375 59.320312 13.539062 C 59.023438 12.625 58.609375 11.789062 58.070312 11.039062 L 59.039062 11.039062 C 59.664062 11.773438 60.109375 12.59375 60.382812 13.507812 C 60.671875 14.40625 60.820312 15.34375 60.820312 16.320312 Z M 0 6.773438 "/>
<g mask="url(#mask-0)">
<use xlink:href="#source-7"/>
</g>
<path fill-rule="nonzero" fill="rgb(100%, 100%, 100%)" fill-opacity="1" d="M 76.46875 17.25 L 76.46875 16.3125 L 79.375 16.3125 L 79.375 17.25 Z M 86.140625 15.71875 C 86.140625 16.640625 86.03125 17.429688 85.828125 18.09375 C 85.640625 18.742188 85.335938 19.242188 84.921875 19.59375 C 84.5 19.953125 83.953125 20.125 83.265625 20.125 C 82.304688 20.125 81.59375 19.742188 81.140625 18.96875 C 80.679688 18.179688 80.453125 17.09375 80.453125 15.71875 C 80.453125 14.78125 80.546875 13.992188 80.734375 13.34375 C 80.921875 12.679688 81.21875 12.179688 81.640625 11.84375 C 82.054688 11.492188 82.59375 11.3125 83.265625 11.3125 C 84.242188 11.3125 84.960938 11.703125 85.421875 12.46875 C 85.898438 13.242188 86.140625 14.328125 86.140625 15.71875 Z M 81.515625 15.71875 C 81.515625 16.890625 81.640625 17.765625 81.890625 18.34375 C 82.15625 18.929688 82.617188 19.21875 83.265625 19.21875 C 83.90625 19.21875 84.367188 18.929688 84.640625 18.34375 C 84.929688 17.765625 85.078125 16.890625 85.078125 15.71875 C 85.078125 14.53125 84.929688 13.648438 84.640625 13.0625 C 84.367188 12.484375 83.90625 12.1875 83.265625 12.1875 C 82.617188 12.1875 82.15625 12.484375 81.890625 13.0625 C 81.640625 13.648438 81.515625 14.53125 81.515625 15.71875 Z M 76 7.171875 "/>
<g mask="url(#mask-1)">
<use xlink:href="#source-12"/>
</g>
<g mask="url(#mask-2)">
<use xlink:href="#source-16"/>
</g>
<path fill-rule="nonzero" fill="rgb(100%, 100%, 100%)" fill-opacity="1" d="M 124.25 20 L 123.21875 20 L 123.21875 14 C 123.21875 13.671875 123.21875 13.398438 123.21875 13.1875 C 123.234375 12.984375 123.257812 12.765625 123.28125 12.53125 C 123.15625 12.65625 123.039062 12.773438 122.9375 12.875 C 122.828125 12.960938 122.695312 13.0625 122.53125 13.1875 L 121.625 13.9375 L 121.0625 13.21875 L 123.375 11.4375 L 124.25 11.4375 Z M 133.140625 15.71875 C 133.140625 16.640625 133.03125 17.429688 132.828125 18.09375 C 132.640625 18.742188 132.335938 19.242188 131.921875 19.59375 C 131.5 19.953125 130.953125 20.125 130.265625 20.125 C 129.304688 20.125 128.59375 19.742188 128.140625 18.96875 C 127.679688 18.179688 127.453125 17.09375 127.453125 15.71875 C 127.453125 14.78125 127.546875 13.992188 127.734375 13.34375 C 127.921875 12.679688 128.21875 12.179688 128.640625 11.84375 C 129.054688 11.492188 129.59375 11.3125 130.265625 11.3125 C 131.242188 11.3125 131.960938 11.703125 132.421875 12.46875 C 132.898438 13.242188 133.140625 14.328125 133.140625 15.71875 Z M 128.515625 15.71875 C 128.515625 16.890625 128.640625 17.765625 128.890625 18.34375 C 129.15625 18.929688 129.617188 19.21875 130.265625 19.21875 C 130.90625 19.21875 131.367188 18.929688 131.640625 18.34375 C 131.929688 17.765625 132.078125 16.890625 132.078125 15.71875 C 132.078125 14.53125 131.929688 13.648438 131.640625 13.0625 C 131.367188 12.484375 130.90625 12.1875 130.265625 12.1875 C 129.617188 12.1875 129.15625 12.484375 128.890625 13.0625 C 128.640625 13.648438 128.515625 14.53125 128.515625 15.71875 Z M 140.007812 15.71875 C 140.007812 16.640625 139.898438 17.429688 139.695312 18.09375 C 139.507812 18.742188 139.203125 19.242188 138.789062 19.59375 C 138.367188 19.953125 137.820312 20.125 137.132812 20.125 C 136.171875 20.125 135.460938 19.742188 135.007812 18.96875 C 134.546875 18.179688 134.320312 17.09375 134.320312 15.71875 C 134.320312 14.78125 134.414062 13.992188 134.601562 13.34375 C 134.789062 12.679688 135.085938 12.179688 135.507812 11.84375 C 135.921875 11.492188 136.460938 11.3125 137.132812 11.3125 C 138.109375 11.3125 138.828125 11.703125 139.289062 12.46875 C 139.765625 13.242188 140.007812 14.328125 140.007812 15.71875 Z M 135.382812 15.71875 C 135.382812 16.890625 135.507812 17.765625 135.757812 18.34375 C 136.023438 18.929688 136.484375 19.21875 137.132812 19.21875 C 137.773438 19.21875 138.234375 18.929688 138.507812 18.34375 C 138.796875 17.765625 138.945312 16.890625 138.945312 15.71875 C 138.945312 14.53125 138.796875 13.648438 138.507812 13.0625 C 138.234375 12.484375 137.773438 12.1875 137.132812 12.1875 C 136.484375 12.1875 136.023438 12.484375 135.757812 13.0625 C 135.507812 13.648438 135.382812 14.53125 135.382812 15.71875 Z M 146.875 15.71875 C 146.875 16.640625 146.765625 17.429688 146.5625 18.09375 C 146.375 18.742188 146.070312 19.242188 145.65625 19.59375 C 145.234375 19.953125 144.6875 20.125 144 20.125 C 143.039062 20.125 142.328125 19.742188 141.875 18.96875 C 141.414062 18.179688 141.1875 17.09375 141.1875 15.71875 C 141.1875 14.78125 141.28125 13.992188 141.46875 13.34375 C 141.65625 12.679688 141.953125 12.179688 142.375 11.84375 C 142.789062 11.492188 143.328125 11.3125 144 11.3125 C 144.976562 11.3125 145.695312 11.703125 146.15625 12.46875 C 146.632812 13.242188 146.875 14.328125 146.875 15.71875 Z M 142.25 15.71875 C 142.25 16.890625 142.375 17.765625 142.625 18.34375 C 142.890625 18.929688 143.351562 19.21875 144 19.21875 C 144.640625 19.21875 145.101562 18.929688 145.375 18.34375 C 145.664062 17.765625 145.8125 16.890625 145.8125 15.71875 C 145.8125 14.53125 145.664062 13.648438 145.375 13.0625 C 145.101562 12.484375 144.640625 12.1875 144 12.1875 C 143.351562 12.1875 142.890625 12.484375 142.625 13.0625 C 142.375 13.648438 142.25 14.53125 142.25 15.71875 Z M 120 7.171875 "/>
<g mask="url(#mask-3)">
<use xlink:href="#source-21"/>
</g>
<g mask="url(#mask-4)">
<use xlink:href="#source-25"/>
</g>
<g mask="url(#mask-5)">
<use xlink:href="#source-29"/>
</g>
<g mask="url(#mask-6)">
<use xlink:href="#source-33"/>
</g>
<path fill-rule="nonzero" fill="rgb(100%, 100%, 100%)" fill-opacity="1" d="M 205.90625 13.4375 C 205.90625 14.023438 205.75 14.484375 205.4375 14.8125 C 205.125 15.148438 204.6875 15.375 204.125 15.5 L 204.125 15.53125 C 204.828125 15.617188 205.351562 15.835938 205.6875 16.1875 C 206.015625 16.546875 206.1875 17 206.1875 17.5625 C 206.1875 18.0625 206.0625 18.515625 205.8125 18.90625 C 205.578125 19.28125 205.226562 19.585938 204.75 19.8125 C 204.265625 20.015625 203.65625 20.125 202.90625 20.125 C 202.445312 20.125 202.015625 20.078125 201.625 20 C 201.25 19.9375 200.882812 19.828125 200.53125 19.65625 L 200.53125 18.65625 C 200.90625 18.84375 201.289062 18.992188 201.6875 19.09375 C 202.101562 19.179688 202.507812 19.21875 202.90625 19.21875 C 203.671875 19.21875 204.226562 19.078125 204.5625 18.78125 C 204.890625 18.492188 205.0625 18.078125 205.0625 17.53125 C 205.0625 17.015625 204.851562 16.640625 204.4375 16.40625 C 204.015625 16.15625 203.4375 16.03125 202.6875 16.03125 L 201.84375 16.03125 L 201.84375 15.125 L 202.6875 15.125 C 203.390625 15.125 203.921875 14.984375 204.28125 14.6875 C 204.65625 14.398438 204.84375 14 204.84375 13.5 C 204.84375 13.085938 204.695312 12.765625 204.40625 12.53125 C 204.132812 12.304688 203.757812 12.1875 203.28125 12.1875 C 202.820312 12.1875 202.421875 12.265625 202.09375 12.40625 C 201.757812 12.53125 201.4375 12.703125 201.125 12.90625 L 200.59375 12.1875 C 200.882812 11.960938 201.257812 11.765625 201.71875 11.59375 C 202.171875 11.40625 202.6875 11.3125 203.25 11.3125 C 204.140625 11.3125 204.8125 11.515625 205.25 11.90625 C 205.6875 12.304688 205.90625 12.8125 205.90625 13.4375 Z M 213.140625 15.71875 C 213.140625 16.640625 213.03125 17.429688 212.828125 18.09375 C 212.640625 18.742188 212.335938 19.242188 211.921875 19.59375 C 211.5 19.953125 210.953125 20.125 210.265625 20.125 C 209.304688 20.125 208.59375 19.742188 208.140625 18.96875 C 207.679688 18.179688 207.453125 17.09375 207.453125 15.71875 C 207.453125 14.78125 207.546875 13.992188 207.734375 13.34375 C 207.921875 12.679688 208.21875 12.179688 208.640625 11.84375 C 209.054688 11.492188 209.59375 11.3125 210.265625 11.3125 C 211.242188 11.3125 211.960938 11.703125 212.421875 12.46875 C 212.898438 13.242188 213.140625 14.328125 213.140625 15.71875 Z M 208.515625 15.71875 C 208.515625 16.890625 208.640625 17.765625 208.890625 18.34375 C 209.15625 18.929688 209.617188 19.21875 210.265625 19.21875 C 210.90625 19.21875 211.367188 18.929688 211.640625 18.34375 C 211.929688 17.765625 212.078125 16.890625 212.078125 15.71875 C 212.078125 14.53125 211.929688 13.648438 211.640625 13.0625 C 211.367188 12.484375 210.90625 12.1875 210.265625 12.1875 C 209.617188 12.1875 209.15625 12.484375 208.890625 13.0625 C 208.640625 13.648438 208.515625 14.53125 208.515625 15.71875 Z M 220.007812 15.71875 C 220.007812 16.640625 219.898438 17.429688 219.695312 18.09375 C 219.507812 18.742188 219.203125 19.242188 218.789062 19.59375 C 218.367188 19.953125 217.820312 20.125 217.132812 20.125 C 216.171875 20.125 215.460938 19.742188 215.007812 18.96875 C 214.546875 18.179688 214.320312 17.09375 214.320312 15.71875 C 214.320312 14.78125 214.414062 13.992188 214.601562 13.34375 C 214.789062 12.679688 215.085938 12.179688 215.507812 11.84375 C 215.921875 11.492188 216.460938 11.3125 217.132812 11.3125 C 218.109375 11.3125 218.828125 11.703125 219.289062 12.46875 C 219.765625 13.242188 220.007812 14.328125 220.007812 15.71875 Z M 215.382812 15.71875 C 215.382812 16.890625 215.507812 17.765625 215.757812 18.34375 C 216.023438 18.929688 216.484375 19.21875 217.132812 19.21875 C 217.773438 19.21875 218.234375 18.929688 218.507812 18.34375 C 218.796875 17.765625 218.945312 16.890625 218.945312 15.71875 C 218.945312 14.53125 218.796875 13.648438 218.507812 13.0625 C 218.234375 12.484375 217.773438 12.1875 217.132812 12.1875 C 216.484375 12.1875 216.023438 12.484375 215.757812 13.0625 C 215.507812 13.648438 215.382812 14.53125 215.382812 15.71875 Z M 226.875 15.71875 C 226.875 16.640625 226.765625 17.429688 226.5625 18.09375 C 226.375 18.742188 226.070312 19.242188 225.65625 19.59375 C 225.234375 19.953125 224.6875 20.125 224 20.125 C 223.039062 20.125 222.328125 19.742188 221.875 18.96875 C 221.414062 18.179688 221.1875 17.09375 221.1875 15.71875 C 221.1875 14.78125 221.28125 13.992188 221.46875 13.34375 C 221.65625 12.679688 221.953125 12.179688 222.375 11.84375 C 222.789062 11.492188 223.328125 11.3125 224 11.3125 C 224.976562 11.3125 225.695312 11.703125 226.15625 12.46875 C 226.632812 13.242188 226.875 14.328125 226.875 15.71875 Z M 222.25 15.71875 C 222.25 16.890625 222.375 17.765625 222.625 18.34375 C 222.890625 18.929688 223.351562 19.21875 224 19.21875 C 224.640625 19.21875 225.101562 18.929688 225.375 18.34375 C 225.664062 17.765625 225.8125 16.890625 225.8125 15.71875 C 225.8125 14.53125 225.664062 13.648438 225.375 13.0625 C 225.101562 12.484375 224.640625 12.1875 224 12.1875 C 223.351562 12.1875 222.890625 12.484375 222.625 13.0625 C 222.375 13.648438 222.25 14.53125 222.25 15.71875 Z M 200 7.171875 "/>
<g mask="url(#mask-7)">
<use xlink:href="#source-38"/>
</g>
<g mask="url(#mask-8)">
<use xlink:href="#source-42"/>
</g>
<g mask="url(#mask-9)">
<use xlink:href="#source-46"/>
</g>
<g mask="url(#mask-10)">
<use xlink:href="#source-50"/>
</g>
<g mask="url(#mask-11)">
<use xlink:href="#source-54"/>
</g>
<g mask="url(#mask-12)">
<use xlink:href="#source-58"/>
</g>
<path fill-rule="nonzero" fill="rgb(100%, 100%, 100%)" fill-opacity="1" d="M 320.65625 16.34375 C 320.65625 15.71875 320.703125 15.117188 320.8125 14.53125 C 320.914062 13.929688 321.109375 13.390625 321.40625 12.90625 C 321.695312 12.429688 322.09375 12.046875 322.59375 11.75 C 323.109375 11.460938 323.78125 11.3125 324.59375 11.3125 C 324.757812 11.3125 324.9375 11.328125 325.125 11.34375 C 325.328125 11.367188 325.5 11.390625 325.625 11.40625 L 325.625 12.3125 C 325.5 12.273438 325.34375 12.242188 325.15625 12.21875 C 324.96875 12.203125 324.78125 12.1875 324.59375 12.1875 C 324.046875 12.1875 323.59375 12.28125 323.21875 12.46875 C 322.859375 12.640625 322.570312 12.890625 322.34375 13.21875 C 322.132812 13.53125 321.976562 13.898438 321.875 14.3125 C 321.789062 14.734375 321.734375 15.179688 321.71875 15.65625 L 321.78125 15.65625 C 321.96875 15.367188 322.226562 15.125 322.5625 14.9375 C 322.890625 14.734375 323.3125 14.625 323.8125 14.625 C 324.5625 14.625 325.164062 14.859375 325.625 15.3125 C 326.078125 15.773438 326.3125 16.421875 326.3125 17.25 C 326.3125 18.148438 326.0625 18.859375 325.5625 19.375 C 325.0625 19.875 324.390625 20.125 323.5625 20.125 C 323.015625 20.125 322.53125 19.992188 322.09375 19.71875 C 321.65625 19.453125 321.296875 19.03125 321.03125 18.46875 C 320.78125 17.90625 320.65625 17.203125 320.65625 16.34375 Z M 323.5625 19.21875 C 324.0625 19.21875 324.46875 19.0625 324.78125 18.75 C 325.09375 18.421875 325.25 17.921875 325.25 17.25 C 325.25 16.710938 325.109375 16.28125 324.84375 15.96875 C 324.570312 15.640625 324.15625 15.46875 323.59375 15.46875 C 323.21875 15.46875 322.882812 15.554688 322.59375 15.71875 C 322.320312 15.867188 322.101562 16.0625 321.9375 16.3125 C 321.789062 16.546875 321.71875 16.78125 321.71875 17.03125 C 321.71875 17.390625 321.78125 17.734375 321.90625 18.0625 C 322.046875 18.398438 322.257812 18.679688 322.53125 18.90625 C 322.796875 19.117188 323.140625 19.21875 323.5625 19.21875 Z M 333.140625 15.71875 C 333.140625 16.640625 333.03125 17.429688 332.828125 18.09375 C 332.640625 18.742188 332.335938 19.242188 331.921875 19.59375 C 331.5 19.953125 330.953125 20.125 330.265625 20.125 C 329.304688 20.125 328.59375 19.742188 328.140625 18.96875 C 327.679688 18.179688 327.453125 17.09375 327.453125 15.71875 C 327.453125 14.78125 327.546875 13.992188 327.734375 13.34375 C 327.921875 12.679688 328.21875 12.179688 328.640625 11.84375 C 329.054688 11.492188 329.59375 11.3125 330.265625 11.3125 C 331.242188 11.3125 331.960938 11.703125 332.421875 12.46875 C 332.898438 13.242188 333.140625 14.328125 333.140625 15.71875 Z M 328.515625 15.71875 C 328.515625 16.890625 328.640625 17.765625 328.890625 18.34375 C 329.15625 18.929688 329.617188 19.21875 330.265625 19.21875 C 330.90625 19.21875 331.367188 18.929688 331.640625 18.34375 C 331.929688 17.765625 332.078125 16.890625 332.078125 15.71875 C 332.078125 14.53125 331.929688 13.648438 331.640625 13.0625 C 331.367188 12.484375 330.90625 12.1875 330.265625 12.1875 C 329.617188 12.1875 329.15625 12.484375 328.890625 13.0625 C 328.640625 13.648438 328.515625 14.53125 328.515625 15.71875 Z M 340.007812 15.71875 C 340.007812 16.640625 339.898438 17.429688 339.695312 18.09375 C 339.507812 18.742188 339.203125 19.242188 338.789062 19.59375 C 338.367188 19.953125 337.820312 20.125 337.132812 20.125 C 336.171875 20.125 335.460938 19.742188 335.007812 18.96875 C 334.546875 18.179688 334.320312 17.09375 334.320312 15.71875 C 334.320312 14.78125 334.414062 13.992188 334.601562 13.34375 C 334.789062 12.679688 335.085938 12.179688 335.507812 11.84375 C 335.921875 11.492188 336.460938 11.3125 337.132812 11.3125 C 338.109375 11.3125 338.828125 11.703125 339.289062 12.46875 C 339.765625 13.242188 340.007812 14.328125 340.007812 15.71875 Z M 335.382812 15.71875 C 335.382812 16.890625 335.507812 17.765625 335.757812 18.34375 C 336.023438 18.929688 336.484375 19.21875 337.132812 19.21875 C 337.773438 19.21875 338.234375 18.929688 338.507812 18.34375 C 338.796875 17.765625 338.945312 16.890625 338.945312 15.71875 C 338.945312 14.53125 338.796875 13.648438 338.507812 13.0625 C 338.234375 12.484375 337.773438 12.1875 337.132812 12.1875 C 336.484375 12.1875 336.023438 12.484375 335.757812 13.0625 C 335.507812 13.648438 335.382812 14.53125 335.382812 15.71875 Z M 346.875 15.71875 C 346.875 16.640625 346.765625 17.429688 346.5625 18.09375 C 346.375 18.742188 346.070312 19.242188 345.65625 19.59375 C 345.234375 19.953125 344.6875 20.125 344 20.125 C 343.039062 20.125 342.328125 19.742188 341.875 18.96875 C 341.414062 18.179688 341.1875 17.09375 341.1875 15.71875 C 341.1875 14.78125 341.28125 13.992188 341.46875 13.34375 C 341.65625 12.679688 341.953125 12.179688 342.375 11.84375 C 342.789062 11.492188 343.328125 11.3125 344 11.3125 C 344.976562 11.3125 345.695312 11.703125 346.15625 12.46875 C 346.632812 13.242188 346.875 14.328125 346.875 15.71875 Z M 342.25 15.71875 C 342.25 16.890625 342.375 17.765625 342.625 18.34375 C 342.890625 18.929688 343.351562 19.21875 344 19.21875 C 344.640625 19.21875 345.101562 18.929688 345.375 18.34375 C 345.664062 17.765625 345.8125 16.890625 345.8125 15.71875 C 345.8125 14.53125 345.664062 13.648438 345.375 13.0625 C 345.101562 12.484375 344.640625 12.1875 344 12.1875 C 343.351562 12.1875 342.890625 12.484375 342.625 13.0625 C 342.375 13.648438 342.25 14.53125 342.25 15.71875 Z M 320 7.171875 "/>
<g mask="url(#mask-13)">
<use xlink:href="#source-63"/>
</g>
<g mask="url(#mask-14)">
<use xlink:href="#source-67"/>
</g>
<g mask="url(#mask-15)">
<use xlink:href="#source-71"/>
</g>
<g mask="url(#mask-16)">
<use xlink:href="#source-75"/>
</g>
<g mask="url(#mask-17)">
<use xlink:href="#source-79"/>
</g>
<g mask="url(#mask-18)">
<use xlink:href="#source-83"/>
</g>
<path fill-rule="nonzero" fill="rgb(100%, 100%, 100%)" fill-opacity="1" d="M 446.25 15.09375 C 446.25 15.71875 446.1875 16.335938 446.0625 16.9375 C 445.953125 17.523438 445.757812 18.054688 445.46875 18.53125 C 445.195312 19.015625 444.796875 19.398438 444.28125 19.6875 C 443.78125 19.984375 443.125 20.125 442.3125 20.125 C 442.140625 20.125 441.953125 20.109375 441.75 20.09375 C 441.539062 20.070312 441.359375 20.039062 441.21875 20 L 441.21875 19.09375 C 441.53125 19.203125 441.882812 19.25 442.28125 19.25 C 442.84375 19.25 443.296875 19.171875 443.65625 19 C 444.03125 18.8125 444.320312 18.5625 444.53125 18.25 C 444.757812 17.921875 444.914062 17.546875 445 17.125 C 445.101562 16.710938 445.164062 16.273438 445.1875 15.8125 L 445.09375 15.8125 C 444.921875 16.085938 444.671875 16.3125 444.34375 16.5 C 444.007812 16.6875 443.578125 16.78125 443.0625 16.78125 C 442.328125 16.78125 441.734375 16.5625 441.28125 16.125 C 440.820312 15.671875 440.59375 15.03125 440.59375 14.21875 C 440.59375 13.617188 440.703125 13.09375 440.9375 12.65625 C 441.164062 12.21875 441.476562 11.890625 441.875 11.65625 C 442.289062 11.429688 442.78125 11.3125 443.34375 11.3125 C 443.882812 11.3125 444.375 11.453125 444.8125 11.71875 C 445.25 11.992188 445.59375 12.40625 445.84375 12.96875 C 446.109375 13.53125 446.25 14.242188 446.25 15.09375 Z M 443.34375 12.1875 C 442.84375 12.1875 442.4375 12.359375 442.125 12.6875 C 441.8125 13.023438 441.65625 13.523438 441.65625 14.1875 C 441.65625 14.75 441.78125 15.1875 442.03125 15.5 C 442.296875 15.8125 442.71875 15.96875 443.28125 15.96875 C 443.671875 15.96875 444.007812 15.898438 444.28125 15.75 C 444.570312 15.585938 444.789062 15.390625 444.9375 15.15625 C 445.101562 14.90625 445.1875 14.65625 445.1875 14.40625 C 445.1875 14.054688 445.109375 13.710938 444.96875 13.375 C 444.820312 13.046875 444.609375 12.765625 444.34375 12.53125 C 444.070312 12.304688 443.734375 12.1875 443.34375 12.1875 Z M 453.140625 15.71875 C 453.140625 16.640625 453.03125 17.429688 452.828125 18.09375 C 452.640625 18.742188 452.335938 19.242188 451.921875 19.59375 C 451.5 19.953125 450.953125 20.125 450.265625 20.125 C 449.304688 20.125 448.59375 19.742188 448.140625 18.96875 C 447.679688 18.179688 447.453125 17.09375 447.453125 15.71875 C 447.453125 14.78125 447.546875 13.992188 447.734375 13.34375 C 447.921875 12.679688 448.21875 12.179688 448.640625 11.84375 C 449.054688 11.492188 449.59375 11.3125 450.265625 11.3125 C 451.242188 11.3125 451.960938 11.703125 452.421875 12.46875 C 452.898438 13.242188 453.140625 14.328125 453.140625 15.71875 Z M 448.515625 15.71875 C 448.515625 16.890625 448.640625 17.765625 448.890625 18.34375 C 449.15625 18.929688 449.617188 19.21875 450.265625 19.21875 C 450.90625 19.21875 451.367188 18.929688 451.640625 18.34375 C 451.929688 17.765625 452.078125 16.890625 452.078125 15.71875 C 452.078125 14.53125 451.929688 13.648438 451.640625 13.0625 C 451.367188 12.484375 450.90625 12.1875 450.265625 12.1875 C 449.617188 12.1875 449.15625 12.484375 448.890625 13.0625 C 448.640625 13.648438 448.515625 14.53125 448.515625 15.71875 Z M 460.007812 15.71875 C 460.007812 16.640625 459.898438 17.429688 459.695312 18.09375 C 459.507812 18.742188 459.203125 19.242188 458.789062 19.59375 C 458.367188 19.953125 457.820312 20.125 457.132812 20.125 C 456.171875 20.125 455.460938 19.742188 455.007812 18.96875 C 454.546875 18.179688 454.320312 17.09375 454.320312 15.71875 C 454.320312 14.78125 454.414062 13.992188 454.601562 13.34375 C 454.789062 12.679688 455.085938 12.179688 455.507812 11.84375 C 455.921875 11.492188 456.460938 11.3125 457.132812 11.3125 C 458.109375 11.3125 458.828125 11.703125 459.289062 12.46875 C 459.765625 13.242188 460.007812 14.328125 460.007812 15.71875 Z M 455.382812 15.71875 C 455.382812 16.890625 455.507812 17.765625 455.757812 18.34375 C 456.023438 18.929688 456.484375 19.21875 457.132812 19.21875 C 457.773438 19.21875 458.234375 18.929688 458.507812 18.34375 C 458.796875 17.765625 458.945312 16.890625 458.945312 15.71875 C 458.945312 14.53125 458.796875 13.648438 458.507812 13.0625 C 458.234375 12.484375 457.773438 12.1875 457.132812 12.1875 C 456.484375 12.1875 456.023438 12.484375 455.757812 13.0625 C 455.507812 13.648438 455.382812 14.53125 455.382812 15.71875 Z M 466.875 15.71875 C 466.875 16.640625 466.765625 17.429688 466.5625 18.09375 C 466.375 18.742188 466.070312 19.242188 465.65625 19.59375 C 465.234375 19.953125 464.6875 20.125 464 20.125 C 463.039062 20.125 462.328125 19.742188 461.875 18.96875 C 461.414062 18.179688 461.1875 17.09375 461.1875 15.71875 C 461.1875 14.78125 461.28125 13.992188 461.46875 13.34375 C 461.65625 12.679688 461.953125 12.179688 462.375 11.84375 C 462.789062 11.492188 463.328125 11.3125 464 11.3125 C 464.976562 11.3125 465.695312 11.703125 466.15625 12.46875 C 466.632812 13.242188 466.875 14.328125 466.875 15.71875 Z M 462.25 15.71875 C 462.25 16.890625 462.375 17.765625 462.625 18.34375 C 462.890625 18.929688 463.351562 19.21875 464 19.21875 C 464.640625 19.21875 465.101562 18.929688 465.375 18.34375 C 465.664062 17.765625 465.8125 16.890625 465.8125 15.71875 C 465.8125 14.53125 465.664062 13.648438 465.375 13.0625 C 465.101562 12.484375 464.640625 12.1875 464 12.1875 C 463.351562 12.1875 462.890625 12.484375 462.625 13.0625 C 462.375 13.648438 462.25 14.53125 462.25 15.71875 Z M 440 7.171875 "/>
<g mask="url(#mask-19)">
<use xlink:href="#source-88"/>
</g>
<g mask="url(#mask-20)">
<use xlink:href="#source-92"/>
</g>
<g mask="url(#mask-21)">
<use xlink:href="#source-96"/>
</g>
<g mask="url(#mask-22)">
<use xlink:href="#source-100"/>
</g>
<g mask="url(#mask-23)">
<use xlink:href="#source-104"/>
</g>
<g mask="url(#mask-24)">
<use xlink:href="#source-108"/>
</g>
<path fill-rule="nonzero" fill="rgb(100%, 100%, 100%)" fill-opacity="1" d="M 564.25 20 L 563.21875 20 L 563.21875 14 C 563.21875 13.671875 563.21875 13.398438 563.21875 13.1875 C 563.234375 12.984375 563.257812 12.765625 563.28125 12.53125 C 563.15625 12.65625 563.039062 12.773438 562.9375 12.875 C 562.828125 12.960938 562.695312 13.0625 562.53125 13.1875 L 561.625 13.9375 L 561.0625 13.21875 L 563.375 11.4375 L 564.25 11.4375 Z M 573.109375 20 L 567.421875 20 L 567.421875 19.125 L 569.671875 16.84375 C 570.109375 16.429688 570.46875 16.054688 570.765625 15.71875 C 571.054688 15.367188 571.273438 15.03125 571.421875 14.71875 C 571.585938 14.390625 571.671875 14.03125 571.671875 13.65625 C 571.671875 13.179688 571.523438 12.828125 571.234375 12.59375 C 570.960938 12.34375 570.609375 12.21875 570.171875 12.21875 C 569.75 12.21875 569.375 12.296875 569.046875 12.4375 C 568.734375 12.585938 568.421875 12.78125 568.109375 13.03125 L 567.546875 12.3125 C 567.875 12.046875 568.25 11.8125 568.671875 11.625 C 569.109375 11.421875 569.609375 11.3125 570.171875 11.3125 C 570.960938 11.3125 571.585938 11.523438 572.046875 11.9375 C 572.523438 12.335938 572.765625 12.890625 572.765625 13.59375 C 572.765625 14.03125 572.671875 14.453125 572.484375 14.84375 C 572.296875 15.242188 572.03125 15.640625 571.703125 16.03125 C 571.367188 16.40625 570.984375 16.804688 570.546875 17.21875 L 568.765625 19 L 568.765625 19.03125 L 573.109375 19.03125 Z M 580.007812 15.71875 C 580.007812 16.640625 579.898438 17.429688 579.695312 18.09375 C 579.507812 18.742188 579.203125 19.242188 578.789062 19.59375 C 578.367188 19.953125 577.820312 20.125 577.132812 20.125 C 576.171875 20.125 575.460938 19.742188 575.007812 18.96875 C 574.546875 18.179688 574.320312 17.09375 574.320312 15.71875 C 574.320312 14.78125 574.414062 13.992188 574.601562 13.34375 C 574.789062 12.679688 575.085938 12.179688 575.507812 11.84375 C 575.921875 11.492188 576.460938 11.3125 577.132812 11.3125 C 578.109375 11.3125 578.828125 11.703125 579.289062 12.46875 C 579.765625 13.242188 580.007812 14.328125 580.007812 15.71875 Z M 575.382812 15.71875 C 575.382812 16.890625 575.507812 17.765625 575.757812 18.34375 C 576.023438 18.929688 576.484375 19.21875 577.132812 19.21875 C 577.773438 19.21875 578.234375 18.929688 578.507812 18.34375 C 578.796875 17.765625 578.945312 16.890625 578.945312 15.71875 C 578.945312 14.53125 578.796875 13.648438 578.507812 13.0625 C 578.234375 12.484375 577.773438 12.1875 577.132812 12.1875 C 576.484375 12.1875 576.023438 12.484375 575.757812 13.0625 C 575.507812 13.648438 575.382812 14.53125 575.382812 15.71875 Z M 586.875 15.71875 C 586.875 16.640625 586.765625 17.429688 586.5625 18.09375 C 586.375 18.742188 586.070312 19.242188 585.65625 19.59375 C 585.234375 19.953125 584.6875 20.125 584 20.125 C 583.039062 20.125 582.328125 19.742188 581.875 18.96875 C 581.414062 18.179688 581.1875 17.09375 581.1875 15.71875 C 581.1875 14.78125 581.28125 13.992188 581.46875 13.34375 C 581.65625 12.679688 581.953125 12.179688 582.375 11.84375 C 582.789062 11.492188 583.328125 11.3125 584 11.3125 C 584.976562 11.3125 585.695312 11.703125 586.15625 12.46875 C 586.632812 13.242188 586.875 14.328125 586.875 15.71875 Z M 582.25 15.71875 C 582.25 16.890625 582.375 17.765625 582.625 18.34375 C 582.890625 18.929688 583.351562 19.21875 584 19.21875 C 584.640625 19.21875 585.101562 18.929688 585.375 18.34375 C 585.664062 17.765625 585.8125 16.890625 585.8125 15.71875 C 585.8125 14.53125 585.664062 13.648438 585.375 13.0625 C 585.101562 12.484375 584.640625 12.1875 584 12.1875 C 583.351562 12.1875 582.890625 12.484375 582.625 13.0625 C 582.375 13.648438 582.25 14.53125 582.25 15.71875 Z M 593.734375 15.71875 C 593.734375 16.640625 593.625 17.429688 593.421875 18.09375 C 593.234375 18.742188 592.929688 19.242188 592.515625 19.59375 C 592.09375 19.953125 591.546875 20.125 590.859375 20.125 C 589.898438 20.125 589.1875 19.742188 588.734375 18.96875 C 588.273438 18.179688 588.046875 17.09375 588.046875 15.71875 C 588.046875 14.78125 588.140625 13.992188 588.328125 13.34375 C 588.515625 12.679688 588.8125 12.179688 589.234375 11.84375 C 589.648438 11.492188 590.1875 11.3125 590.859375 11.3125 C 591.835938 11.3125 592.554688 11.703125 593.015625 12.46875 C 593.492188 13.242188 593.734375 14.328125 593.734375 15.71875 Z M 589.109375 15.71875 C 589.109375 16.890625 589.234375 17.765625 589.484375 18.34375 C 589.75 18.929688 590.210938 19.21875 590.859375 19.21875 C 591.5 19.21875 591.960938 18.929688 592.234375 18.34375 C 592.523438 17.765625 592.671875 16.890625 592.671875 15.71875 C 592.671875 14.53125 592.523438 13.648438 592.234375 13.0625 C 591.960938 12.484375 591.5 12.1875 590.859375 12.1875 C 590.210938 12.1875 589.75 12.484375 589.484375 13.0625 C 589.234375 13.648438 589.109375 14.53125 589.109375 15.71875 Z M 598.15625 15.34375 L 600.5625 15.34375 L 600.5625 16.1875 L 598.15625 16.1875 L 598.15625 18.65625 L 597.3125 18.65625 L 597.3125 16.1875 L 594.90625 16.1875 L 594.90625 15.34375 L 597.3125 15.34375 L 597.3125 12.875 L 598.15625 12.875 Z M 560 7.171875 "/>
</svg>
