<?xml version="1.0" encoding="UTF-8"?>
<svg xmlns="http://www.w3.org/2000/svg" xmlns:xlink="http://www.w3.org/1999/xlink" width="10" height="250" viewBox="0 0 10 250">
<path fill-rule="nonzero" fill="rgb(100%, 43.921569%, 19.607843%)" fill-opacity="1" d="M 0 240 L 10 240 L 10 250 L 0 250 Z M 0 240 "/>
<path fill-rule="nonzero" fill="rgb(100%, 60%, 19.607843%)" fill-opacity="1" d="M 0 230 L 10 230 L 10 240 L 0 240 Z M 0 230 "/>
<path fill-rule="nonzero" fill="rgb(100%, 75.686275%, 19.607843%)" fill-opacity="1" d="M 0 220 L 10 220 L 10 230 L 0 230 Z M 0 220 "/>
<path fill-rule="nonzero" fill="rgb(100%, 91.764706%, 19.607843%)" fill-opacity="1" d="M 0 210 L 10 210 L 10 220 L 0 220 Z M 0 210 "/>
<path fill-rule="nonzero" fill="rgb(91.764706%, 100%, 19.607843%)" fill-opacity="1" d="M 0 200 L 10 200 L 10 210 L 0 210 Z M 0 200 "/>
<path fill-rule="nonzero" fill="rgb(75.686275%, 100%, 19.607843%)" fill-opacity="1" d="M 0 190 L 10 190 L 10 200 L 0 200 Z M 0 190 "/>
<path fill-rule="nonzero" fill="rgb(60%, 100%, 19.607843%)" fill-opacity="1" d="M 0 180 L 10 180 L 10 190 L 0 190 Z M 0 180 "/>
<path fill-rule="nonzero" fill="rgb(43.921569%, 100%, 19.607843%)" fill-opacity="1" d="M 0 170 L 10 170 L 10 180 L 0 180 Z M 0 170 "/>
<path fill-rule="nonzero" fill="rgb(27.843137%, 100%, 19.607843%)" fill-opacity="1" d="M 0 160 L 10 160 L 10 170 L 0 170 Z M 0 160 "/>
<path fill-rule="nonzero" fill="rgb(19.607843%, 100%, 27.843137%)" fill-opacity="1" d="M 0 150 L 10 150 L 10 160 L 0 160 Z M 0 150 "/>
<path fill-rule="nonzero" fill="rgb(19.607843%, 100%, 43.921569%)" fill-opacity="1" d="M 0 140 L 10 140 L 10 150 L 0 150 Z M 0 140 "/>
<path fill-rule="nonzero" fill="rgb(19.607843%, 100%, 60%)" fill-opacity="1" d="M 0 130 L 10 130 L 10 140 L 0 140 Z M 0 130 "/>
<path fill-rule="nonzero" fill="rgb(19.607843%, 100%, 75.686275%)" fill-opacity="1" d="M 0 120 L 10 120 L 10 130 L 0 130 Z M 0 120 "/>
<path fill-rule="nonzero" fill="rgb(19.607843%, 100%, 91.764706%)" fill-opacity="1" d="M 0 110 L 10 110 L 10 120 L 0 120 Z M 0 110 "/>
<path fill-rule="nonzero" fill="rgb(19.607843%, 91.764706%, 100%)" fill-opacity="1" d="M 0 100 L 10 100 L 10 110 L 0 110 Z M 0 100 "/>
<path fill-rule="nonzero" fill="rgb(19.607843%, 75.686275%, 100%)" fill-opacity="1" d="M 0 90 L 10 90 L 10 100 L 0 100 Z M 0 90 "/>
<path fill-rule="nonzero" fill="rgb(19.607843%, 60%, 100%)" fill-opacity="1" d="M 0 80 L 10 80 L 10 90 L 0 90 Z M 0 80 "/>
<path fill-rule="nonzero" fill="rgb(19.607843%, 43.921569%, 100%)" fill-opacity="1" d="M 0 70 L 10 70 L 10 80 L 0 80 Z M 0 70 "/>
<path fill-rule="nonzero" fill="rgb(19.607843%, 27.843137%, 100%)" fill-opacity="1" d="M 0 60 L 10 60 L 10 70 L 0 70 Z M 0 60 "/>
<path fill-rule="nonzero" fill="rgb(27.843137%, 19.607843%, 100%)" fill-opacity="1" d="M 0 50 L 10 50 L 10 60 L 0 60 Z M 0 50 "/>
<path fill-rule="nonzero" fill="rgb(43.921569%, 19.607843%, 100%)" fill-opacity="1" d="M 0 40 L 10 40 L 10 50 L 0 50 Z M 0 40 "/>
<path fill-rule="nonzero" fill="rgb(60%, 19.607843%, 100%)" fill-opacity="1" d="M 0 30 L 10 30 L 10 40 L 0 40 Z M 0 30 "/>
<path fill-rule="nonzero" fill="rgb(75.686275%, 19.607843%, 100%)" fill-opacity="1" d="M 0 20 L 10 20 L 10 30 L 0 30 Z M 0 20 "/>
<path fill-rule="nonzero" fill="rgb(91.764706%, 19.607843%, 100%)" fill-opacity="1" d="M 0 10 L 10 10 L 10 20 L 0 20 Z M 0 10 "/>
<path fill-rule="nonzero" fill="rgb(100%, 19.607843%, 91.764706%)" fill-opacity="1" d="M 0 0 L 10 0 L 10 10 L 0 10 Z M 0 0 "/>
</svg>
